<svg width="36" height="28" viewBox="0 0 36 28" fill="none" xmlns="http://www.w3.org/2000/svg">
<path d="M8.36944 22.7736C9.11381 22.7736 9.63295 22.2632 9.63295 21.5028C9.63295 21.0611 9.58936 20.5984 9.58936 19.959C9.58936 16.0206 10.9766 14.4219 14.8745 14.4219H22.4774L25.2864 14.2524L21.779 17.4315L19.1732 20.0694C18.951 20.3012 18.8034 20.6246 18.8034 20.9903C18.8034 21.6943 19.3309 22.2132 20.0666 22.2132C20.3868 22.2132 20.7037 22.0803 20.9802 21.8134L28.7087 14.0987C28.9844 13.8326 29.129 13.4893 29.129 13.1352C29.129 12.7906 28.9844 12.4355 28.7087 12.1813L20.9994 4.48156C20.7037 4.18578 20.3868 4.0625 20.0666 4.0625C19.3309 4.0625 18.8034 4.5814 18.8034 5.28546C18.8034 5.65108 18.9414 5.96491 19.1732 6.1967L21.779 8.8367L25.2768 12.0158L22.4774 11.8559H14.7121C9.2882 11.8559 7 14.3568 7 19.8789C7 20.5565 7.02555 21.1677 7.11812 21.6268C7.22031 22.2022 7.57117 22.7736 8.36944 22.7736Z" fill="black"/>
</svg>
