<svg width="25" height="26" viewBox="0 0 25 26" fill="none" xmlns="http://www.w3.org/2000/svg">
<path d="M18.3963 12.9888C18.3963 13.3258 18.2676 13.5937 17.9953 13.8501L13.8686 17.9189C13.6624 18.1209 13.4325 18.221 13.1325 18.221C12.5611 18.221 12.146 17.7921 12.146 17.2101C12.146 16.9186 12.2683 16.6537 12.464 16.4728L13.9282 15.0647L15.3044 13.9598L12.7983 14.0704H6.85664C6.2407 14.0704 5.79492 13.6132 5.79492 12.9888C5.79492 12.3548 6.2407 11.8976 6.85664 11.8976H12.7983L15.3044 12.0178L13.9155 10.9108L12.464 9.50479C12.2822 9.31213 12.146 9.04729 12.146 8.75784C12.146 8.178 12.5611 7.75659 13.1325 7.75659C13.4325 7.75659 13.6624 7.84706 13.8686 8.04909L17.9953 12.1296C18.2772 12.4031 18.3963 12.6518 18.3963 12.9888Z" fill="#010101"/>
</svg>
