<svg width="5" height="8" viewBox="0 0 5 8" fill="none" xmlns="http://www.w3.org/2000/svg">
<path d="M4.55117 3.99252C4.55044 3.85135 4.49947 3.73199 4.38576 3.62093L1.1144 0.455044C1.02265 0.360829 0.908795 0.315606 0.77396 0.316305C0.501262 0.317717 0.286516 0.530474 0.287917 0.800892C0.288623 0.937259 0.347202 1.05658 0.440027 1.15036L3.3903 3.99932L0.469694 6.87714C0.377102 6.97264 0.320525 7.09525 0.321209 7.22742C0.322614 7.4986 0.539549 7.70838 0.812247 7.70697C0.94783 7.70627 1.06047 7.65984 1.15125 7.56812L4.38962 4.36584C4.50144 4.25705 4.55115 4.13448 4.55117 3.99252Z" fill="black"/>
</svg>
