<svg width="5" height="8" viewBox="0 0 5 8" fill="none" xmlns="http://www.w3.org/2000/svg">
<path d="M4.26601 3.99057C4.26528 3.84939 4.21432 3.73003 4.10061 3.61897L0.829244 0.453091C0.737497 0.358876 0.623639 0.313653 0.488804 0.314352C0.216106 0.315764 0.00135975 0.528521 0.00276064 0.798939C0.00346709 0.935306 0.0620461 1.05463 0.15487 1.14841L3.10515 3.99737L0.184538 6.87519C0.0919459 6.97068 0.0353685 7.0933 0.0360532 7.22546C0.037458 7.49665 0.254393 7.70643 0.527091 7.70502C0.662674 7.70431 0.77531 7.65789 0.866094 7.56616L4.10447 4.36389C4.21629 4.2551 4.266 4.13253 4.26601 3.99057Z" fill="black"/>
</svg>
