<svg width="25" height="26" viewBox="0 0 25 26" fill="none" xmlns="http://www.w3.org/2000/svg">
<path d="M18.3963 12.99C18.3963 13.327 18.2676 13.5949 17.9953 13.8513L13.8686 17.9201C13.6624 18.1221 13.4325 18.2222 13.1325 18.2222C12.5611 18.2222 12.146 17.7933 12.146 17.2113C12.146 16.9198 12.2683 16.6549 12.464 16.474L13.9282 15.0659L15.3044 13.961L12.7983 14.0716H6.85664C6.2407 14.0716 5.79492 13.6144 5.79492 12.99C5.79492 12.356 6.2407 11.8988 6.85664 11.8988H12.7983L15.3044 12.019L13.9155 10.912L12.464 9.50601C12.2822 9.31335 12.146 9.04851 12.146 8.75906C12.146 8.17922 12.5611 7.75781 13.1325 7.75781C13.4325 7.75781 13.6624 7.84828 13.8686 8.05031L17.9953 12.1308C18.2772 12.4043 18.3963 12.653 18.3963 12.99Z" fill="#010101"/>
</svg>
