<svg width="28" height="28" viewBox="0 0 28 28" fill="none" xmlns="http://www.w3.org/2000/svg">
<path d="M13.5297 17.8363C13.7419 17.8352 13.9338 17.7537 14.0916 17.588L18.8431 12.7201C18.9795 12.5837 19.0531 12.415 19.0531 12.2174C19.0531 11.8098 18.7367 11.4883 18.3325 11.4883C18.1349 11.4883 17.951 11.5675 17.81 11.7067L13.2241 16.4099H13.8346L9.24421 11.7067C9.1073 11.5698 8.92446 11.4883 8.72064 11.4883C8.31527 11.4883 8 11.8098 8 12.2174C8 12.4139 8.07476 12.5826 8.20893 12.7253L12.9627 17.588C13.1307 17.756 13.3135 17.8363 13.5297 17.8363Z" fill="black"/>
</svg>
