<svg width="25" height="26" viewBox="0 0 25 26" fill="none" xmlns="http://www.w3.org/2000/svg">
<path d="M18.3963 12.9887C18.3963 13.3257 18.2676 13.5936 17.9953 13.85L13.8686 17.9188C13.6624 18.1208 13.4325 18.2209 13.1325 18.2209C12.5611 18.2209 12.146 17.792 12.146 17.21C12.146 16.9185 12.2683 16.6536 12.464 16.4727L13.9282 15.0646L15.3044 13.9597L12.7983 14.0703H6.85664C6.2407 14.0703 5.79492 13.6131 5.79492 12.9887C5.79492 12.3547 6.2407 11.8975 6.85664 11.8975H12.7983L15.3044 12.0177L13.9155 10.9107L12.464 9.50473C12.2822 9.31207 12.146 9.04723 12.146 8.75778C12.146 8.17794 12.5611 7.75653 13.1325 7.75653C13.4325 7.75653 13.6624 7.847 13.8686 8.04903L17.9953 12.1295C18.2772 12.403 18.3963 12.6517 18.3963 12.9887Z" fill="#010101"/>
</svg>
