<svg width="25" height="26" viewBox="0 0 25 26" fill="none" xmlns="http://www.w3.org/2000/svg">
<path d="M18.7889 12.99C18.7889 13.327 18.6602 13.5949 18.3879 13.8513L14.2612 17.9201C14.055 18.1221 13.8251 18.2222 13.5251 18.2222C12.9537 18.2222 12.5386 17.7933 12.5386 17.2113C12.5386 16.9198 12.6609 16.6549 12.8566 16.474L14.3208 15.0659L15.697 13.961L13.1909 14.0716H7.24922C6.63328 14.0716 6.1875 13.6144 6.1875 12.99C6.1875 12.356 6.63328 11.8988 7.24922 11.8988H13.1909L15.697 12.019L14.3081 10.912L12.8566 9.50601C12.6748 9.31335 12.5386 9.04851 12.5386 8.75906C12.5386 8.17922 12.9537 7.75781 13.5251 7.75781C13.8251 7.75781 14.055 7.84828 14.2612 8.05031L18.3879 12.1308C18.6698 12.4043 18.7889 12.653 18.7889 12.99Z" fill="#010101"/>
</svg>
