<svg width="5" height="8" viewBox="0 0 5 8" fill="none" xmlns="http://www.w3.org/2000/svg">
<path d="M4.26601 3.99252C4.26528 3.85135 4.21432 3.73199 4.10061 3.62093L0.829244 0.455044C0.737497 0.360829 0.623639 0.315606 0.488804 0.316305C0.216106 0.317717 0.00135964 0.530474 0.00276054 0.800892C0.00346698 0.937259 0.062046 1.05658 0.15487 1.15036L3.10515 3.99932L0.184538 6.87714C0.091946 6.97264 0.0353684 7.09525 0.0360531 7.22742C0.0374579 7.4986 0.254393 7.70838 0.527091 7.70697C0.662674 7.70627 0.77531 7.65984 0.866094 7.56812L4.10447 4.36584C4.21629 4.25705 4.266 4.13448 4.26601 3.99252Z" fill="black"/>
</svg>
