<svg width="5" height="9" viewBox="0 0 5 9" fill="none" xmlns="http://www.w3.org/2000/svg">
<path d="M4.55068 4.49106C4.54995 4.34988 4.49899 4.23052 4.38528 4.11946L1.11391 0.953579C1.02217 0.859364 0.908307 0.814141 0.773472 0.81484C0.500774 0.816253 0.286028 1.02901 0.287429 1.29943C0.288135 1.43579 0.346714 1.55512 0.439538 1.6489L3.38982 4.49786L0.469206 7.37568C0.376614 7.47117 0.320036 7.59379 0.320721 7.72595C0.322126 7.99713 0.539061 8.20692 0.811759 8.2055C0.947342 8.2048 1.05998 8.15838 1.15076 8.06665L4.38914 4.86438C4.50095 4.75559 4.55067 4.63302 4.55068 4.49106Z" fill="black"/>
</svg>
