<svg width="5" height="8" viewBox="0 0 5 8" fill="none" xmlns="http://www.w3.org/2000/svg">
<path d="M4.26577 3.99106C4.26504 3.84988 4.21407 3.73052 4.10036 3.61946L0.829 0.453579C0.737253 0.359364 0.623395 0.314142 0.48856 0.31484C0.215862 0.316253 0.0011156 0.529009 0.0025165 0.799427C0.00322295 0.935794 0.0618019 1.05512 0.154626 1.1489L3.1049 3.99786L0.184294 6.87568C0.0917018 6.97117 0.0351243 7.09379 0.035809 7.22595C0.0372139 7.49713 0.254149 7.70692 0.526847 7.7055C0.66243 7.7048 0.775066 7.65838 0.865849 7.56665L4.10422 4.36438C4.21604 4.25559 4.26575 4.13302 4.26577 3.99106Z" fill="black"/>
</svg>
