<svg width="29" height="28" viewBox="0 0 29 28" fill="none" xmlns="http://www.w3.org/2000/svg">
<path d="M14.4242 17.8363C14.6364 17.8352 14.8284 17.7537 14.9861 17.588L19.7376 12.7201C19.874 12.5837 19.9476 12.415 19.9476 12.2174C19.9476 11.8098 19.6313 11.4883 19.227 11.4883C19.0295 11.4883 18.8455 11.5675 18.7046 11.7067L14.1187 16.4099H14.7292L10.1387 11.7067C10.0018 11.5698 9.81899 11.4883 9.61518 11.4883C9.2098 11.4883 8.89453 11.8098 8.89453 12.2174C8.89453 12.4139 8.96929 12.5826 9.10346 12.7253L13.8572 17.588C14.0252 17.756 14.208 17.8363 14.4242 17.8363Z" fill="black"/>
</svg>
