<svg width="25" height="26" viewBox="0 0 25 26" fill="none" xmlns="http://www.w3.org/2000/svg">
<path d="M19.1835 12.99C19.1835 13.327 19.0548 13.5949 18.7825 13.8513L14.6558 17.9201C14.4496 18.1221 14.2197 18.2222 13.9197 18.2222C13.3483 18.2222 12.9332 17.7933 12.9332 17.2113C12.9332 16.9198 13.0555 16.6549 13.2512 16.474L14.7154 15.0659L16.0916 13.961L13.5855 14.0716H7.64375C7.02781 14.0716 6.58203 13.6144 6.58203 12.99C6.58203 12.356 7.02781 11.8988 7.64375 11.8988H13.5855L16.0916 12.019L14.7027 10.912L13.2512 9.50601C13.0694 9.31335 12.9332 9.04851 12.9332 8.75906C12.9332 8.17922 13.3483 7.75781 13.9197 7.75781C14.2197 7.75781 14.4496 7.84828 14.6558 8.05031L18.7825 12.1308C19.0644 12.4043 19.1835 12.653 19.1835 12.99Z" fill="#010101"/>
</svg>
