<svg width="29" height="28" viewBox="0 0 29 28" fill="none" xmlns="http://www.w3.org/2000/svg">
<path d="M14.4237 17.8349C14.6359 17.8337 14.8279 17.7523 14.9856 17.5865L19.7371 12.7187C19.8736 12.5823 19.9472 12.4135 19.9472 12.2159C19.9472 11.8083 19.6308 11.4868 19.2265 11.4868C19.029 11.4868 18.845 11.5661 18.7041 11.7052L14.1182 16.4084H14.7287L10.1383 11.7052C10.0013 11.5683 9.8185 11.4868 9.61469 11.4868C9.20931 11.4868 8.89404 11.8083 8.89404 12.2159C8.89404 12.4124 8.9688 12.5811 9.10297 12.7238L13.8567 17.5865C14.0247 17.7545 14.2076 17.8349 14.4237 17.8349Z" fill="black"/>
</svg>
