<svg width="25" height="26" viewBox="0 0 25 26" fill="none" xmlns="http://www.w3.org/2000/svg">
<path d="M18.3961 12.9888C18.3961 13.3258 18.2674 13.5937 17.9951 13.8501L13.8684 17.9189C13.6622 18.1209 13.4323 18.221 13.1323 18.221C12.5609 18.221 12.1458 17.7921 12.1458 17.2101C12.1458 16.9186 12.2681 16.6537 12.4638 16.4728L13.928 15.0647L15.3042 13.9598L12.7981 14.0704H6.8564C6.24046 14.0704 5.79468 13.6132 5.79468 12.9888C5.79468 12.3548 6.24046 11.8976 6.8564 11.8976H12.7981L15.3042 12.0178L13.9153 10.9108L12.4638 9.50479C12.282 9.31213 12.1458 9.04729 12.1458 8.75784C12.1458 8.178 12.5609 7.75659 13.1323 7.75659C13.4323 7.75659 13.6622 7.84706 13.8684 8.04909L17.9951 12.1296C18.277 12.4031 18.3961 12.6518 18.3961 12.9888Z" fill="#010101"/>
</svg>
