<svg width="25" height="26" viewBox="0 0 25 26" fill="none" xmlns="http://www.w3.org/2000/svg">
<path d="M18.3944 12.99C18.3944 13.327 18.2657 13.5949 17.9934 13.8513L13.8667 17.9201C13.6605 18.1221 13.4306 18.2222 13.1306 18.2222C12.5592 18.2222 12.1441 17.7933 12.1441 17.2113C12.1441 16.9198 12.2664 16.6549 12.4621 16.474L13.9263 15.0659L15.3025 13.961L12.7964 14.0716H6.85469C6.23875 14.0716 5.79297 13.6144 5.79297 12.99C5.79297 12.356 6.23875 11.8988 6.85469 11.8988H12.7964L15.3025 12.019L13.9136 10.912L12.4621 9.50601C12.2803 9.31335 12.1441 9.04851 12.1441 8.75906C12.1441 8.17922 12.5592 7.75781 13.1306 7.75781C13.4306 7.75781 13.6605 7.84828 13.8667 8.05031L17.9934 12.1308C18.2753 12.4043 18.3944 12.653 18.3944 12.99Z" fill="#010101"/>
</svg>
