<svg width="25" height="26" viewBox="0 0 25 26" fill="none" xmlns="http://www.w3.org/2000/svg">
<path d="M18.79 12.9885C18.79 13.3255 18.6613 13.5934 18.389 13.8498L14.2623 17.9186C14.0561 18.1206 13.8262 18.2207 13.5262 18.2207C12.9548 18.2207 12.5397 17.7918 12.5397 17.2098C12.5397 16.9183 12.662 16.6534 12.8577 16.4725L14.3219 15.0644L15.6981 13.9595L13.192 14.0701H7.25032C6.63438 14.0701 6.1886 13.6129 6.1886 12.9885C6.1886 12.3545 6.63438 11.8973 7.25032 11.8973H13.192L15.6981 12.0175L14.3092 10.9105L12.8577 9.50455C12.6759 9.31189 12.5397 9.04705 12.5397 8.7576C12.5397 8.17776 12.9548 7.75635 13.5262 7.75635C13.8262 7.75635 14.0561 7.84682 14.2623 8.04885L18.389 12.1293C18.6709 12.4028 18.79 12.6515 18.79 12.9885Z" fill="#010101"/>
</svg>
