<svg width="5" height="8" viewBox="0 0 5 8" fill="none" xmlns="http://www.w3.org/2000/svg">
<path d="M4.55117 3.99057C4.55044 3.84939 4.49947 3.73003 4.38576 3.61897L1.1144 0.453091C1.02265 0.358876 0.908795 0.313653 0.77396 0.314352C0.501262 0.315764 0.286516 0.528521 0.287917 0.798939C0.288623 0.935306 0.347202 1.05463 0.440027 1.14841L3.3903 3.99737L0.469694 6.87519C0.377102 6.97068 0.320525 7.0933 0.321209 7.22546C0.322614 7.49665 0.53955 7.70643 0.812247 7.70502C0.94783 7.70431 1.06047 7.65789 1.15125 7.56616L4.38962 4.36389C4.50144 4.2551 4.55115 4.13253 4.55117 3.99057Z" fill="black"/>
</svg>
