<svg width="5" height="8" viewBox="0 0 5 8" fill="none" xmlns="http://www.w3.org/2000/svg">
<path d="M4.55068 3.99106C4.54995 3.84988 4.49899 3.73052 4.38528 3.61946L1.11391 0.453579C1.02217 0.359364 0.908307 0.314141 0.773472 0.31484C0.500774 0.316253 0.286028 0.52901 0.287429 0.799428C0.288135 0.935794 0.346714 1.05512 0.439538 1.1489L3.38982 3.99786L0.469206 6.87568C0.376614 6.97117 0.320036 7.09379 0.320721 7.22595C0.322126 7.49713 0.539061 7.70692 0.811759 7.7055C0.947342 7.7048 1.05998 7.65838 1.15076 7.56665L4.38914 4.36438C4.50095 4.25559 4.55067 4.13302 4.55068 3.99106Z" fill="black"/>
</svg>
