<svg width="5" height="9" viewBox="0 0 5 9" fill="none" xmlns="http://www.w3.org/2000/svg">
<path d="M4.26577 4.49106C4.26504 4.34988 4.21407 4.23052 4.10036 4.11946L0.829 0.953579C0.737253 0.859364 0.623395 0.814141 0.48856 0.81484C0.215862 0.816253 0.0011155 1.02901 0.0025164 1.29943C0.00322284 1.43579 0.0618019 1.55512 0.154626 1.6489L3.1049 4.49786L0.184294 7.37568C0.0917018 7.47117 0.0351242 7.59379 0.0358089 7.72595C0.0372138 7.99713 0.254149 8.20692 0.526847 8.2055C0.66243 8.2048 0.775066 8.15838 0.865849 8.06665L4.10422 4.86438C4.21604 4.75559 4.26575 4.63302 4.26577 4.49106Z" fill="black"/>
</svg>
