<svg width="25" height="26" viewBox="0 0 25 26" fill="none" xmlns="http://www.w3.org/2000/svg">
<path d="M19.1839 12.9885C19.1839 13.3255 19.0552 13.5934 18.7829 13.8498L14.6562 17.9186C14.45 18.1206 14.2201 18.2207 13.9201 18.2207C13.3487 18.2207 12.9336 17.7918 12.9336 17.2098C12.9336 16.9183 13.0559 16.6534 13.2516 16.4725L14.7158 15.0644L16.092 13.9595L13.5859 14.0701H7.64424C7.0283 14.0701 6.58252 13.6129 6.58252 12.9885C6.58252 12.3545 7.0283 11.8973 7.64424 11.8973H13.5859L16.092 12.0175L14.7031 10.9105L13.2516 9.50455C13.0698 9.31189 12.9336 9.04705 12.9336 8.7576C12.9336 8.17776 13.3487 7.75635 13.9201 7.75635C14.2201 7.75635 14.45 7.84682 14.6562 8.04885L18.7829 12.1293C19.0648 12.4028 19.1839 12.6515 19.1839 12.9885Z" fill="#010101"/>
</svg>
