<svg width="40" height="15" viewBox="0 0 40 15" fill="none" xmlns="http://www.w3.org/2000/svg">
<path d="M6.46612 8.78045H2.39212L1.69212 10.7684H0.026123L3.51212 1.02445H5.36012L8.84612 10.7684H7.16612L6.46612 8.78045ZM6.01812 7.47845L4.43612 2.95645L2.84012 7.47845H6.01812Z" fill="#F2F2F2"/>
<path d="M11.9578 4.18845C12.2285 3.83378 12.5972 3.53511 13.0638 3.29245C13.5305 3.04978 14.0578 2.92845 14.6458 2.92845C15.3178 2.92845 15.9292 3.09645 16.4798 3.43245C17.0398 3.75911 17.4785 4.22111 17.7958 4.81845C18.1132 5.41578 18.2718 6.10178 18.2718 6.87645C18.2718 7.65111 18.1132 8.34645 17.7958 8.96245C17.4785 9.56911 17.0398 10.0451 16.4798 10.3904C15.9292 10.7264 15.3178 10.8944 14.6458 10.8944C14.0578 10.8944 13.5352 10.7778 13.0778 10.5444C12.6205 10.3018 12.2472 10.0031 11.9578 9.64845V14.4364H10.3618V3.05445H11.9578V4.18845ZM16.6478 6.87645C16.6478 6.34445 16.5358 5.88711 16.3118 5.50445C16.0972 5.11245 15.8078 4.81845 15.4438 4.62245C15.0892 4.41711 14.7065 4.31445 14.2958 4.31445C13.8945 4.31445 13.5118 4.41711 13.1478 4.62245C12.7932 4.82778 12.5038 5.12645 12.2798 5.51845C12.0652 5.91045 11.9578 6.37245 11.9578 6.90445C11.9578 7.43645 12.0652 7.90311 12.2798 8.30445C12.5038 8.69645 12.7932 8.99511 13.1478 9.20045C13.5118 9.40578 13.8945 9.50845 14.2958 9.50845C14.7065 9.50845 15.0892 9.40578 15.4438 9.20045C15.8078 8.98578 16.0972 8.67778 16.3118 8.27645C16.5358 7.87511 16.6478 7.40845 16.6478 6.87645Z" fill="#F2F2F2"/>
<path d="M21.4461 4.18845C21.7168 3.83378 22.0855 3.53511 22.5521 3.29245C23.0188 3.04978 23.5461 2.92845 24.1341 2.92845C24.8061 2.92845 25.4175 3.09645 25.9681 3.43245C26.5281 3.75911 26.9668 4.22111 27.2841 4.81845C27.6015 5.41578 27.7601 6.10178 27.7601 6.87645C27.7601 7.65111 27.6015 8.34645 27.2841 8.96245C26.9668 9.56911 26.5281 10.0451 25.9681 10.3904C25.4175 10.7264 24.8061 10.8944 24.1341 10.8944C23.5461 10.8944 23.0235 10.7778 22.5661 10.5444C22.1088 10.3018 21.7355 10.0031 21.4461 9.64845V14.4364H19.8501V3.05445H21.4461V4.18845ZM26.1361 6.87645C26.1361 6.34445 26.0241 5.88711 25.8001 5.50445C25.5855 5.11245 25.2961 4.81845 24.9321 4.62245C24.5775 4.41711 24.1948 4.31445 23.7841 4.31445C23.3828 4.31445 23.0001 4.41711 22.6361 4.62245C22.2815 4.82778 21.9921 5.12645 21.7681 5.51845C21.5535 5.91045 21.4461 6.37245 21.4461 6.90445C21.4461 7.43645 21.5535 7.90311 21.7681 8.30445C21.9921 8.69645 22.2815 8.99511 22.6361 9.20045C23.0001 9.40578 23.3828 9.50845 23.7841 9.50845C24.1948 9.50845 24.5775 9.40578 24.9321 9.20045C25.2961 8.98578 25.5855 8.67778 25.8001 8.27645C26.0241 7.87511 26.1361 7.40845 26.1361 6.87645Z" fill="#F2F2F2"/>
<path d="M30.9344 0.408447V10.7684H29.3384V0.408447H30.9344Z" fill="#F2F2F2"/>
<path d="M39.9738 3.05445L35.2418 14.3944H33.5898L35.1578 10.6424L32.1198 3.05445H33.8978L36.0678 8.93445L38.3218 3.05445H39.9738Z" fill="#F2F2F2"/>
</svg>
