<svg width="40" height="15" viewBox="0 0 40 15" fill="none" xmlns="http://www.w3.org/2000/svg">
<path d="M6.46734 8.77825H2.39334L1.69334 10.7663H0.0273438L3.51334 1.02225H5.36134L8.84734 10.7663H7.16734L6.46734 8.77825ZM6.01934 7.47625L4.43734 2.95425L2.84134 7.47625H6.01934Z" fill="#F2F2F2"/>
<path d="M11.9591 4.18625C12.2297 3.83158 12.5984 3.53292 13.0651 3.29025C13.5317 3.04758 14.0591 2.92625 14.6471 2.92625C15.3191 2.92625 15.9304 3.09425 16.4811 3.43025C17.0411 3.75692 17.4797 4.21892 17.7971 4.81625C18.1144 5.41358 18.2731 6.09958 18.2731 6.87425C18.2731 7.64892 18.1144 8.34425 17.7971 8.96025C17.4797 9.56692 17.0411 10.0429 16.4811 10.3883C15.9304 10.7243 15.3191 10.8923 14.6471 10.8923C14.0591 10.8923 13.5364 10.7756 13.0791 10.5422C12.6217 10.2996 12.2484 10.0009 11.9591 9.64625V14.4343H10.3631V3.05225H11.9591V4.18625ZM16.6491 6.87425C16.6491 6.34225 16.5371 5.88492 16.3131 5.50225C16.0984 5.11025 15.8091 4.81625 15.4451 4.62025C15.0904 4.41492 14.7077 4.31225 14.2971 4.31225C13.8957 4.31225 13.5131 4.41492 13.1491 4.62025C12.7944 4.82558 12.5051 5.12425 12.2811 5.51625C12.0664 5.90825 11.9591 6.37025 11.9591 6.90225C11.9591 7.43425 12.0664 7.90092 12.2811 8.30225C12.5051 8.69425 12.7944 8.99292 13.1491 9.19825C13.5131 9.40358 13.8957 9.50625 14.2971 9.50625C14.7077 9.50625 15.0904 9.40358 15.4451 9.19825C15.8091 8.98358 16.0984 8.67558 16.3131 8.27425C16.5371 7.87292 16.6491 7.40625 16.6491 6.87425Z" fill="#F2F2F2"/>
<path d="M21.4473 4.18625C21.718 3.83158 22.0867 3.53292 22.5533 3.29025C23.02 3.04758 23.5473 2.92625 24.1353 2.92625C24.8073 2.92625 25.4187 3.09425 25.9693 3.43025C26.5293 3.75692 26.968 4.21892 27.2853 4.81625C27.6027 5.41358 27.7613 6.09958 27.7613 6.87425C27.7613 7.64892 27.6027 8.34425 27.2853 8.96025C26.968 9.56692 26.5293 10.0429 25.9693 10.3883C25.4187 10.7243 24.8073 10.8923 24.1353 10.8923C23.5473 10.8923 23.0247 10.7756 22.5673 10.5422C22.11 10.2996 21.7367 10.0009 21.4473 9.64625V14.4343H19.8513V3.05225H21.4473V4.18625ZM26.1373 6.87425C26.1373 6.34225 26.0253 5.88492 25.8013 5.50225C25.5867 5.11025 25.2973 4.81625 24.9333 4.62025C24.5787 4.41492 24.196 4.31225 23.7853 4.31225C23.384 4.31225 23.0013 4.41492 22.6373 4.62025C22.2827 4.82558 21.9933 5.12425 21.7693 5.51625C21.5547 5.90825 21.4473 6.37025 21.4473 6.90225C21.4473 7.43425 21.5547 7.90092 21.7693 8.30225C21.9933 8.69425 22.2827 8.99292 22.6373 9.19825C23.0013 9.40358 23.384 9.50625 23.7853 9.50625C24.196 9.50625 24.5787 9.40358 24.9333 9.19825C25.2973 8.98358 25.5867 8.67558 25.8013 8.27425C26.0253 7.87292 26.1373 7.40625 26.1373 6.87425Z" fill="#F2F2F2"/>
<path d="M30.9356 0.40625V10.7663H29.3396V0.40625H30.9356Z" fill="#F2F2F2"/>
<path d="M39.975 3.05225L35.243 14.3923H33.591L35.159 10.6402L32.121 3.05225H33.899L36.069 8.93225L38.323 3.05225H39.975Z" fill="#F2F2F2"/>
</svg>
