<svg width="66" height="11" viewBox="0 0 66 11" fill="none" xmlns="http://www.w3.org/2000/svg">
<path d="M3.68277 10.3854C3.02944 10.3854 2.44144 10.2734 1.91877 10.0494C1.3961 9.81606 0.985436 9.4894 0.686769 9.0694C0.388103 8.6494 0.23877 8.1594 0.23877 7.5994H1.94677C1.9841 8.0194 2.14744 8.36473 2.43677 8.6354C2.73544 8.90606 3.15077 9.0414 3.68277 9.0414C4.23344 9.0414 4.66277 8.91073 4.97077 8.6494C5.27877 8.37873 5.43277 8.0334 5.43277 7.6134C5.43277 7.28673 5.33477 7.02073 5.13877 6.8154C4.9521 6.61006 4.7141 6.4514 4.42477 6.3394C4.14477 6.2274 3.75277 6.10606 3.24877 5.9754C2.6141 5.8074 2.0961 5.6394 1.69477 5.4714C1.30277 5.29406 0.966769 5.0234 0.686769 4.6594C0.406769 4.2954 0.26677 3.81006 0.26677 3.2034C0.26677 2.6434 0.406769 2.1534 0.686769 1.7334C0.966769 1.3134 1.35877 0.991397 1.86277 0.767397C2.36677 0.543397 2.9501 0.431396 3.61277 0.431396C4.55544 0.431396 5.32544 0.669397 5.92277 1.1454C6.52944 1.61206 6.86544 2.25606 6.93077 3.0774H5.16677C5.13877 2.72273 4.97077 2.4194 4.66277 2.1674C4.35477 1.9154 3.94877 1.7894 3.44477 1.7894C2.98744 1.7894 2.6141 1.90606 2.32477 2.1394C2.03544 2.37273 1.89077 2.70873 1.89077 3.1474C1.89077 3.44606 1.97944 3.6934 2.15677 3.8894C2.34344 4.07606 2.57677 4.2254 2.85677 4.3374C3.13677 4.4494 3.51944 4.57073 4.00477 4.7014C4.64877 4.87873 5.17144 5.05606 5.57277 5.2334C5.98344 5.41073 6.32877 5.68606 6.60877 6.0594C6.8981 6.4234 7.04277 6.9134 7.04277 7.5294C7.04277 8.02406 6.90744 8.49073 6.63677 8.9294C6.37544 9.36806 5.9881 9.72273 5.47477 9.9934C4.97077 10.2547 4.37344 10.3854 3.68277 10.3854Z" fill="#010101"/>
<path d="M15.996 6.2414C15.996 6.53073 15.9773 6.79206 15.94 7.0254H10.046C10.0927 7.6414 10.3213 8.13606 10.732 8.5094C11.1427 8.88273 11.6467 9.0694 12.244 9.0694C13.1027 9.0694 13.7093 8.71006 14.064 7.9914H15.786C15.5527 8.70073 15.128 9.28406 14.512 9.7414C13.9053 10.1894 13.1493 10.4134 12.244 10.4134C11.5067 10.4134 10.844 10.2501 10.256 9.9234C9.67732 9.5874 9.21999 9.12073 8.88399 8.5234C8.55732 7.91673 8.39399 7.21673 8.39399 6.4234C8.39399 5.63006 8.55266 4.93473 8.86999 4.3374C9.19666 3.73073 9.64932 3.26406 10.228 2.9374C10.816 2.61073 11.488 2.4474 12.244 2.4474C12.972 2.4474 13.6207 2.60606 14.19 2.9234C14.7593 3.24073 15.2027 3.68873 15.52 4.2674C15.8373 4.83673 15.996 5.49473 15.996 6.2414ZM14.33 5.7374C14.3207 5.1494 14.1107 4.67806 13.7 4.3234C13.2893 3.96873 12.7807 3.7914 12.174 3.7914C11.6233 3.7914 11.152 3.96873 10.76 4.3234C10.368 4.66873 10.1347 5.14006 10.06 5.7374H14.33Z" fill="#010101"/>
<path d="M24.6366 6.2414C24.6366 6.53073 24.6179 6.79206 24.5806 7.0254H18.6866C18.7333 7.6414 18.9619 8.13606 19.3726 8.5094C19.7833 8.88273 20.2873 9.0694 20.8846 9.0694C21.7433 9.0694 22.3499 8.71006 22.7046 7.9914H24.4266C24.1933 8.70073 23.7686 9.28406 23.1526 9.7414C22.5459 10.1894 21.7899 10.4134 20.8846 10.4134C20.1473 10.4134 19.4846 10.2501 18.8966 9.9234C18.3179 9.5874 17.8606 9.12073 17.5246 8.5234C17.1979 7.91673 17.0346 7.21673 17.0346 6.4234C17.0346 5.63006 17.1933 4.93473 17.5106 4.3374C17.8373 3.73073 18.2899 3.26406 18.8686 2.9374C19.4566 2.61073 20.1286 2.4474 20.8846 2.4474C21.6126 2.4474 22.2613 2.60606 22.8306 2.9234C23.3999 3.24073 23.8433 3.68873 24.1606 4.2674C24.4779 4.83673 24.6366 5.49473 24.6366 6.2414ZM22.9706 5.7374C22.9613 5.1494 22.7513 4.67806 22.3406 4.3234C21.9299 3.96873 21.4213 3.7914 20.8146 3.7914C20.2639 3.7914 19.7926 3.96873 19.4006 4.3234C19.0086 4.66873 18.7753 5.14006 18.7006 5.7374H22.9706Z" fill="#010101"/>
<path d="M39.182 2.4474C39.7886 2.4474 40.33 2.5734 40.806 2.8254C41.2913 3.0774 41.6693 3.45073 41.94 3.9454C42.22 4.44006 42.36 5.0374 42.36 5.7374V10.2874H40.778V5.9754C40.778 5.28473 40.6053 4.7574 40.26 4.3934C39.9146 4.02006 39.4433 3.8334 38.846 3.8334C38.2486 3.8334 37.7726 4.02006 37.418 4.3934C37.0726 4.7574 36.9 5.28473 36.9 5.9754V10.2874H35.318V5.9754C35.318 5.28473 35.1453 4.7574 34.8 4.3934C34.4546 4.02006 33.9833 3.8334 33.386 3.8334C32.7886 3.8334 32.3126 4.02006 31.958 4.3934C31.6126 4.7574 31.44 5.28473 31.44 5.9754V10.2874H29.844V2.5734H31.44V3.4554C31.7013 3.13806 32.0326 2.89073 32.434 2.7134C32.8353 2.53606 33.2646 2.4474 33.722 2.4474C34.338 2.4474 34.8886 2.57806 35.374 2.8394C35.8593 3.10073 36.2326 3.47873 36.494 3.9734C36.7273 3.50673 37.0913 3.13806 37.586 2.8674C38.0806 2.5874 38.6126 2.4474 39.182 2.4474Z" fill="#010101"/>
<path d="M47.7368 10.4134C47.0088 10.4134 46.3508 10.2501 45.7628 9.9234C45.1748 9.5874 44.7128 9.12073 44.3768 8.5234C44.0408 7.91673 43.8728 7.21673 43.8728 6.4234C43.8728 5.6394 44.0455 4.94406 44.3908 4.3374C44.7362 3.73073 45.2075 3.26406 45.8048 2.9374C46.4022 2.61073 47.0695 2.4474 47.8068 2.4474C48.5442 2.4474 49.2115 2.61073 49.8088 2.9374C50.4062 3.26406 50.8775 3.73073 51.2228 4.3374C51.5682 4.94406 51.7408 5.6394 51.7408 6.4234C51.7408 7.2074 51.5635 7.90273 51.2088 8.5094C50.8542 9.11606 50.3688 9.5874 49.7528 9.9234C49.1462 10.2501 48.4742 10.4134 47.7368 10.4134ZM47.7368 9.0274C48.1475 9.0274 48.5302 8.9294 48.8848 8.7334C49.2488 8.5374 49.5428 8.2434 49.7668 7.8514C49.9908 7.4594 50.1028 6.9834 50.1028 6.4234C50.1028 5.8634 49.9955 5.39206 49.7808 5.0094C49.5662 4.6174 49.2815 4.3234 48.9268 4.1274C48.5722 3.9314 48.1895 3.8334 47.7788 3.8334C47.3682 3.8334 46.9855 3.9314 46.6308 4.1274C46.2855 4.3234 46.0102 4.6174 45.8048 5.0094C45.5995 5.39206 45.4968 5.8634 45.4968 6.4234C45.4968 7.25406 45.7068 7.89806 46.1268 8.3554C46.5562 8.8034 47.0928 9.0274 47.7368 9.0274Z" fill="#010101"/>
<path d="M54.9146 3.6934C55.1479 3.3014 55.4559 2.99806 55.8386 2.7834C56.2306 2.5594 56.6926 2.4474 57.2246 2.4474V4.0994H56.8186C56.1932 4.0994 55.7172 4.25806 55.3906 4.5754C55.0732 4.89273 54.9146 5.4434 54.9146 6.2274V10.2874H53.3186V2.5734H54.9146V3.6934Z" fill="#010101"/>
<path d="M65.7616 6.2414C65.7616 6.53073 65.743 6.79206 65.7056 7.0254H59.8116C59.8583 7.6414 60.0869 8.13606 60.4976 8.5094C60.9083 8.88273 61.4123 9.0694 62.0096 9.0694C62.8683 9.0694 63.4749 8.71006 63.8296 7.9914H65.5516C65.3183 8.70073 64.8936 9.28406 64.2776 9.7414C63.671 10.1894 62.9149 10.4134 62.0096 10.4134C61.2723 10.4134 60.6096 10.2501 60.0216 9.9234C59.4429 9.5874 58.9856 9.12073 58.6496 8.5234C58.3229 7.91673 58.1596 7.21673 58.1596 6.4234C58.1596 5.63006 58.3183 4.93473 58.6356 4.3374C58.9623 3.73073 59.4149 3.26406 59.9936 2.9374C60.5816 2.61073 61.2536 2.4474 62.0096 2.4474C62.7376 2.4474 63.3863 2.60606 63.9556 2.9234C64.5249 3.24073 64.9683 3.68873 65.2856 4.2674C65.603 4.83673 65.7616 5.49473 65.7616 6.2414ZM64.0956 5.7374C64.0863 5.1494 63.8763 4.67806 63.4656 4.3234C63.0549 3.96873 62.5463 3.7914 61.9396 3.7914C61.3889 3.7914 60.9176 3.96873 60.5256 4.3234C60.1336 4.66873 59.9003 5.14006 59.8256 5.7374H64.0956Z" fill="#010101"/>
</svg>
