<svg width="8" height="14" viewBox="0 0 8 14" fill="none" xmlns="http://www.w3.org/2000/svg">
<path d="M0 6.99596C0 7.26192 0.094844 7.48727 0.307967 7.6976L6.43969 13.6934C6.6116 13.8718 6.82565 13.9581 7.07966 13.9581C7.59338 13.9581 8 13.5594 8 13.05C8 12.7931 7.89081 12.5677 7.71687 12.3902L2.18691 6.99449L7.71687 1.60173C7.89222 1.42274 8 1.19231 8 0.94333C8 0.432463 7.59338 0.0351562 7.07966 0.0351562C6.82424 0.0351562 6.6116 0.121507 6.43969 0.293421L0.307967 6.29428C0.0962593 6.49813 0.00141554 6.72855 0 6.99596Z" fill="black"/>
</svg>
