<svg width="12" height="7" viewBox="0 0 12 7" fill="none" xmlns="http://www.w3.org/2000/svg">
<path d="M6.1359 6.91738C6.34805 6.91626 6.54003 6.83478 6.69776 6.66901L11.4493 1.8012C11.5857 1.66478 11.6593 1.49604 11.6593 1.29847C11.6593 0.890842 11.3429 0.569336 10.9387 0.569336C10.7411 0.569336 10.5572 0.648587 10.4162 0.787751L5.83035 5.49097H6.44082L1.85042 0.787751C1.7135 0.650835 1.53066 0.569336 1.32685 0.569336C0.921467 0.569336 0.606201 0.890842 0.606201 1.29847C0.606201 1.49492 0.680962 1.66366 0.815131 1.80631L5.56888 6.66901C5.73688 6.83702 5.91972 6.91738 6.1359 6.91738Z" fill="black"/>
</svg>
