<svg width="12" height="7" viewBox="0 0 12 7" fill="none" xmlns="http://www.w3.org/2000/svg">
<path d="M5.58243 6.91835C5.79459 6.91723 5.98656 6.83576 6.14429 6.66998L10.8958 1.80217C11.0323 1.66576 11.1058 1.49702 11.1058 1.29944C11.1058 0.891818 10.7895 0.570312 10.3852 0.570312C10.1877 0.570312 10.0037 0.649564 9.86278 0.788728L5.27688 5.49194H5.88735L1.29695 0.788728C1.16004 0.651811 0.977191 0.570312 0.773379 0.570312C0.368001 0.570312 0.0527344 0.891818 0.0527344 1.29944C0.0527344 1.49589 0.127495 1.66463 0.261664 1.80729L5.01541 6.66998C5.18341 6.83799 5.36625 6.91835 5.58243 6.91835Z" fill="black"/>
</svg>
