<svg width="12" height="7" viewBox="0 0 12 7" fill="none" xmlns="http://www.w3.org/2000/svg">
<path d="M5.58048 6.91835C5.79263 6.91723 5.98461 6.83576 6.14234 6.66998L10.8939 1.80217C11.0303 1.66576 11.1039 1.49702 11.1039 1.29944C11.1039 0.891818 10.7875 0.570312 10.3833 0.570312C10.1857 0.570312 10.0017 0.649564 9.86083 0.788728L5.27493 5.49194H5.8854L1.295 0.788728C1.15808 0.651811 0.975238 0.570312 0.771426 0.570312C0.366048 0.570312 0.0507812 0.891818 0.0507812 1.29944C0.0507812 1.49589 0.125542 1.66463 0.259711 1.80729L5.01346 6.66998C5.18146 6.83799 5.3643 6.91835 5.58048 6.91835Z" fill="black"/>
</svg>
