<svg width="12" height="7" viewBox="0 0 12 7" fill="none" xmlns="http://www.w3.org/2000/svg">
<path d="M5.58268 6.91738C5.79483 6.91626 5.98681 6.83478 6.14454 6.66901L10.8961 1.8012C11.0325 1.66478 11.1061 1.49604 11.1061 1.29847C11.1061 0.890842 10.7897 0.569336 10.3855 0.569336C10.1879 0.569336 10.0039 0.648587 9.86303 0.787751L5.27713 5.49097H5.8876L1.29719 0.787751C1.16028 0.650835 0.977435 0.569336 0.773623 0.569336C0.368245 0.569336 0.0529785 0.890842 0.0529785 1.29847C0.0529785 1.49492 0.127739 1.66366 0.261908 1.80631L5.01566 6.66901C5.18365 6.83702 5.36649 6.91738 5.58268 6.91738Z" fill="black"/>
</svg>
