<svg width="12" height="7" viewBox="0 0 12 7" fill="none" xmlns="http://www.w3.org/2000/svg">
<path d="M5.68985 6.91835C5.90201 6.91723 6.09398 6.83576 6.25172 6.66998L11.0032 1.80217C11.1397 1.66576 11.2133 1.49702 11.2133 1.29944C11.2133 0.891818 10.8969 0.570312 10.4927 0.570312C10.2951 0.570312 10.1111 0.649564 9.9702 0.788728L5.3843 5.49194H5.99478L1.40437 0.788728C1.26746 0.651811 1.08461 0.570312 0.880801 0.570312C0.475423 0.570312 0.160156 0.891818 0.160156 1.29944C0.160156 1.49589 0.234917 1.66463 0.369086 1.80729L5.12284 6.66998C5.29083 6.83799 5.47367 6.91835 5.68985 6.91835Z" fill="black"/>
</svg>
