<svg width="12" height="7" viewBox="0 0 12 7" fill="none" xmlns="http://www.w3.org/2000/svg">
<path d="M6.42337 6.9175C6.63553 6.91638 6.8275 6.8349 6.98524 6.66913L11.7368 1.80132C11.8732 1.6649 11.9468 1.49616 11.9468 1.29859C11.9468 0.890964 11.6304 0.569458 11.2262 0.569458C11.0286 0.569458 10.8446 0.648709 10.7037 0.787873L6.11782 5.49109H6.7283L2.13789 0.787873C2.00098 0.650957 1.81813 0.569458 1.61432 0.569458C1.20894 0.569458 0.893677 0.890964 0.893677 1.29859C0.893677 1.49504 0.968437 1.66378 1.10261 1.80644L5.85636 6.66913C6.02435 6.83714 6.20719 6.9175 6.42337 6.9175Z" fill="black"/>
</svg>
