<svg width="12" height="7" viewBox="0 0 12 7" fill="none" xmlns="http://www.w3.org/2000/svg">
<path d="M5.6359 6.91738C5.84805 6.91626 6.04003 6.83478 6.19776 6.66901L10.9493 1.8012C11.0857 1.66478 11.1593 1.49604 11.1593 1.29847C11.1593 0.890842 10.8429 0.569336 10.4387 0.569336C10.2411 0.569336 10.0572 0.648587 9.91625 0.787751L5.33035 5.49097H5.94082L1.35042 0.787751C1.2135 0.650835 1.03066 0.569336 0.826846 0.569336C0.421467 0.569336 0.106201 0.890842 0.106201 1.29847C0.106201 1.49492 0.180962 1.66366 0.315131 1.80631L5.06888 6.66901C5.23688 6.83702 5.41972 6.91738 5.6359 6.91738Z" fill="black"/>
</svg>
