<svg width="12" height="7" viewBox="0 0 12 7" fill="none" xmlns="http://www.w3.org/2000/svg">
<path d="M5.63517 6.91835C5.84732 6.91723 6.0393 6.83576 6.19703 6.66998L10.9486 1.80217C11.085 1.66576 11.1586 1.49702 11.1586 1.29944C11.1586 0.891818 10.8422 0.570312 10.438 0.570312C10.2404 0.570312 10.0564 0.649564 9.91552 0.788728L5.32962 5.49194H5.94009L1.34968 0.788728C1.21277 0.651811 1.02993 0.570312 0.826113 0.570312C0.420735 0.570312 0.105469 0.891818 0.105469 1.29944C0.105469 1.49589 0.180229 1.66463 0.314399 1.80729L5.06815 6.66998C5.23614 6.83799 5.41898 6.91835 5.63517 6.91835Z" fill="black"/>
</svg>
