<svg width="12" height="7" viewBox="0 0 12 7" fill="none" xmlns="http://www.w3.org/2000/svg">
<path d="M5.6359 6.9175C5.84805 6.91638 6.04003 6.8349 6.19776 6.66913L10.9493 1.80132C11.0857 1.6649 11.1593 1.49616 11.1593 1.29859C11.1593 0.890964 10.8429 0.569458 10.4387 0.569458C10.2411 0.569458 10.0572 0.648709 9.91625 0.787873L5.33035 5.49109H5.94082L1.35042 0.787873C1.2135 0.650957 1.03066 0.569458 0.826846 0.569458C0.421467 0.569458 0.106201 0.890964 0.106201 1.29859C0.106201 1.49504 0.180962 1.66378 0.315131 1.80644L5.06888 6.66913C5.23688 6.83714 5.41972 6.9175 5.6359 6.9175Z" fill="black"/>
</svg>
