<svg width="12" height="7" viewBox="0 0 12 7" fill="none" xmlns="http://www.w3.org/2000/svg">
<path d="M5.90079 6.91835C6.11295 6.91723 6.30492 6.83576 6.46265 6.66998L11.2142 1.80217C11.3506 1.66576 11.4242 1.49702 11.4242 1.29944C11.4242 0.891818 11.1078 0.570312 10.7036 0.570312C10.506 0.570312 10.322 0.649564 10.1811 0.788728L5.59524 5.49194H6.20571L1.61531 0.788728C1.4784 0.651811 1.29555 0.570312 1.09174 0.570312C0.68636 0.570312 0.371094 0.891818 0.371094 1.29944C0.371094 1.49589 0.445854 1.66463 0.580024 1.80729L5.33377 6.66998C5.50177 6.83799 5.68461 6.91835 5.90079 6.91835Z" fill="black"/>
</svg>
