<svg width="12" height="7" viewBox="0 0 12 7" fill="none" xmlns="http://www.w3.org/2000/svg">
<path d="M5.58268 6.9175C5.79483 6.91638 5.98681 6.8349 6.14454 6.66913L10.8961 1.80132C11.0325 1.6649 11.1061 1.49616 11.1061 1.29859C11.1061 0.890964 10.7897 0.569458 10.3855 0.569458C10.1879 0.569458 10.0039 0.648709 9.86303 0.787873L5.27713 5.49109H5.8876L1.29719 0.787873C1.16028 0.650957 0.977435 0.569458 0.773623 0.569458C0.368245 0.569458 0.0529785 0.890964 0.0529785 1.29859C0.0529785 1.49504 0.127739 1.66378 0.261908 1.80644L5.01566 6.66913C5.18365 6.83714 5.36649 6.9175 5.58268 6.9175Z" fill="black"/>
</svg>
