<svg width="12" height="7" viewBox="0 0 12 7" fill="none" xmlns="http://www.w3.org/2000/svg">
<path d="M5.5297 6.9175C5.74185 6.91638 5.93383 6.8349 6.09156 6.66913L10.8431 1.80132C10.9795 1.6649 11.0531 1.49616 11.0531 1.29859C11.0531 0.890964 10.7367 0.569458 10.3325 0.569458C10.1349 0.569458 9.95095 0.648709 9.81005 0.787873L5.22415 5.49109H5.83462L1.24421 0.787873C1.1073 0.650957 0.924456 0.569458 0.720645 0.569458C0.315266 0.569458 0 0.890964 0 1.29859C0 1.49504 0.0747606 1.66378 0.20893 1.80644L4.96268 6.66913C5.13067 6.83714 5.31352 6.9175 5.5297 6.9175Z" fill="black"/>
</svg>
