<svg width="12" height="7" viewBox="0 0 12 7" fill="none" xmlns="http://www.w3.org/2000/svg">
<path d="M5.5297 6.91738C5.74185 6.91626 5.93383 6.83478 6.09156 6.66901L10.8431 1.8012C10.9795 1.66478 11.0531 1.49604 11.0531 1.29847C11.0531 0.890842 10.7367 0.569336 10.3325 0.569336C10.1349 0.569336 9.95095 0.648587 9.81005 0.787751L5.22415 5.49097H5.83462L1.24421 0.787751C1.1073 0.650835 0.924456 0.569336 0.720645 0.569336C0.315266 0.569336 0 0.890842 0 1.29847C0 1.49492 0.0747606 1.66366 0.20893 1.80631L4.96268 6.66901C5.13067 6.83702 5.31352 6.91738 5.5297 6.91738Z" fill="black"/>
</svg>
