<svg width="10" height="7" viewBox="0 0 10 7" fill="none" xmlns="http://www.w3.org/2000/svg">
<path d="M5 6.58991C4.88042 6.58991 4.76472 6.56632 4.65291 6.51915C4.54051 6.47197 4.44694 6.40907 4.3722 6.33045L0.246636 1.99029C0.0822119 1.81732 0 1.59716 0 1.32984C0 1.06251 0.0822119 0.842354 0.246636 0.669377C0.411061 0.4964 0.620329 0.409912 0.874439 0.409912C1.12855 0.409912 1.33782 0.4964 1.50224 0.669377L5 4.34907L8.49776 0.669377C8.66218 0.4964 8.87145 0.409912 9.12556 0.409912C9.37967 0.409912 9.58894 0.4964 9.75336 0.669377C9.91779 0.842354 10 1.06251 10 1.32984C10 1.59716 9.91779 1.81732 9.75336 1.99029L5.6278 6.33045C5.53812 6.4248 5.44096 6.49147 5.33632 6.53047C5.23169 6.5701 5.11958 6.58991 5 6.58991V6.58991Z" fill="#79797D"/>
</svg>
