<svg width="10" height="7" viewBox="0 0 10 7" fill="none" xmlns="http://www.w3.org/2000/svg">
<path d="M5 6.59016C4.88042 6.59016 4.76472 6.56657 4.65291 6.51939C4.54051 6.47222 4.44694 6.40932 4.3722 6.33069L0.246636 1.99054C0.0822119 1.81756 0 1.59741 0 1.33008C0 1.06275 0.0822119 0.842599 0.246636 0.669622C0.411061 0.496644 0.620329 0.410156 0.874439 0.410156C1.12855 0.410156 1.33782 0.496644 1.50224 0.669622L5 4.34932L8.49776 0.669622C8.66218 0.496644 8.87145 0.410156 9.12556 0.410156C9.37967 0.410156 9.58894 0.496644 9.75336 0.669622C9.91779 0.842599 10 1.06275 10 1.33008C10 1.59741 9.91779 1.81756 9.75336 1.99054L5.6278 6.33069C5.53812 6.42504 5.44096 6.49172 5.33632 6.53071C5.23169 6.57034 5.11958 6.59016 5 6.59016Z" fill="#79797D"/>
</svg>
