<svg width="15" height="15" viewBox="0 0 15 15" fill="none" xmlns="http://www.w3.org/2000/svg">
<g clip-path="url(#clip0_509_31744)">
<path d="M8.55083 2.73614C8.22263 2.58065 7.864 2.5 7.50083 2.5C7.13767 2.5 6.77903 2.58065 6.45083 2.73614L0.358333 5.62239C0.246198 5.67529 0.152331 5.76035 0.0886715 5.86674C0.0250118 5.97314 -0.00556414 6.09607 0.000832563 6.21989V10.0024C0.000832563 10.1681 0.0666806 10.3271 0.183891 10.4443C0.301101 10.5615 0.460072 10.6274 0.625833 10.6274C0.791593 10.6274 0.950564 10.5615 1.06777 10.4443C1.18498 10.3271 1.25083 10.1681 1.25083 10.0024V7.19489L2.50083 7.81489V11.2524C2.50085 11.3346 2.51709 11.416 2.54862 11.4919C2.58015 11.5679 2.62635 11.6368 2.68458 11.6949L2.71583 11.7249L2.79083 11.7936C3.18259 12.1428 3.6061 12.4545 4.05583 12.7249C4.89083 13.2274 6.09708 13.7524 7.50083 13.7524C8.90458 13.7524 10.1108 13.2274 10.9471 12.7249C11.3968 12.4545 11.8203 12.1428 12.2121 11.7936L12.2871 11.7249L12.3158 11.6949H12.3183C12.3765 11.6366 12.4225 11.5674 12.4539 11.4912C12.4852 11.4151 12.5011 11.3335 12.5008 11.2511V7.81364L14.6533 6.74614C14.7586 6.69403 14.847 6.61333 14.9084 6.51329C14.9699 6.41325 15.002 6.29792 15.0009 6.1805C14.9999 6.06309 14.9658 5.94834 14.9025 5.84941C14.8393 5.75048 14.7495 5.67137 14.6433 5.62114L8.55083 2.73489V2.73614ZM8.59083 9.75489L11.2508 8.43489V10.9749C10.9543 11.2264 10.6379 11.4534 10.3046 11.6536C9.57958 12.0886 8.59708 12.5024 7.50083 12.5024C6.40458 12.5024 5.42333 12.0899 4.69708 11.6536C4.36381 11.4534 4.04735 11.2264 3.75083 10.9749V8.43489L6.41083 9.75489C7.09833 10.0949 7.90333 10.0949 8.59083 9.75489ZM8.01583 3.86614L12.9433 6.19989L8.03458 8.63489C7.86866 8.71708 7.686 8.75984 7.50083 8.75984C7.31567 8.75984 7.13301 8.71708 6.96708 8.63489L2.05833 6.19989L6.98583 3.86614C7.1468 3.78985 7.3227 3.75028 7.50083 3.75028C7.67896 3.75028 7.85487 3.78985 8.01583 3.86614ZM12.3158 11.6961L12.3146 11.6974L12.3158 11.6961Z" fill="#010101"/>
</g>
<defs>
<clipPath id="clip0_509_31744">
<rect width="15" height="15" fill="white"/>
</clipPath>
</defs>
</svg>
