<svg width="21" height="21" viewBox="0 0 21 21" fill="none" xmlns="http://www.w3.org/2000/svg">
<path d="M6.3 0.422363H14.7C17.9 0.422363 20.5 3.02236 20.5 6.22236V14.6224C20.5 16.1606 19.8889 17.6359 18.8012 18.7236C17.7135 19.8113 16.2383 20.4224 14.7 20.4224H6.3C3.1 20.4224 0.5 17.8224 0.5 14.6224V6.22236C0.5 4.68411 1.11107 3.20886 2.19878 2.12114C3.28649 1.03343 4.76174 0.422363 6.3 0.422363M6.1 2.42236C5.14522 2.42236 4.22955 2.80165 3.55442 3.47678C2.87928 4.15191 2.5 5.06758 2.5 6.02236V14.8224C2.5 16.8124 4.11 18.4224 6.1 18.4224H14.9C15.8548 18.4224 16.7705 18.0431 17.4456 17.3679C18.1207 16.6928 18.5 15.7771 18.5 14.8224V6.02236C18.5 4.03236 16.89 2.42236 14.9 2.42236H6.1ZM15.75 3.92236C16.0815 3.92236 16.3995 4.05406 16.6339 4.28848C16.8683 4.5229 17 4.84084 17 5.17236C17 5.50388 16.8683 5.82183 16.6339 6.05625C16.3995 6.29067 16.0815 6.42236 15.75 6.42236C15.4185 6.42236 15.1005 6.29067 14.8661 6.05625C14.6317 5.82183 14.5 5.50388 14.5 5.17236C14.5 4.84084 14.6317 4.5229 14.8661 4.28848C15.1005 4.05406 15.4185 3.92236 15.75 3.92236ZM10.5 5.42236C11.8261 5.42236 13.0979 5.94915 14.0355 6.88683C14.9732 7.82451 15.5 9.09628 15.5 10.4224C15.5 11.7484 14.9732 13.0202 14.0355 13.9579C13.0979 14.8956 11.8261 15.4224 10.5 15.4224C9.17392 15.4224 7.90215 14.8956 6.96447 13.9579C6.02678 13.0202 5.5 11.7484 5.5 10.4224C5.5 9.09628 6.02678 7.82451 6.96447 6.88683C7.90215 5.94915 9.17392 5.42236 10.5 5.42236M10.5 7.42236C9.70435 7.42236 8.94129 7.73843 8.37868 8.30104C7.81607 8.86365 7.5 9.62671 7.5 10.4224C7.5 11.218 7.81607 11.9811 8.37868 12.5437C8.94129 13.1063 9.70435 13.4224 10.5 13.4224C11.2956 13.4224 12.0587 13.1063 12.6213 12.5437C13.1839 11.9811 13.5 11.218 13.5 10.4224C13.5 9.62671 13.1839 8.86365 12.6213 8.30104C12.0587 7.73843 11.2956 7.42236 10.5 7.42236Z" fill="#F2F2F2"/>
</svg>
