<svg width="21" height="16" viewBox="0 0 21 16" fill="none" xmlns="http://www.w3.org/2000/svg">
<path d="M20.8651 3.89021C20.8651 2.16526 19.5073 0.777627 17.8295 0.777627C15.557 0.678347 13.2393 0.640015 10.8708 0.640015H10.1324C7.76959 0.640015 5.44781 0.678347 3.17526 0.778011C1.50161 0.778011 0.143822 2.17331 0.143822 3.89826C0.0412703 5.26251 -0.0022118 6.62713 0.000249451 7.99176C-0.00385263 9.35639 0.0426376 10.7223 0.13972 12.0895C0.13972 13.8144 1.49751 15.2136 3.17116 15.2136C5.55857 15.3171 8.00751 15.3631 10.4975 15.3592C12.9915 15.3669 15.4336 15.3183 17.8238 15.2136C19.5015 15.2136 20.8593 13.8144 20.8593 12.0895C20.9578 10.721 21.0029 9.35639 20.9988 7.98793C21.0081 6.6233 20.9635 5.25739 20.8651 3.89021ZM8.49156 11.7522V4.21987L14.4396 7.9841L8.49156 11.7522Z" fill="#F2F2F2"/>
</svg>
