<svg width="21" height="16" viewBox="0 0 21 16" fill="none" xmlns="http://www.w3.org/2000/svg">
<path d="M20.8651 3.89082C20.8651 2.16587 19.5073 0.778238 17.8295 0.778238C15.557 0.678957 13.2393 0.640625 10.8708 0.640625H10.1324C7.76959 0.640625 5.44781 0.678957 3.17526 0.778621C1.50161 0.778621 0.143822 2.17392 0.143822 3.89887C0.0412703 5.26312 -0.0022118 6.62775 0.000249451 7.99237C-0.00385263 9.357 0.0426376 10.7229 0.13972 12.0901C0.13972 13.8151 1.49751 15.2142 3.17116 15.2142C5.55857 15.3177 8.00751 15.3637 10.4975 15.3598C12.9915 15.3675 15.4336 15.319 17.8238 15.2142C19.5015 15.2142 20.8593 13.8151 20.8593 12.0901C20.9578 10.7216 21.0029 9.357 20.9988 7.98854C21.0081 6.62391 20.9635 5.258 20.8651 3.89082ZM8.49156 11.7528V4.22048L14.4396 7.98471L8.49156 11.7528Z" fill="#F2F2F2"/>
</svg>
