<svg width="20" height="17" viewBox="0 0 20 17" fill="none" xmlns="http://www.w3.org/2000/svg">
<path d="M17.4643 3.01159C18.3396 2.47351 18.9191 1.73906 19.2029 0.804995C18.4036 1.23797 17.5457 1.5526 16.6562 1.73906C15.8946 0.918905 14.9305 0.502319 13.7747 0.502319C12.6448 0.502319 11.6904 0.899377 10.9116 1.6718C10.5354 2.03859 10.238 2.47844 10.0376 2.96438C9.83719 3.45033 9.73795 3.97214 9.74597 4.49785C9.74597 4.83307 9.78822 5.13249 9.87271 5.38635C6.54057 5.27244 3.78255 3.88816 1.60951 1.22375C1.2412 1.87575 1.05704 2.53968 1.05704 3.2264C1.05704 4.6378 1.65176 5.75628 2.83902 6.57752C2.16198 6.52002 1.56509 6.34862 1.05704 6.06764C1.05704 7.07547 1.35277 7.91732 1.94532 8.65828C2.52093 9.38029 3.33211 9.87616 4.23645 10.0588C3.89846 10.1456 3.54207 10.1868 3.17592 10.1868C2.83794 10.1868 2.59854 10.1586 2.45663 10.0968C2.70578 10.918 3.17592 11.5841 3.85513 12.094C4.52659 12.6046 5.34336 12.887 6.18634 12.9001C4.74342 14.0337 3.09359 14.5946 1.22711 14.5946C0.769971 14.5946 0.446072 14.5881 0.25 14.5534C2.08831 15.7489 4.13462 16.3423 6.39866 16.3423C8.71578 16.3423 10.7632 15.7543 12.5452 14.5783C14.3271 13.4089 15.6422 11.966 16.4872 10.2671C17.3228 8.62325 17.7578 6.8046 17.7568 4.96V4.45228C18.5356 3.87723 19.2098 3.17228 19.75 2.36827C19.0205 2.6849 18.2517 2.9013 17.4643 3.01159V3.01159Z" fill="#F2F2F2"/>
</svg>
