<svg width="148" height="45" viewBox="0 0 148 45" fill="none" xmlns="http://www.w3.org/2000/svg">
<g clip-path="url(#clip0_579_65914)">
<path d="M33.2087 28.168L33.1133 28.2331L33.1443 28.1904C33.1665 28.1792 33.1865 28.168 33.2087 28.168V28.168Z" fill="#010101"/>
<path d="M33.4289 28.0804C33.3557 28.1118 33.2802 28.1343 33.207 28.1657C33.2381 28.1432 33.2714 28.1343 33.2913 28.1006C33.3446 28.1006 33.3867 28.0894 33.4289 28.0781V28.0804Z" fill="#010101"/>
<path d="M33.2932 28.1016C33.271 28.133 33.2399 28.1442 33.2089 28.1667C33.1867 28.1667 33.1667 28.1779 33.1445 28.1891L33.1978 28.124C33.2288 28.124 33.2621 28.1128 33.2932 28.1016V28.1016Z" fill="#010101"/>
<path d="M32.7216 28.2103C32.8814 28.1991 33.0389 28.1677 33.1986 28.125L33.1454 28.1901C32.9768 28.2552 32.817 28.3069 32.6484 28.3608C32.6795 28.3069 32.7017 28.2642 32.7216 28.2103V28.2103Z" fill="#010101"/>
<path d="M32.4141 28.2609C32.5205 28.2497 32.6159 28.2385 32.7202 28.207C32.698 28.2609 32.6781 28.3036 32.647 28.3575C32.6159 28.3687 32.5938 28.3799 32.5627 28.3889L32.4141 28.2721V28.2609V28.2609Z" fill="#010101"/>
<path d="M39.6985 12.3211C39.6985 17.3889 37.9614 22.0504 35.0508 25.7036C36.6703 22.6813 37.5798 19.2099 37.5798 15.5365C37.5798 13.309 37.2404 11.1647 36.6281 9.15056L36.6059 9.08545L39.4544 9.07422C39.6141 10.134 39.6985 11.2163 39.6985 12.3211V12.3211Z" fill="#010101"/>
<path d="M47.0762 9.04297C46.6836 17.7641 41.1263 25.1245 33.4305 28.0817C33.3884 28.0929 33.3462 28.1041 33.293 28.1041C39.0721 24.2802 42.8723 17.6788 42.8723 10.1791C42.8723 9.80416 42.8612 9.42918 42.8412 9.06542L47.0762 9.04297V9.04297Z" fill="#010101"/>
<path d="M39.6971 12.3205C39.6971 11.218 39.6128 10.1357 39.4531 9.07365L36.6046 9.08488L36.6267 9.14999C37.2413 11.1641 37.5785 13.3062 37.5785 15.5359C37.5785 19.2116 36.6689 22.683 35.0494 25.7031C37.96 22.0498 39.6971 17.3884 39.6971 12.3205V12.3205ZM44.4601 22.4989C44.4601 34.9271 34.5103 44.9978 22.2312 44.9978C9.952 44.9978 0 34.9271 0 22.4989C0 10.0706 9.952 0 22.2312 0C28.5516 0 34.2663 2.66753 38.3106 6.96522H49.2232C49.2232 12.1409 47.4129 16.8854 44.3847 20.5925C44.4268 21.2257 44.4579 21.8567 44.4579 22.4989H44.4601ZM29.1106 9.10733C31.7683 12.6865 33.3456 17.1324 33.3456 21.9645C33.3456 24.1605 33.0173 26.2711 32.4139 28.2651C31.8526 28.3504 31.2803 28.393 30.699 28.393C26.0203 28.393 21.9561 25.7143 19.9129 21.7938L19.8485 21.7512C18.3245 18.0979 14.7572 15.5381 10.5865 15.5381C8.27929 15.5381 6.14069 16.3308 4.44801 17.66C7.77126 19.3216 10.0585 22.7818 10.0585 26.7876C10.0585 33.5911 15.5092 39.1081 22.2312 39.1081C28.5826 39.1081 33.8004 34.1794 34.3506 27.9013L34.3728 27.8272C34.0666 27.9238 33.7472 28.0091 33.4299 28.0854C41.1258 25.1282 46.683 17.7678 47.0757 9.0467H47.1067L47.0846 8.91872C47.0846 8.96138 47.0846 9.00404 47.0735 9.0467L42.8384 9.06916C42.8606 9.43291 42.8695 9.80789 42.8695 10.1829C42.8695 17.6825 39.0693 24.2817 33.2902 28.1079C33.2591 28.1191 33.2258 28.1303 33.1948 28.1303C33.0351 28.173 32.8775 28.2044 32.7178 28.2157C34.4637 25.108 35.4598 21.5087 35.4598 17.6847C35.4598 14.5996 34.8143 11.6738 33.6607 9.02874L33.6829 9.10284L29.1106 9.11407V9.10733Z" fill="#4A93CF"/>
<path d="M33.3444 21.9659C33.3444 17.1338 31.7671 12.6879 29.1094 9.10876L33.6816 9.09754L33.6594 9.02344C34.813 11.6708 35.4586 14.5943 35.4586 17.6794C35.4586 21.5034 34.4625 25.105 32.7166 28.2104C32.6101 28.2418 32.5147 28.253 32.4104 28.2642C33.0139 26.2703 33.3422 24.1597 33.3422 21.9637L33.3444 21.9659Z" fill="#010101"/>
<path d="M12.1754 20.8921C12.7598 20.8921 13.2336 20.4126 13.2336 19.8211C13.2336 19.2295 12.7598 18.75 12.1754 18.75C11.591 18.75 11.1172 19.2295 11.1172 19.8211C11.1172 20.4126 11.591 20.8921 12.1754 20.8921Z" fill="#010101"/>
<path d="M13.2332 19.8218C13.2332 19.2335 12.7562 18.7507 12.175 18.7507C11.5938 18.7507 11.1168 19.2335 11.1168 19.8218C11.1168 20.4101 11.5938 20.8928 12.175 20.8928C12.7562 20.8928 13.2332 20.4101 13.2332 19.8218V19.8218ZM12.175 17.6797C13.3397 17.6797 14.2914 18.643 14.2914 19.8218C14.2914 21.0006 13.3397 21.9639 12.175 21.9639C11.0103 21.9639 10.0586 21.0006 10.0586 19.8218C10.0586 18.643 11.0103 17.6797 12.175 17.6797V17.6797Z" fill="#4A93CF"/>
<path d="M14.2925 19.8216C14.2925 18.6428 13.3408 17.6795 12.1761 17.6795C11.0114 17.6795 10.0597 18.6428 10.0597 19.8216C10.0597 21.0005 11.0114 21.9637 12.1761 21.9637C13.3408 21.9637 14.2925 21.0005 14.2925 19.8216V19.8216ZM30.7002 28.3923C31.2815 28.3923 31.8538 28.3496 32.4151 28.2643V28.2755L32.5637 28.3923C32.5948 28.3811 32.617 28.3698 32.648 28.3609C32.8166 28.307 32.9764 28.2531 33.145 28.1902L33.1139 28.2329L33.2093 28.1678C33.2825 28.1363 33.3579 28.1139 33.4312 28.0824C33.7484 28.0083 34.0656 27.9208 34.374 27.8242L34.3518 27.8983C33.8016 34.1764 28.5838 39.1051 22.2324 39.1051C15.5105 39.1051 10.0597 33.5881 10.0597 26.7846C10.0597 22.7766 7.77247 19.3164 4.44922 17.6571C6.1419 16.3278 8.2805 15.5352 10.5877 15.5352C14.7584 15.5352 18.3257 18.0949 19.8498 21.7482L19.9141 21.7908C21.9573 25.7113 26.0215 28.3901 30.7002 28.3901V28.3923Z" fill="#010101"/>
<path d="M50.2033 36.2564C50.6359 38.1852 52.0025 39.0295 54.1987 39.0295C56.395 39.0295 57.3246 38.1538 57.3246 36.7482C57.3246 35.1854 56.4105 34.5073 53.1649 33.7438C48.0026 32.5179 46.7248 30.616 46.7248 28.0226C46.7248 24.6747 49.1983 22.4023 53.6907 22.4023C58.7288 22.4023 60.7343 25.144 61.0072 27.953H56.8742C56.6768 26.7719 56.0312 25.4875 53.5842 25.4875C51.9182 25.4875 50.9132 26.1836 50.9132 27.5465C50.9132 28.9095 51.7185 29.4237 54.7844 30.1422C60.3039 31.458 61.513 33.5373 61.513 36.243C61.513 39.7503 58.8908 42.1551 53.8771 42.1551C48.8634 42.1551 46.5251 39.7548 46.0703 36.2542H50.2033V36.2564Z" fill="#F2F2F2"/>
<path d="M76.8521 37.2259C76.3618 39.6284 74.6913 42.2196 70.4474 42.2196C66.2035 42.2196 63.7344 39.1143 63.7344 34.7806C63.7344 30.447 66.3011 27.1328 70.636 27.1328C75.439 27.1328 76.7745 30.6199 76.8521 32.2523H73.0009C72.7568 31.078 72.1002 30.2562 70.5606 30.2562C68.757 30.2562 67.7365 31.8549 67.7365 34.6504C67.7365 37.7199 68.8169 39.1187 70.545 39.1187C71.9005 39.1187 72.626 38.3082 72.9787 37.2259H76.8543H76.8521Z" fill="#F2F2F2"/>
<path d="M83.2201 21.5547V29.1711C83.8457 28.237 84.9993 27.1345 87.2998 27.1345C89.9553 27.1345 92.0717 28.7265 92.0717 32.6357V41.8868H88.1517V33.233C88.1517 31.3581 87.495 30.3611 85.8401 30.3611C83.6482 30.3611 83.2179 32.0115 83.2179 34.2367V41.8868H79.2734V21.5547H83.2179H83.2201Z" fill="#F2F2F2"/>
<path d="M108.875 34.6482C108.875 39.011 106.295 42.2196 101.782 42.2196C97.2698 42.2196 94.7852 39.0289 94.7852 34.7245C94.7852 30.4201 97.4429 27.1328 101.969 27.1328C106.161 27.1328 108.875 30.1282 108.875 34.6482V34.6482ZM98.7895 34.6751C98.7895 37.4504 99.9697 39.094 101.869 39.094C103.768 39.094 104.872 37.4482 104.872 34.6998C104.872 31.682 103.779 30.2562 101.813 30.2562C99.983 30.2562 98.7895 31.6281 98.7895 34.6751V34.6751Z" fill="#F2F2F2"/>
<path d="M111.582 41.8868V21.5547H115.526V41.8868H111.582Z" fill="#F2F2F2"/>
<path d="M119.07 21.5547H123.015V25.1159H119.07V21.5547ZM119.07 27.4691H123.015V41.8868H119.07V27.4691Z" fill="#F2F2F2"/>
<path d="M129.329 37.5515C129.626 38.7011 130.553 39.3455 132.026 39.3455C133.499 39.3455 134.014 38.8156 134.014 37.9422C134.014 37.017 133.402 36.6533 131.361 36.1458C126.72 34.9872 125.961 33.5344 125.961 31.5001C125.961 29.4658 127.441 27.1328 131.738 27.1328C136.035 27.1328 137.522 29.5197 137.644 31.4732H133.892C133.766 30.941 133.415 29.9328 131.561 29.9328C130.256 29.9328 129.835 30.5166 129.835 31.1655C129.835 31.8841 130.276 32.2299 132.59 32.7755C137.342 33.8937 138.014 35.5441 138.014 37.657C138.014 40.0438 136.219 42.2174 131.876 42.2174C127.532 42.2174 125.766 40.1045 125.453 37.5492H129.329V37.5515Z" fill="#F2F2F2"/>
<path d="M139.066 27.4672H141.263V23.5625H145.207V27.4672H147.998V30.4693H145.207V37.585C145.207 38.6785 145.538 39.1051 146.713 39.1051C146.933 39.1051 147.317 39.1029 147.612 39.0602V41.8064C146.829 42.0758 145.757 42.0825 144.961 42.0825C142.181 42.0825 141.263 40.5781 141.263 38.0565V30.4716H139.066V27.4695V27.4672Z" fill="#F2F2F2"/>
</g>
<defs>
<clipPath id="clip0_579_65914">
<rect width="148" height="45" fill="white"/>
</clipPath>
</defs>
</svg>
