<svg width="148" height="45" viewBox="0 0 148 45" fill="none" xmlns="http://www.w3.org/2000/svg">
<g clip-path="url(#clip0_1_3037)">
<path d="M33.2081 28.166L33.1127 28.2311L33.1438 28.1885C33.1659 28.1772 33.1859 28.166 33.2081 28.166Z" fill="#010101"/>
<path d="M33.4299 28.0809C33.3567 28.1123 33.2813 28.1347 33.2081 28.1662C33.2392 28.1437 33.2724 28.1347 33.2924 28.1011C33.3456 28.1011 33.3878 28.0898 33.4299 28.0786V28.0809Z" fill="#010101"/>
<path d="M33.2924 28.1035C33.2702 28.135 33.2392 28.1462 33.2081 28.1686C33.1859 28.1686 33.166 28.1799 33.1438 28.1911L33.197 28.126C33.2281 28.126 33.2613 28.1147 33.2924 28.1035Z" fill="#010101"/>
<path d="M32.72 28.2089C32.8798 28.1976 33.0373 28.1662 33.197 28.1235L33.1438 28.1887C32.9751 28.2538 32.8154 28.3054 32.6468 28.3593C32.6779 28.3054 32.7001 28.2627 32.72 28.2089Z" fill="#010101"/>
<path d="M32.4139 28.2629C32.5204 28.2516 32.6158 28.2404 32.72 28.209C32.6978 28.2629 32.6779 28.3055 32.6468 28.3594C32.6158 28.3707 32.5936 28.3819 32.5625 28.3909L32.4139 28.2741V28.2629Z" fill="#010101"/>
<path d="M39.6971 12.3206C39.6971 17.3884 37.96 22.0499 35.0494 25.7031C36.6689 22.6808 37.5784 19.2095 37.5784 15.536C37.5784 13.3085 37.239 11.1642 36.6267 9.15007L36.6045 9.08496L39.453 9.07373C39.6128 10.1336 39.6971 11.2158 39.6971 12.3206Z" fill="#010101"/>
<path d="M47.0757 9.04199C46.683 17.7631 41.1258 25.1235 33.4299 28.0807C33.3878 28.0919 33.3456 28.1032 33.2924 28.1032C39.0715 24.2793 42.8717 17.6778 42.8717 10.1782C42.8717 9.80318 42.8606 9.4282 42.8406 9.06445L47.0757 9.04199Z" fill="#010101"/>
<path d="M39.6971 12.3205C39.6971 11.218 39.6128 10.1357 39.4531 9.07365L36.6046 9.08488L36.6267 9.14999C37.2413 11.1641 37.5785 13.3062 37.5785 15.5359C37.5785 19.2116 36.6689 22.683 35.0494 25.7031C37.96 22.0498 39.6971 17.3884 39.6971 12.3205ZM44.4601 22.4989C44.4601 34.9272 34.5103 44.9978 22.2312 44.9978C9.952 44.9978 0 34.9272 0 22.4989C0 10.0706 9.952 0 22.2312 0C28.5516 0 34.2663 2.66753 38.3106 6.96522H49.2232C49.2232 12.1409 47.4129 16.8854 44.3847 20.5925C44.4268 21.2257 44.4579 21.8567 44.4579 22.4989H44.4601ZM29.1106 9.10733C31.7683 12.6865 33.3456 17.1324 33.3456 21.9645C33.3456 24.1605 33.0173 26.2711 32.4139 28.2651C31.8526 28.3504 31.2803 28.393 30.699 28.393C26.0203 28.393 21.9561 25.7143 19.9129 21.7938L19.8485 21.7512C18.3245 18.0979 14.7572 15.5381 10.5865 15.5381C8.27929 15.5381 6.14069 16.3308 4.44801 17.66C7.77126 19.3216 10.0585 22.7818 10.0585 26.7876C10.0585 33.5911 15.5092 39.1081 22.2312 39.1081C28.5826 39.1081 33.8004 34.1794 34.3506 27.9013L34.3728 27.8272C34.0666 27.9238 33.7472 28.0091 33.4299 28.0854C41.1258 25.1282 46.683 17.7678 47.0757 9.0467H47.1067L47.0846 8.91872C47.0846 8.96138 47.0846 9.00404 47.0735 9.0467L42.8384 9.06916C42.8606 9.43291 42.8695 9.80789 42.8695 10.1829C42.8695 17.6825 39.0693 24.2817 33.2902 28.1079C33.2591 28.1191 33.2258 28.1303 33.1948 28.1303C33.0351 28.173 32.8775 28.2044 32.7178 28.2157C34.4637 25.108 35.4598 21.5087 35.4598 17.6847C35.4598 14.5996 34.8143 11.6738 33.6607 9.02874L33.6828 9.10284L29.1106 9.11407V9.10733Z" fill="#4A93CF"/>
<path d="M33.3456 21.9644C33.3456 17.1323 31.7683 12.6865 29.1106 9.1073L33.6828 9.09607L33.6607 9.02197C34.8143 11.6693 35.4598 14.5928 35.4598 17.678C35.4598 21.5019 34.4637 25.1035 32.7178 28.2089C32.6113 28.2403 32.5159 28.2516 32.4117 28.2628C33.0151 26.2689 33.3434 24.1582 33.3434 21.9622L33.3456 21.9644Z" fill="#010101"/>
<path d="M12.1749 20.8911C12.7593 20.8911 13.2331 20.4116 13.2331 19.8201C13.2331 19.2286 12.7593 18.749 12.1749 18.749C11.5905 18.749 11.1167 19.2286 11.1167 19.8201C11.1167 20.4116 11.5905 20.8911 12.1749 20.8911Z" fill="#010101"/>
<path d="M13.2331 19.8203C13.2331 19.232 12.7561 18.7493 12.1749 18.7493C11.5937 18.7493 11.1167 19.232 11.1167 19.8203C11.1167 20.4086 11.5937 20.8914 12.1749 20.8914C12.7561 20.8914 13.2331 20.4086 13.2331 19.8203ZM12.1749 17.6782C13.3396 17.6782 14.2913 18.6415 14.2913 19.8203C14.2913 20.9992 13.3396 21.9624 12.1749 21.9624C11.0102 21.9624 10.0585 20.9992 10.0585 19.8203C10.0585 18.6415 11.0102 17.6782 12.1749 17.6782Z" fill="#4A93CF"/>
<path d="M14.2913 19.8202C14.2913 18.6413 13.3396 17.678 12.1749 17.678C11.0102 17.678 10.0585 18.6413 10.0585 19.8202C10.0585 20.999 11.0102 21.9623 12.1749 21.9623C13.3396 21.9623 14.2913 20.999 14.2913 19.8202ZM30.699 28.3908C31.2803 28.3908 31.8526 28.3482 32.4139 28.2628V28.2741L32.5625 28.3908C32.5936 28.3796 32.6158 28.3684 32.6468 28.3594C32.8154 28.3055 32.9752 28.2516 33.1438 28.1887L33.1127 28.2314L33.2081 28.1663C33.2813 28.1349 33.3567 28.1124 33.4299 28.081C33.7472 28.0069 34.0644 27.9193 34.3728 27.8227L34.3506 27.8968C33.8004 34.175 28.5826 39.1036 22.2312 39.1036C15.5092 39.1036 10.0585 33.5867 10.0585 26.7831C10.0585 22.7751 7.77125 19.3149 4.448 17.6556C6.14068 16.3263 8.27928 15.5337 10.5865 15.5337C14.7572 15.5337 18.3245 18.0934 19.8485 21.7467L19.9129 21.7894C21.9561 25.7098 26.0203 28.3886 30.699 28.3886V28.3908Z" fill="#010101"/>
<path d="M50.2037 36.2564C50.6363 38.1852 52.0029 39.0295 54.1991 39.0295C56.3954 39.0295 57.3249 38.1538 57.3249 36.7482C57.3249 35.1854 56.4109 34.5073 53.1653 33.7438C48.003 32.5179 46.7252 30.616 46.7252 28.0226C46.7252 24.6747 49.1987 22.4023 53.6911 22.4023C58.7292 22.4023 60.7347 25.144 61.0076 27.953H56.8746C56.6772 26.7719 56.0316 25.4875 53.5846 25.4875C51.9186 25.4875 50.9136 26.1836 50.9136 27.5465C50.9136 28.9095 51.7189 29.4237 54.7848 30.1422C60.3043 31.458 61.5134 33.5373 61.5134 36.243C61.5134 39.7503 58.8912 42.1551 53.8775 42.1551C48.8637 42.1551 46.5255 39.7548 46.0707 36.2542H50.2037V36.2564Z" fill="#F2F2F2"/>
<path d="M76.854 37.2264C76.3638 39.6289 74.6933 42.2201 70.4494 42.2201C66.2054 42.2201 63.7363 39.1147 63.7363 34.7811C63.7363 30.4475 66.3031 27.1333 70.6379 27.1333C75.4409 27.1333 76.7764 30.6204 76.854 32.2528H73.0028C72.7588 31.0785 72.1021 30.2566 70.5625 30.2566C68.7589 30.2566 67.7384 31.8554 67.7384 34.6509C67.7384 37.7204 68.8188 39.1192 70.547 39.1192C71.9024 39.1192 72.6279 38.3086 72.9806 37.2264H76.8563H76.854Z" fill="#F2F2F2"/>
<path d="M83.2188 21.5537V29.1701C83.8444 28.236 84.998 27.1335 87.2985 27.1335C89.954 27.1335 92.0704 28.7255 92.0704 32.6347V41.8858H88.1504V33.232C88.1504 31.3571 87.4938 30.3602 85.8388 30.3602C83.647 30.3602 83.2166 32.0105 83.2166 34.2357V41.8858H79.2722V21.5537H83.2166H83.2188Z" fill="#F2F2F2"/>
<path d="M108.875 34.6486C108.875 39.0115 106.295 42.2201 101.783 42.2201C97.2705 42.2201 94.7858 39.0294 94.7858 34.725C94.7858 30.4206 97.4435 27.1333 101.969 27.1333C106.162 27.1333 108.875 30.1287 108.875 34.6486ZM98.7901 34.6756C98.7901 37.4509 99.9704 39.0945 101.869 39.0945C103.768 39.0945 104.873 37.4487 104.873 34.7003C104.873 31.6825 103.779 30.2566 101.814 30.2566C99.9837 30.2566 98.7901 31.6286 98.7901 34.6756Z" fill="#F2F2F2"/>
<path d="M111.584 41.8858V21.5537H115.528V41.8858H111.584Z" fill="#F2F2F2"/>
<path d="M119.071 21.5537H123.016V25.1149H119.071V21.5537ZM119.071 27.4681H123.016V41.8858H119.071V27.4681Z" fill="#F2F2F2"/>
<path d="M129.327 37.5519C129.625 38.7016 130.552 39.346 132.025 39.346C133.498 39.346 134.013 38.8161 134.013 37.9426C134.013 37.0175 133.4 36.6538 131.359 36.1463C126.718 34.9877 125.96 33.5349 125.96 31.5006C125.96 29.4663 127.439 27.1333 131.736 27.1333C136.034 27.1333 137.52 29.5202 137.642 31.4737H133.891C133.764 30.9415 133.414 29.9333 131.559 29.9333C130.255 29.9333 129.833 30.5171 129.833 31.166C129.833 31.8846 130.275 32.2304 132.588 32.776C137.34 33.8942 138.013 35.5446 138.013 37.6575C138.013 40.0443 136.218 42.2179 131.874 42.2179C127.53 42.2179 125.764 40.105 125.452 37.5497H129.327V37.5519Z" fill="#F2F2F2"/>
<path d="M139.068 27.4682H141.265V23.5635H145.209V27.4682H148V30.4703H145.209V37.586C145.209 38.6795 145.54 39.1061 146.716 39.1061C146.935 39.1061 147.319 39.1039 147.614 39.0612V41.8073C146.831 42.0768 145.759 42.0835 144.963 42.0835C142.183 42.0835 141.265 40.5791 141.265 38.0575V30.4726H139.068V27.4705V27.4682Z" fill="#F2F2F2"/>
</g>
<defs>
<clipPath id="clip0_1_3037">
<rect width="148" height="45" fill="white"/>
</clipPath>
</defs>
</svg>
