<svg width="21" height="16" viewBox="0 0 21 16" fill="none" xmlns="http://www.w3.org/2000/svg">
<path d="M17.9643 2.58923C18.8396 2.05114 19.4191 1.31669 19.7029 0.382632C18.9036 0.815607 18.0457 1.13023 17.1562 1.31669C16.3946 0.496542 15.4305 0.0799561 14.2747 0.0799561C13.1448 0.0799561 12.1904 0.477014 11.4116 1.24943C11.0354 1.61623 10.738 2.05607 10.5376 2.54202C10.3372 3.02797 10.2379 3.54978 10.246 4.07549C10.246 4.41071 10.2882 4.71013 10.3727 4.96398C7.04057 4.85007 4.28255 3.4658 2.10951 0.801386C1.7412 1.45339 1.55704 2.11732 1.55704 2.80403C1.55704 4.21543 2.15176 5.33392 3.33902 6.15516C2.66198 6.09766 2.06509 5.92625 1.55704 5.64527C1.55704 6.65311 1.85277 7.49496 2.44532 8.23591C3.02093 8.95793 3.83211 9.4538 4.73645 9.63646C4.39846 9.72325 4.04207 9.76448 3.67592 9.76448C3.33794 9.76448 3.09854 9.73627 2.95663 9.67443C3.20578 10.4957 3.67592 11.1618 4.35513 11.6717C5.02659 12.1822 5.84336 12.4646 6.68634 12.4777C5.24342 13.6114 3.59359 14.1723 1.72711 14.1723C1.26997 14.1723 0.946072 14.1657 0.75 14.131C2.58831 15.3265 4.63462 15.92 6.89866 15.92C9.21578 15.92 11.2632 15.332 13.0452 14.156C14.8271 12.9865 16.1422 11.5436 16.9872 9.84476C17.8228 8.20088 18.2578 6.38224 18.2568 4.53763V4.02992C19.0356 3.45486 19.7098 2.74991 20.25 1.94591C19.5205 2.26254 18.7517 2.47894 17.9643 2.58923V2.58923Z" fill="#F2F2F2"/>
</svg>
