<svg width="148" height="45" viewBox="0 0 148 45" fill="none" xmlns="http://www.w3.org/2000/svg">
<g clip-path="url(#clip0_1_2746)">
<path d="M33.2081 28.1663L33.1127 28.2314L33.1437 28.1887C33.1659 28.1775 33.1859 28.1663 33.2081 28.1663V28.1663Z" fill="#010101"/>
<path d="M33.43 28.0809C33.3568 28.1124 33.2813 28.1348 33.2081 28.1662C33.2392 28.1438 33.2725 28.1348 33.2924 28.1011C33.3457 28.1011 33.3878 28.0899 33.43 28.0787V28.0809Z" fill="#010101"/>
<path d="M33.2924 28.1034C33.2703 28.1348 33.2392 28.1461 33.2081 28.1685C33.186 28.1685 33.166 28.1797 33.1438 28.191L33.197 28.1258C33.2281 28.1258 33.2614 28.1146 33.2924 28.1034V28.1034Z" fill="#010101"/>
<path d="M32.7201 28.2089C32.8798 28.1977 33.0373 28.1663 33.197 28.1236L33.1438 28.1887C32.9752 28.2538 32.8155 28.3055 32.6469 28.3594C32.6779 28.3055 32.7001 28.2628 32.7201 28.2089V28.2089Z" fill="#010101"/>
<path d="M32.4139 28.2628C32.5204 28.2516 32.6158 28.2404 32.7201 28.2089C32.6979 28.2628 32.6779 28.3055 32.6469 28.3594C32.6158 28.3706 32.5936 28.3818 32.5626 28.3908L32.4139 28.274V28.2628V28.2628Z" fill="#010101"/>
<path d="M39.6971 12.3205C39.6971 17.3883 37.9601 22.0498 35.0494 25.703C36.6689 22.6807 37.5785 19.2094 37.5785 15.5359C37.5785 13.3085 37.2391 11.1641 36.6268 9.14998L36.6046 9.08487L39.4531 9.07364C39.6128 10.1335 39.6971 11.2157 39.6971 12.3205V12.3205Z" fill="#010101"/>
<path d="M47.0756 9.04221C46.683 17.7633 41.1257 25.1237 33.4299 28.0809C33.3878 28.0922 33.3456 28.1034 33.2924 28.1034C39.0714 24.2795 42.8717 17.678 42.8717 10.1784C42.8717 9.8034 42.8606 9.42841 42.8406 9.06466L47.0756 9.04221V9.04221Z" fill="#010101"/>
<path d="M39.6971 12.3205C39.6971 11.218 39.6128 10.1357 39.4531 9.07365L36.6046 9.08488L36.6267 9.14999C37.2413 11.1641 37.5785 13.3062 37.5785 15.5359C37.5785 19.2116 36.6689 22.683 35.0494 25.7031C37.96 22.0498 39.6971 17.3884 39.6971 12.3205V12.3205ZM44.4601 22.4989C44.4601 34.9271 34.5103 44.9978 22.2312 44.9978C9.952 44.9978 0 34.9271 0 22.4989C0 10.0706 9.952 0 22.2312 0C28.5516 0 34.2663 2.66753 38.3106 6.96522H49.2232C49.2232 12.1409 47.4129 16.8854 44.3847 20.5925C44.4268 21.2257 44.4579 21.8567 44.4579 22.4989H44.4601ZM29.1106 9.10733C31.7683 12.6865 33.3456 17.1324 33.3456 21.9645C33.3456 24.1605 33.0173 26.2711 32.4139 28.2651C31.8526 28.3504 31.2803 28.393 30.699 28.393C26.0203 28.393 21.9561 25.7143 19.9129 21.7938L19.8485 21.7512C18.3245 18.0979 14.7572 15.5381 10.5865 15.5381C8.27929 15.5381 6.14069 16.3308 4.44801 17.66C7.77126 19.3216 10.0585 22.7818 10.0585 26.7876C10.0585 33.5911 15.5092 39.1081 22.2312 39.1081C28.5826 39.1081 33.8004 34.1794 34.3506 27.9013L34.3728 27.8272C34.0666 27.9238 33.7472 28.0091 33.4299 28.0854C41.1258 25.1282 46.683 17.7678 47.0757 9.0467H47.1067L47.0846 8.91872C47.0846 8.96138 47.0846 9.00404 47.0735 9.0467L42.8384 9.06916C42.8606 9.43291 42.8695 9.80789 42.8695 10.1829C42.8695 17.6825 39.0693 24.2817 33.2902 28.1079C33.2591 28.1191 33.2258 28.1303 33.1948 28.1303C33.0351 28.173 32.8775 28.2044 32.7178 28.2157C34.4637 25.108 35.4598 21.5087 35.4598 17.6847C35.4598 14.5996 34.8143 11.6738 33.6607 9.02874L33.6829 9.10284L29.1106 9.11407V9.10733Z" fill="#4A93CF"/>
<path d="M33.3456 21.9645C33.3456 17.1324 31.7683 12.6865 29.1106 9.10733L33.6828 9.0961L33.6607 9.022C34.8143 11.6693 35.4598 14.5928 35.4598 17.678C35.4598 21.5019 34.4637 25.1035 32.7178 28.2089C32.6113 28.2404 32.5159 28.2516 32.4117 28.2628C33.0151 26.2689 33.3434 24.1582 33.3434 21.9622L33.3456 21.9645Z" fill="#010101"/>
<path d="M12.1749 20.8912C12.7593 20.8912 13.2331 20.4116 13.2331 19.8201C13.2331 19.2286 12.7593 18.7491 12.1749 18.7491C11.5905 18.7491 11.1167 19.2286 11.1167 19.8201C11.1167 20.4116 11.5905 20.8912 12.1749 20.8912Z" fill="#010101"/>
<path d="M13.2331 19.8201C13.2331 19.2318 12.7561 18.7491 12.1749 18.7491C11.5936 18.7491 11.1167 19.2318 11.1167 19.8201C11.1167 20.4084 11.5936 20.8912 12.1749 20.8912C12.7561 20.8912 13.2331 20.4084 13.2331 19.8201V19.8201ZM12.1749 17.678C13.3396 17.678 14.2913 18.6413 14.2913 19.8201C14.2913 20.9989 13.3396 21.9622 12.1749 21.9622C11.0102 21.9622 10.0585 20.9989 10.0585 19.8201C10.0585 18.6413 11.0102 17.678 12.1749 17.678V17.678Z" fill="#4A93CF"/>
<path d="M14.2913 19.8201C14.2913 18.6413 13.3396 17.678 12.1749 17.678C11.0102 17.678 10.0585 18.6413 10.0585 19.8201C10.0585 20.999 11.0102 21.9622 12.1749 21.9622C13.3396 21.9622 14.2913 20.999 14.2913 19.8201V19.8201ZM30.699 28.3908C31.2803 28.3908 31.8526 28.3481 32.4139 28.2628V28.274L32.5625 28.3908C32.5936 28.3796 32.6158 28.3683 32.6468 28.3594C32.8154 28.3055 32.9752 28.2516 33.1438 28.1887L33.1127 28.2314L33.2081 28.1663C33.2813 28.1348 33.3567 28.1124 33.4299 28.0809C33.7472 28.0068 34.0644 27.9193 34.3728 27.8227L34.3506 27.8968C33.8004 34.1749 28.5826 39.1036 22.2312 39.1036C15.5092 39.1036 10.0585 33.5867 10.0585 26.7831C10.0585 22.7751 7.77125 19.3149 4.448 17.6556C6.14068 16.3263 8.27928 15.5337 10.5865 15.5337C14.7572 15.5337 18.3245 18.0934 19.8485 21.7467L19.9129 21.7893C21.9561 25.7098 26.0203 28.3886 30.699 28.3886V28.3908Z" fill="#010101"/>
<path d="M50.2037 36.2564C50.6363 38.1852 52.0028 39.0295 54.1991 39.0295C56.3954 39.0295 57.3249 38.1538 57.3249 36.7482C57.3249 35.1854 56.4109 34.5072 53.1653 33.7438C48.003 32.5178 46.7251 30.616 46.7251 28.0225C46.7251 24.6747 49.1987 22.4023 53.6911 22.4023C58.7292 22.4023 60.7347 25.1439 61.0076 27.9529H56.8746C56.6771 26.7719 56.0316 25.4875 53.5846 25.4875C51.9185 25.4875 50.9136 26.1836 50.9136 27.5465C50.9136 28.9095 51.7189 29.4237 54.7848 30.1422C60.3043 31.458 61.5134 33.5372 61.5134 36.2429C61.5134 39.7503 58.8911 42.1551 53.8774 42.1551C48.8637 42.1551 46.5255 39.7547 46.0707 36.2542H50.2037V36.2564Z" fill="#F2F2F2"/>
<path d="M76.8539 37.2264C76.3637 39.629 74.6932 42.2202 70.4493 42.2202C66.2054 42.2202 63.7362 39.1148 63.7362 34.7812C63.7362 30.4476 66.303 27.1334 70.6378 27.1334C75.4408 27.1334 76.7763 30.6205 76.8539 32.2529H73.0027C72.7587 31.0785 72.102 30.2567 70.5624 30.2567C68.7588 30.2567 67.7383 31.8554 67.7383 34.651C67.7383 37.7204 68.8187 39.1193 70.5469 39.1193C71.9024 39.1193 72.6278 38.3087 72.9805 37.2264H76.8562H76.8539Z" fill="#F2F2F2"/>
<path d="M83.2187 21.5536V29.1699C83.8443 28.2359 84.9979 27.1334 87.2985 27.1334C89.954 27.1334 92.0704 28.7254 92.0704 32.6346V41.8856H88.1504V33.2319C88.1504 31.357 87.4937 30.36 85.8387 30.36C83.6469 30.36 83.2165 32.0104 83.2165 34.2356V41.8856H79.2721V21.5536H83.2165H83.2187Z" fill="#F2F2F2"/>
<path d="M108.875 34.6487C108.875 39.0115 106.295 42.2202 101.783 42.2202C97.2704 42.2202 94.7858 39.0295 94.7858 34.725C94.7858 30.4206 97.4435 27.1334 101.969 27.1334C106.162 27.1334 108.875 30.1287 108.875 34.6487V34.6487ZM98.7901 34.6756C98.7901 37.451 99.9703 39.0946 101.869 39.0946C103.768 39.0946 104.873 37.4487 104.873 34.7003C104.873 31.6825 103.779 30.2567 101.814 30.2567C99.9836 30.2567 98.7901 31.6286 98.7901 34.6756V34.6756Z" fill="#F2F2F2"/>
<path d="M111.584 41.8856V21.5536H115.528V41.8856H111.584Z" fill="#F2F2F2"/>
<path d="M119.071 21.5536H123.016V25.1148H119.071V21.5536ZM119.071 27.4679H123.016V41.8856H119.071V27.4679Z" fill="#F2F2F2"/>
<path d="M129.327 37.552C129.624 38.7016 130.552 39.3461 132.025 39.3461C133.498 39.3461 134.013 38.8162 134.013 37.9427C134.013 37.0176 133.4 36.6538 131.359 36.1464C126.718 34.9878 125.96 33.535 125.96 31.5007C125.96 29.4663 127.439 27.1334 131.736 27.1334C136.034 27.1334 137.52 29.5202 137.642 31.4737H133.891C133.764 30.9416 133.414 29.9334 131.559 29.9334C130.255 29.9334 129.833 30.5172 129.833 31.1661C129.833 31.8846 130.274 32.2304 132.588 32.776C137.34 33.8943 138.012 35.5446 138.012 37.6575C138.012 40.0444 136.218 42.2179 131.874 42.2179C127.53 42.2179 125.764 40.105 125.452 37.5498H129.327V37.552Z" fill="#F2F2F2"/>
<path d="M139.068 27.4679H141.265V23.5632H145.209V27.4679H148V30.47H145.209V37.5857C145.209 38.6792 145.54 39.1058 146.716 39.1058C146.935 39.1058 147.319 39.1036 147.614 39.0609V41.8071C146.831 42.0765 145.759 42.0832 144.963 42.0832C142.183 42.0832 141.265 40.5788 141.265 38.0572V30.4723H139.068V27.4702V27.4679Z" fill="#F2F2F2"/>
</g>
<defs>
<clipPath id="clip0_1_2746">
<rect width="148" height="45" fill="white"/>
</clipPath>
</defs>
</svg>
