<svg width="19" height="20" viewBox="0 0 19 20" fill="none" xmlns="http://www.w3.org/2000/svg">
<path d="M17.7151 0.625H1.0349C0.760425 0.625 0.497195 0.734033 0.303114 0.928114C0.109033 1.12219 0 1.38542 0 1.6599V18.3404C6.90554e-05 18.6148 0.109133 18.878 0.303206 19.072C0.497279 19.266 0.76047 19.375 1.0349 19.375H10.0148V12.1141H7.57135V9.28437H10.0148V7.1974C10.0148 4.77552 11.494 3.45703 13.6544 3.45703C14.6893 3.45703 15.5786 3.53385 15.838 3.56849V6.09948L14.3396 6.10026C13.1646 6.10026 12.9372 6.65859 12.9372 7.47786V9.28463H15.7393L15.3745 12.1143H12.9372V19.375H17.7154C17.9898 19.3749 18.253 19.2659 18.447 19.0718C18.641 18.8777 18.75 18.6145 18.75 18.3401V1.6599C18.75 1.38542 18.641 1.12219 18.4469 0.928114C18.2528 0.734033 17.9896 0.625 17.7151 0.625Z" fill="#F2F2F2"/>
</svg>
