<svg width="19" height="20" viewBox="0 0 19 20" fill="none" xmlns="http://www.w3.org/2000/svg">
<path d="M17.5004 0.625H1.85212C0.997069 0.625 0.25 1.24023 0.25 2.08524V17.7683C0.25 18.6179 0.997069 19.375 1.85212 19.375H17.4958C18.3554 19.375 19 18.6129 19 17.7683V2.08524C19.005 1.24023 18.3554 0.625 17.5004 0.625ZM6.06207 16.254H3.37597V7.90234H6.06207V16.254ZM4.81193 6.63253H4.79268C3.93303 6.63253 3.37639 5.99261 3.37639 5.19155C3.37639 4.37584 3.94768 3.75098 4.82658 3.75098C5.70549 3.75098 6.24329 4.37123 6.26255 5.19155C6.26213 5.99261 5.70549 6.63253 4.81193 6.63253ZM15.879 16.254H13.1929V11.6875C13.1929 10.5935 12.802 9.84598 11.8302 9.84598C11.0877 9.84598 10.6483 10.3482 10.4528 10.8375C10.3796 11.0133 10.3599 11.2527 10.3599 11.4971V16.254H7.67382V7.90234H10.3599V9.06459C10.7508 8.50795 11.3615 7.70689 12.7823 7.70689C14.5456 7.70689 15.8794 8.86914 15.8794 11.3749L15.879 16.254Z" fill="#F2F2F2"/>
</svg>
