<svg width="21" height="16" viewBox="0 0 21 16" fill="none" xmlns="http://www.w3.org/2000/svg">
<path d="M17.9643 2.5874C18.8396 2.04931 19.4191 1.31486 19.7029 0.3808C18.9036 0.813776 18.0457 1.1284 17.1562 1.31486C16.3946 0.494711 15.4305 0.078125 14.2747 0.078125C13.1448 0.078125 12.1904 0.475183 11.4116 1.2476C11.0354 1.6144 10.738 2.05424 10.5376 2.54019C10.3372 3.02613 10.2379 3.54795 10.246 4.07365C10.246 4.40888 10.2882 4.7083 10.3727 4.96215C7.04057 4.84824 4.28255 3.46396 2.10951 0.799555C1.7412 1.45155 1.55704 2.11549 1.55704 2.8022C1.55704 4.2136 2.15176 5.33209 3.33902 6.15333C2.66198 6.09583 2.06509 5.92442 1.55704 5.64344C1.55704 6.65128 1.85277 7.49312 2.44532 8.23408C3.02093 8.95609 3.83211 9.45196 4.73645 9.63463C4.39846 9.72142 4.04207 9.76265 3.67592 9.76265C3.33794 9.76265 3.09854 9.73444 2.95663 9.6726C3.20578 10.4938 3.67592 11.1599 4.35513 11.6698C5.02659 12.1804 5.84336 12.4628 6.68634 12.4759C5.24342 13.6096 3.59359 14.1704 1.72711 14.1704C1.26997 14.1704 0.946072 14.1639 0.75 14.1292C2.58831 15.3247 4.63462 15.9181 6.89866 15.9181C9.21578 15.9181 11.2632 15.3301 13.0452 14.1541C14.8271 12.9847 16.1422 11.5418 16.9872 9.84292C17.8228 8.19905 18.2578 6.38041 18.2568 4.5358V4.02809C19.0356 3.45303 19.7098 2.74808 20.25 1.94408C19.5205 2.26071 18.7517 2.47711 17.9643 2.5874V2.5874Z" fill="#F2F2F2"/>
</svg>
