<svg width="148" height="46" viewBox="0 0 148 46" fill="none" xmlns="http://www.w3.org/2000/svg">
<g clip-path="url(#clip0_517_29325)">
<path d="M33.2087 28.5898L33.1133 28.655L33.1443 28.6123C33.1665 28.6011 33.1865 28.5898 33.2087 28.5898V28.5898Z" fill="#010101"/>
<path d="M33.4289 28.5022C33.3557 28.5337 33.2802 28.5561 33.207 28.5876C33.2381 28.5651 33.2714 28.5561 33.2913 28.5225C33.3446 28.5225 33.3867 28.5112 33.4289 28.5V28.5022Z" fill="#010101"/>
<path d="M33.2932 28.5234C33.271 28.5549 33.2399 28.5661 33.2089 28.5886C33.1867 28.5886 33.1667 28.5998 33.1445 28.611L33.1978 28.5459C33.2288 28.5459 33.2621 28.5347 33.2932 28.5234V28.5234Z" fill="#010101"/>
<path d="M32.7216 28.6322C32.8814 28.621 33.0389 28.5895 33.1986 28.5469L33.1454 28.612C32.9768 28.6771 32.817 28.7288 32.6484 28.7826C32.6795 28.7288 32.7017 28.6861 32.7216 28.6322V28.6322Z" fill="#010101"/>
<path d="M32.4141 28.6828C32.5205 28.6716 32.6159 28.6603 32.7202 28.6289C32.698 28.6828 32.6781 28.7255 32.647 28.7793C32.6159 28.7906 32.5938 28.8018 32.5627 28.8108L32.4141 28.694V28.6828V28.6828Z" fill="#010101"/>
<path d="M39.6985 12.7429C39.6985 17.8108 37.9614 22.4722 35.0508 26.1255C36.6703 23.1032 37.5798 19.6318 37.5798 15.9583C37.5798 13.7309 37.2404 11.5866 36.6281 9.57244L36.6059 9.50732L39.4544 9.49609C39.6141 10.5559 39.6985 11.6382 39.6985 12.7429V12.7429Z" fill="#010101"/>
<path d="M47.0762 9.46484C46.6836 18.186 41.1263 25.5464 33.4305 28.5036C33.3884 28.5148 33.3462 28.526 33.293 28.526C39.0721 24.7021 42.8723 18.1006 42.8723 10.601C42.8723 10.226 42.8612 9.85105 42.8412 9.4873L47.0762 9.46484V9.46484Z" fill="#010101"/>
<path d="M39.6971 12.7424C39.6971 11.6399 39.6128 10.5576 39.4531 9.49552L36.6046 9.50675L36.6267 9.57187C37.2413 11.586 37.5785 13.7281 37.5785 15.9578C37.5785 19.6335 36.6689 23.1049 35.0494 26.1249C37.96 22.4717 39.6971 17.8102 39.6971 12.7424V12.7424ZM44.4601 22.9208C44.4601 35.349 34.5103 45.4196 22.2312 45.4196C9.952 45.4196 0 35.349 0 22.9208C0 10.4925 9.952 0.421875 22.2312 0.421875C28.5516 0.421875 34.2663 3.08941 38.3106 7.3871H49.2232C49.2232 12.5627 47.4129 17.3073 44.3847 21.0144C44.4268 21.6476 44.4579 22.2786 44.4579 22.9208H44.4601ZM29.1106 9.52921C31.7683 13.1084 33.3456 17.5543 33.3456 22.3863C33.3456 24.5823 33.0173 26.693 32.4139 28.6869C31.8526 28.7723 31.2803 28.8149 30.699 28.8149C26.0203 28.8149 21.9561 26.1362 19.9129 22.2157L19.8485 22.173C18.3245 18.5198 14.7572 15.96 10.5865 15.96C8.27929 15.96 6.14069 16.7526 4.44801 18.0819C7.77126 19.7435 10.0585 23.2037 10.0585 27.2095C10.0585 34.013 15.5092 39.53 22.2312 39.53C28.5826 39.53 33.8004 34.6013 34.3506 28.3232L34.3728 28.2491C34.0666 28.3456 33.7472 28.431 33.4299 28.5073C41.1258 25.5501 46.683 18.1897 47.0757 9.46858H47.1067L47.0846 9.34059C47.0846 9.38325 47.0846 9.42592 47.0735 9.46858L42.8384 9.49103C42.8606 9.85479 42.8695 10.2298 42.8695 10.6047C42.8695 18.1044 39.0693 24.7036 33.2902 28.5298C33.2591 28.541 33.2258 28.5522 33.1948 28.5522C33.0351 28.5949 32.8775 28.6263 32.7178 28.6375C34.4637 25.5299 35.4598 21.9305 35.4598 18.1066C35.4598 15.0214 34.8143 12.0957 33.6607 9.45062L33.6829 9.52471L29.1106 9.53594V9.52921Z" fill="#4A93CF"/>
<path d="M33.3444 22.3878C33.3444 17.5557 31.7671 13.1098 29.1094 9.53064L33.6816 9.51941L33.6594 9.44531C34.813 12.0926 35.4586 15.0161 35.4586 18.1013C35.4586 21.9252 34.4625 25.5268 32.7166 28.6322C32.6101 28.6637 32.5147 28.6749 32.4104 28.6861C33.0139 26.6922 33.3422 24.5815 33.3422 22.3855L33.3444 22.3878Z" fill="#010101"/>
<path d="M12.1754 21.314C12.7598 21.314 13.2336 20.8345 13.2336 20.2429C13.2336 19.6514 12.7598 19.1719 12.1754 19.1719C11.591 19.1719 11.1172 19.6514 11.1172 20.2429C11.1172 20.8345 11.591 21.314 12.1754 21.314Z" fill="#010101"/>
<path d="M13.2332 20.2437C13.2332 19.6554 12.7562 19.1726 12.175 19.1726C11.5938 19.1726 11.1168 19.6554 11.1168 20.2437C11.1168 20.832 11.5938 21.3147 12.175 21.3147C12.7562 21.3147 13.2332 20.832 13.2332 20.2437V20.2437ZM12.175 18.1016C13.3397 18.1016 14.2914 19.0648 14.2914 20.2437C14.2914 21.4225 13.3397 22.3858 12.175 22.3858C11.0103 22.3858 10.0586 21.4225 10.0586 20.2437C10.0586 19.0648 11.0103 18.1016 12.175 18.1016V18.1016Z" fill="#4A93CF"/>
<path d="M14.2925 20.2435C14.2925 19.0647 13.3408 18.1014 12.1761 18.1014C11.0114 18.1014 10.0597 19.0647 10.0597 20.2435C10.0597 21.4223 11.0114 22.3856 12.1761 22.3856C13.3408 22.3856 14.2925 21.4223 14.2925 20.2435V20.2435ZM30.7002 28.8142C31.2815 28.8142 31.8538 28.7715 32.4151 28.6862V28.6974L32.5637 28.8142C32.5948 28.8029 32.617 28.7917 32.648 28.7827C32.8166 28.7288 32.9764 28.675 33.145 28.6121L33.1139 28.6548L33.2093 28.5896C33.2825 28.5582 33.3579 28.5357 33.4312 28.5043C33.7484 28.4302 34.0656 28.3426 34.374 28.2461L34.3518 28.3202C33.8016 34.5983 28.5838 39.527 22.2324 39.527C15.5105 39.527 10.0597 34.01 10.0597 27.2065C10.0597 23.1984 7.77247 19.7383 4.44922 18.0789C6.1419 16.7497 8.2805 15.957 10.5877 15.957C14.7584 15.957 18.3257 18.5168 19.8498 22.17L19.9141 22.2127C21.9573 26.1332 26.0215 28.8119 30.7002 28.8119V28.8142Z" fill="#010101"/>
<path d="M50.2033 36.6783C50.6359 38.6071 52.0025 39.4514 54.1987 39.4514C56.395 39.4514 57.3246 38.5757 57.3246 37.1701C57.3246 35.6073 56.4105 34.9292 53.1649 34.1657C48.0026 32.9397 46.7248 31.0379 46.7248 28.4444C46.7248 25.0966 49.1983 22.8242 53.6907 22.8242C58.7288 22.8242 60.7343 25.5658 61.0072 28.3748H56.8742C56.6768 27.1938 56.0312 25.9094 53.5842 25.9094C51.9182 25.9094 50.9132 26.6055 50.9132 27.9684C50.9132 29.3314 51.7185 29.8456 54.7844 30.5641C60.3039 31.8799 61.513 33.9591 61.513 36.6648C61.513 40.1722 58.8908 42.577 53.8771 42.577C48.8634 42.577 46.5251 40.1766 46.0703 36.6761H50.2033V36.6783Z" fill="#F2F2F2"/>
<path d="M76.8521 37.6477C76.3618 40.0503 74.6913 42.6415 70.4474 42.6415C66.2035 42.6415 63.7344 39.5361 63.7344 35.2025C63.7344 30.8689 66.3011 27.5547 70.636 27.5547C75.439 27.5547 76.7745 31.0418 76.8521 32.6742H73.0009C72.7568 31.4999 72.1002 30.678 70.5606 30.678C68.757 30.678 67.7365 32.2768 67.7365 35.0723C67.7365 38.1417 68.8169 39.5406 70.545 39.5406C71.9005 39.5406 72.626 38.73 72.9787 37.6477H76.8543H76.8521Z" fill="#F2F2F2"/>
<path d="M83.2201 21.9766V29.5929C83.8457 28.6589 84.9993 27.5564 87.2998 27.5564C89.9553 27.5564 92.0717 29.1484 92.0717 33.0576V42.3086H88.1517V33.6549C88.1517 31.78 87.495 30.783 85.8401 30.783C83.6482 30.783 83.2179 32.4334 83.2179 34.6586V42.3086H79.2734V21.9766H83.2179H83.2201Z" fill="#F2F2F2"/>
<path d="M108.875 35.07C108.875 39.4328 106.295 42.6415 101.782 42.6415C97.2698 42.6415 94.7852 39.4508 94.7852 35.1464C94.7852 30.8419 97.4429 27.5547 101.969 27.5547C106.161 27.5547 108.875 30.55 108.875 35.07V35.07ZM98.7895 35.097C98.7895 37.8723 99.9697 39.5159 101.869 39.5159C103.768 39.5159 104.872 37.87 104.872 35.1217C104.872 32.1039 103.779 30.678 101.813 30.678C99.983 30.678 98.7895 32.05 98.7895 35.097V35.097Z" fill="#F2F2F2"/>
<path d="M111.582 42.3086V21.9766H115.526V42.3086H111.582Z" fill="#F2F2F2"/>
<path d="M119.07 21.9766H123.015V25.5378H119.07V21.9766ZM119.07 27.8909H123.015V42.3086H119.07V27.8909Z" fill="#F2F2F2"/>
<path d="M129.329 37.9733C129.626 39.123 130.553 39.7674 132.026 39.7674C133.499 39.7674 134.014 39.2375 134.014 38.364C134.014 37.4389 133.402 37.0752 131.361 36.5677C126.72 35.4091 125.961 33.9563 125.961 31.922C125.961 29.8877 127.441 27.5547 131.738 27.5547C136.035 27.5547 137.522 29.9415 137.644 31.895H133.892C133.766 31.3629 133.415 30.3547 131.561 30.3547C130.256 30.3547 129.835 30.9385 129.835 31.5874C129.835 32.3059 130.276 32.6517 132.59 33.1974C137.342 34.3156 138.014 35.9659 138.014 38.0789C138.014 40.4657 136.219 42.6393 131.876 42.6393C127.532 42.6393 125.766 40.5263 125.453 37.9711H129.329V37.9733Z" fill="#F2F2F2"/>
<path d="M139.066 27.8891H141.263V23.9844H145.207V27.8891H147.998V30.8912H145.207V38.0069C145.207 39.1004 145.538 39.527 146.713 39.527C146.933 39.527 147.317 39.5248 147.612 39.4821V42.2282C146.829 42.4977 145.757 42.5044 144.961 42.5044C142.181 42.5044 141.263 41 141.263 38.4784V30.8935H139.066V27.8914V27.8891Z" fill="#F2F2F2"/>
</g>
<defs>
<clipPath id="clip0_517_29325">
<rect width="148" height="45" fill="white" transform="translate(0 0.421875)"/>
</clipPath>
</defs>
</svg>
