<svg width="20" height="19" viewBox="0 0 20 19" fill="none" xmlns="http://www.w3.org/2000/svg">
<path d="M18.2151 0.0473633H1.5349C1.26042 0.0473633 0.997195 0.156397 0.803114 0.350477C0.609033 0.544558 0.5 0.807788 0.5 1.08226V17.7627C0.500069 18.0372 0.609133 18.3003 0.803206 18.4943C0.997279 18.6884 1.26047 18.7974 1.5349 18.7974H10.5148V11.5364H8.07135V8.70674H10.5148V6.61976C10.5148 4.19788 11.994 2.87939 14.1544 2.87939C15.1893 2.87939 16.0786 2.95622 16.338 2.99085V5.52184L14.8396 5.52262C13.6646 5.52262 13.4372 6.08096 13.4372 6.90023V8.707H16.2393L15.8745 11.5367H13.4372V18.7974H18.2154C18.4898 18.7973 18.753 18.6882 18.947 18.4942C19.141 18.3001 19.25 18.0369 19.25 17.7625V1.08226C19.25 0.807788 19.141 0.544558 18.9469 0.350477C18.7528 0.156397 18.4896 0.0473633 18.2151 0.0473633V0.0473633Z" fill="#F2F2F2"/>
</svg>
