<svg width="20" height="21" viewBox="0 0 20 21" fill="none" xmlns="http://www.w3.org/2000/svg">
<path d="M5.8 0.421875H14.2C17.4 0.421875 20 3.02188 20 6.22188V14.6219C20 16.1601 19.3889 17.6354 18.3012 18.7231C17.2135 19.8108 15.7383 20.4219 14.2 20.4219H5.8C2.6 20.4219 0 17.8219 0 14.6219V6.22188C0 4.68362 0.61107 3.20837 1.69878 2.12066C2.78649 1.03294 4.26174 0.421875 5.8 0.421875M5.6 2.42188C4.64522 2.42188 3.72955 2.80116 3.05442 3.47629C2.37928 4.15142 2 5.0671 2 6.02187V14.8219C2 16.8119 3.61 18.4219 5.6 18.4219H14.4C15.3548 18.4219 16.2705 18.0426 16.9456 17.3675C17.6207 16.6923 18 15.7767 18 14.8219V6.02187C18 4.03187 16.39 2.42188 14.4 2.42188H5.6ZM15.25 3.92188C15.5815 3.92188 15.8995 4.05357 16.1339 4.28799C16.3683 4.52241 16.5 4.84035 16.5 5.17188C16.5 5.5034 16.3683 5.82134 16.1339 6.05576C15.8995 6.29018 15.5815 6.42188 15.25 6.42188C14.9185 6.42188 14.6005 6.29018 14.3661 6.05576C14.1317 5.82134 14 5.5034 14 5.17188C14 4.84035 14.1317 4.52241 14.3661 4.28799C14.6005 4.05357 14.9185 3.92188 15.25 3.92188ZM10 5.42188C11.3261 5.42188 12.5979 5.94866 13.5355 6.88634C14.4732 7.82402 15 9.09579 15 10.4219C15 11.748 14.4732 13.0197 13.5355 13.9574C12.5979 14.8951 11.3261 15.4219 10 15.4219C8.67392 15.4219 7.40215 14.8951 6.46447 13.9574C5.52678 13.0197 5 11.748 5 10.4219C5 9.09579 5.52678 7.82402 6.46447 6.88634C7.40215 5.94866 8.67392 5.42188 10 5.42188M10 7.42188C9.20435 7.42188 8.44129 7.73795 7.87868 8.30055C7.31607 8.86316 7 9.62623 7 10.4219C7 11.2175 7.31607 11.9806 7.87868 12.5432C8.44129 13.1058 9.20435 13.4219 10 13.4219C10.7956 13.4219 11.5587 13.1058 12.1213 12.5432C12.6839 11.9806 13 11.2175 13 10.4219C13 9.62623 12.6839 8.86316 12.1213 8.30055C11.5587 7.73795 10.7956 7.42188 10 7.42188Z" fill="#F2F2F2"/>
</svg>
