<svg width="21" height="16" viewBox="0 0 21 16" fill="none" xmlns="http://www.w3.org/2000/svg">
<path d="M17.9643 2.58929C18.8396 2.0512 19.4191 1.31675 19.7029 0.382693C18.9036 0.815668 18.0457 1.13029 17.1562 1.31675C16.3946 0.496603 15.4305 0.0800171 14.2747 0.0800171C13.1448 0.0800171 12.1904 0.477075 11.4116 1.24949C11.0354 1.61629 10.738 2.05613 10.5376 2.54208C10.3372 3.02803 10.2379 3.54984 10.246 4.07555C10.246 4.41077 10.2882 4.71019 10.3727 4.96404C7.04057 4.85013 4.28255 3.46586 2.10951 0.801447C1.7412 1.45345 1.55704 2.11738 1.55704 2.80409C1.55704 4.21549 2.15176 5.33398 3.33902 6.15522C2.66198 6.09772 2.06509 5.92631 1.55704 5.64534C1.55704 6.65317 1.85277 7.49502 2.44532 8.23597C3.02093 8.95799 3.83211 9.45386 4.73645 9.63652C4.39846 9.72331 4.04207 9.76454 3.67592 9.76454C3.33794 9.76454 3.09854 9.73633 2.95663 9.67449C3.20578 10.4957 3.67592 11.1618 4.35513 11.6717C5.02659 12.1823 5.84336 12.4647 6.68634 12.4778C5.24342 13.6114 3.59359 14.1723 1.72711 14.1723C1.26997 14.1723 0.946072 14.1658 0.75 14.1311C2.58831 15.3266 4.63462 15.92 6.89866 15.92C9.21578 15.92 11.2632 15.332 13.0452 14.156C14.8271 12.9866 16.1422 11.5437 16.9872 9.84482C17.8228 8.20094 18.2578 6.3823 18.2568 4.5377V4.02998C19.0356 3.45493 19.7098 2.74998 20.25 1.94597C19.5205 2.2626 18.7517 2.479 17.9643 2.58929V2.58929Z" fill="#F2F2F2"/>
</svg>
