<svg width="21" height="16" viewBox="0 0 21 16" fill="none" xmlns="http://www.w3.org/2000/svg">
<path d="M17.9643 2.58926C18.8396 2.05117 19.4191 1.31672 19.7029 0.382662C18.9036 0.815637 18.0457 1.13026 17.1562 1.31672C16.3946 0.496572 15.4305 0.0799866 14.2747 0.0799866C13.1448 0.0799866 12.1904 0.477044 11.4116 1.24946C11.0354 1.61626 10.738 2.0561 10.5376 2.54205C10.3372 3.028 10.2379 3.54981 10.246 4.07552C10.246 4.41074 10.2882 4.71016 10.3727 4.96401C7.04057 4.8501 4.28255 3.46583 2.10951 0.801417C1.7412 1.45342 1.55704 2.11735 1.55704 2.80406C1.55704 4.21546 2.15176 5.33395 3.33902 6.15519C2.66198 6.09769 2.06509 5.92628 1.55704 5.6453C1.55704 6.65314 1.85277 7.49499 2.44532 8.23594C3.02093 8.95796 3.83211 9.45383 4.73645 9.63649C4.39846 9.72328 4.04207 9.76451 3.67592 9.76451C3.33794 9.76451 3.09854 9.7363 2.95663 9.67446C3.20578 10.4957 3.67592 11.1618 4.35513 11.6717C5.02659 12.1823 5.84336 12.4647 6.68634 12.4777C5.24342 13.6114 3.59359 14.1723 1.72711 14.1723C1.26997 14.1723 0.946072 14.1658 0.75 14.1311C2.58831 15.3266 4.63462 15.92 6.89866 15.92C9.21578 15.92 11.2632 15.332 13.0452 14.156C14.8271 12.9865 16.1422 11.5437 16.9872 9.84479C17.8228 8.20091 18.2578 6.38227 18.2568 4.53766V4.02995C19.0356 3.4549 19.7098 2.74994 20.25 1.94594C19.5205 2.26257 18.7517 2.47897 17.9643 2.58926V2.58926Z" fill="#F2F2F2"/>
</svg>
