<svg width="21" height="16" viewBox="0 0 21 16" fill="none" xmlns="http://www.w3.org/2000/svg">
<path d="M17.9643 2.58935C18.8396 2.05126 19.4191 1.31682 19.7029 0.382754C18.9036 0.815729 18.0457 1.13036 17.1562 1.31682C16.3946 0.496664 15.4305 0.0800781 14.2747 0.0800781C13.1448 0.0800781 12.1904 0.477136 11.4116 1.24955C11.0354 1.61635 10.738 2.05619 10.5376 2.54214C10.3372 3.02809 10.2379 3.5499 10.246 4.07561C10.246 4.41083 10.2882 4.71025 10.3727 4.96411C7.04057 4.8502 4.28255 3.46592 2.10951 0.801508C1.7412 1.45351 1.55704 2.11744 1.55704 2.80415C1.55704 4.21555 2.15176 5.33404 3.33902 6.15528C2.66198 6.09778 2.06509 5.92637 1.55704 5.6454C1.55704 6.65323 1.85277 7.49508 2.44532 8.23604C3.02093 8.95805 3.83211 9.45392 4.73645 9.63659C4.39846 9.72337 4.04207 9.7646 3.67592 9.7646C3.33794 9.7646 3.09854 9.73639 2.95663 9.67455C3.20578 10.4958 3.67592 11.1619 4.35513 11.6718C5.02659 12.1824 5.84336 12.4648 6.68634 12.4778C5.24342 13.6115 3.59359 14.1724 1.72711 14.1724C1.26997 14.1724 0.946072 14.1659 0.75 14.1311C2.58831 15.3267 4.63462 15.9201 6.89866 15.9201C9.21578 15.9201 11.2632 15.3321 13.0452 14.1561C14.8271 12.9866 16.1422 11.5438 16.9872 9.84488C17.8228 8.201 18.2578 6.38236 18.2568 4.53776V4.03004C19.0356 3.45499 19.7098 2.75004 20.25 1.94603C19.5205 2.26266 18.7517 2.47906 17.9643 2.58935Z" fill="#F2F2F2"/>
</svg>
