<svg width="21" height="16" viewBox="0 0 21 16" fill="none" xmlns="http://www.w3.org/2000/svg">
<path d="M20.8651 3.89033C20.8651 2.16538 19.5073 0.77775 17.8295 0.77775C15.557 0.678469 13.2393 0.640137 10.8708 0.640137H10.1324C7.76959 0.640137 5.44781 0.678469 3.17526 0.778133C1.50161 0.778133 0.143822 2.17343 0.143822 3.89838C0.0412703 5.26263 -0.0022118 6.62726 0.000249451 7.99189C-0.00385263 9.35652 0.0426376 10.7224 0.13972 12.0896C0.13972 13.8146 1.49751 15.2137 3.17116 15.2137C5.55857 15.3172 8.00751 15.3632 10.4975 15.3594C12.9915 15.367 15.4336 15.3185 17.8238 15.2137C19.5015 15.2137 20.8593 13.8146 20.8593 12.0896C20.9578 10.7211 21.0029 9.35652 20.9988 7.98805C21.0081 6.62342 20.9635 5.25752 20.8651 3.89033ZM8.49156 11.7523V4.21999L14.4396 7.98422L8.49156 11.7523Z" fill="#F2F2F2"/>
</svg>
