<svg width="20" height="19" viewBox="0 0 20 19" fill="none" xmlns="http://www.w3.org/2000/svg">
<path d="M18.0004 0.0473633H2.35212C1.49707 0.0473633 0.75 0.662598 0.75 1.5076V17.1906C0.75 18.0402 1.49707 18.7974 2.35212 18.7974H17.9958C18.8554 18.7974 19.5 18.0352 19.5 17.1906V1.5076C19.505 0.662598 18.8554 0.0473633 18.0004 0.0473633ZM6.56207 15.6764H3.87597V7.32471H6.56207V15.6764ZM5.31193 6.0549H5.29268C4.43303 6.0549 3.87639 5.41497 3.87639 4.61391C3.87639 3.7982 4.44768 3.17334 5.32658 3.17334C6.20549 3.17334 6.74329 3.7936 6.76255 4.61391C6.76213 5.41497 6.20549 6.0549 5.31193 6.0549ZM16.379 15.6764H13.6929V11.1099C13.6929 10.0158 13.302 9.26835 12.3302 9.26835C11.5877 9.26835 11.1483 9.77058 10.9528 10.2598C10.8796 10.4356 10.8599 10.675 10.8599 10.9194V15.6764H8.17382V7.32471H10.8599V8.48696C11.2508 7.93032 11.8615 7.12926 13.2823 7.12926C15.0456 7.12926 16.3794 8.2915 16.3794 10.7972L16.379 15.6764Z" fill="#F2F2F2"/>
</svg>
