<svg width="104" height="95" viewBox="0 0 104 95" fill="none" xmlns="http://www.w3.org/2000/svg">
<g clip-path="url(#clip0_1_1118)">
<path d="M70.0058 59.4629L69.8047 59.6004L69.8702 59.5103C69.9169 59.4866 69.959 59.4629 70.0058 59.4629Z" fill="#010101"/>
<path d="M70.4735 59.2821C70.3192 59.3484 70.1602 59.3959 70.0059 59.4622C70.0713 59.4148 70.1415 59.3959 70.1836 59.3247C70.2958 59.3247 70.3847 59.301 70.4735 59.2773V59.2821Z" fill="#010101"/>
<path d="M70.1844 59.3301C70.1377 59.3964 70.0722 59.4201 70.0067 59.4675C69.96 59.4675 69.9179 59.4912 69.8711 59.5149L69.9833 59.3775C70.0488 59.3775 70.119 59.3538 70.1844 59.3301Z" fill="#010101"/>
<path d="M68.9766 59.5512C69.3133 59.5275 69.6454 59.4612 69.9821 59.3711L69.8698 59.5086C69.5144 59.646 69.1777 59.7551 68.8223 59.8688C68.8877 59.7551 68.9345 59.665 68.9766 59.5512Z" fill="#010101"/>
<path d="M68.332 59.6665C68.5565 59.6428 68.7576 59.6191 68.9774 59.5527C68.9307 59.6665 68.8886 59.7566 68.8231 59.8703C68.7576 59.894 68.7108 59.9177 68.6454 59.9367L68.332 59.6902V59.6665Z" fill="#010101"/>
<path d="M83.6865 26.0107C83.6865 36.7095 80.0246 46.5503 73.8887 54.2628C77.3027 47.8824 79.2202 40.5539 79.2202 32.7988C79.2202 28.0964 78.5046 23.5695 77.2138 19.3174L77.1671 19.18L83.172 19.1562C83.5087 21.3937 83.6865 23.6785 83.6865 26.0107Z" fill="#010101"/>
<path d="M99.2402 19.0898C98.4124 37.5011 86.6972 53.0397 70.4735 59.2827C70.3847 59.3064 70.2958 59.3301 70.1836 59.3301C82.3665 51.2574 90.3778 37.321 90.3778 21.4884C90.3778 20.6968 90.3544 19.9052 90.3123 19.1372L99.2402 19.0898Z" fill="#010101"/>
<path d="M83.6858 26.0099C83.6858 23.6824 83.508 21.3976 83.1713 19.1555L77.1664 19.1792L77.2131 19.3167C78.5086 23.5687 79.2195 28.0909 79.2195 32.798C79.2195 40.5579 77.302 47.8863 73.888 54.262C80.0239 46.5496 83.6858 36.7087 83.6858 26.0099ZM93.7267 47.4976C93.7267 73.7351 72.7515 94.9953 46.8657 94.9953C20.9799 94.9953 0 73.7351 0 47.4976C0 21.2602 20.9799 0 46.8657 0C60.1898 0 72.2371 5.63146 80.7628 14.7044H103.768C103.768 25.6307 99.9515 35.6469 93.5677 43.4731C93.6566 44.8099 93.7221 46.1419 93.7221 47.4976H93.7267ZM61.3683 19.2266C66.9711 26.7826 70.2962 36.1684 70.2962 46.3694C70.2962 51.0054 69.6041 55.4613 68.332 59.6707C67.1488 59.8508 65.9422 59.9409 64.7169 59.9409C54.8536 59.9409 46.2858 54.2857 41.9785 46.0092L41.8429 45.9191C38.63 38.2067 31.1097 32.8028 22.3174 32.8028C17.4536 32.8028 12.9452 34.4761 9.37688 37.2823C16.3827 40.7901 21.2044 48.0949 21.2044 56.5516C21.2044 70.9146 32.6952 82.5615 46.8657 82.5615C60.2552 82.5615 71.255 72.1566 72.4148 58.9027L72.4616 58.7463C71.8162 58.9501 71.1427 59.1303 70.4739 59.2915C86.6976 53.0485 98.4128 37.5099 99.2406 19.0986H99.3061L99.2593 18.8284C99.2593 18.9185 99.2593 19.0085 99.236 19.0986L90.308 19.146C90.3548 19.9139 90.3735 20.7056 90.3735 21.4972C90.3735 37.3297 82.3622 51.2614 70.1793 59.3389C70.1138 59.3626 70.0437 59.3863 69.9782 59.3863C69.6415 59.4763 69.3094 59.5427 68.9727 59.5664C72.6533 53.0058 74.7532 45.4072 74.7532 37.3345C74.7532 30.8213 73.3922 24.6447 70.9603 19.0607L71.0071 19.2171L61.3683 19.2408V19.2266Z" fill="#4A93CF"/>
<path d="M70.2971 46.3699C70.2971 36.1688 66.9719 26.783 61.3691 19.227L71.0079 19.2033L70.9612 19.0469C73.3931 24.6357 74.754 30.8075 74.754 37.3207C74.754 45.3934 72.6541 52.9968 68.9735 59.5526C68.7491 59.619 68.548 59.6427 68.3281 59.6664C69.6002 55.457 70.2924 51.0011 70.2924 46.3651L70.2971 46.3699Z" fill="#010101"/>
<path d="M25.6664 44.1043C26.8984 44.1043 27.8972 43.0919 27.8972 41.8431C27.8972 40.5944 26.8984 39.582 25.6664 39.582C24.4343 39.582 23.4355 40.5944 23.4355 41.8431C23.4355 43.0919 24.4343 44.1043 25.6664 44.1043Z" fill="#010101"/>
<path d="M27.8975 41.8425C27.8975 40.6006 26.892 39.5814 25.6667 39.5814C24.4414 39.5814 23.4359 40.6006 23.4359 41.8425C23.4359 43.0845 24.4414 44.1037 25.6667 44.1037C26.892 44.1037 27.8975 43.0845 27.8975 41.8425ZM25.6667 37.3203C28.122 37.3203 30.1283 39.3539 30.1283 41.8425C30.1283 44.3312 28.122 46.3648 25.6667 46.3648C23.2114 46.3648 21.2051 44.3312 21.2051 41.8425C21.2051 39.3539 23.2114 37.3203 25.6667 37.3203Z" fill="#4A93CF"/>
<path d="M30.1277 41.8422C30.1277 39.3535 28.1214 37.3199 25.6661 37.3199C23.2108 37.3199 21.2045 39.3535 21.2045 41.8422C21.2045 44.3308 23.2108 46.3644 25.6661 46.3644C28.1214 46.3644 30.1277 44.3308 30.1277 41.8422ZM64.7169 59.9358C65.9422 59.9358 67.1488 59.8458 68.3321 59.6656V59.6893L68.6454 59.9358C68.7109 59.9121 68.7576 59.8884 68.8231 59.8695C69.1786 59.7557 69.5153 59.6419 69.8707 59.5092L69.8052 59.5993L70.0063 59.4618C70.1607 59.3954 70.3197 59.348 70.474 59.2817C71.1428 59.1252 71.8116 58.9404 72.4616 58.7365L72.4149 58.893C71.255 72.1468 60.2553 82.5517 46.8658 82.5517C32.6952 82.5517 21.2045 70.9048 21.2045 56.5418C21.2045 48.0804 16.3827 40.7756 9.37695 37.2725C12.9453 34.4663 17.4537 32.793 22.3175 32.793C31.1098 32.793 38.63 38.1969 41.8429 45.9093L41.9786 45.9994C46.2859 54.2759 54.8537 59.9311 64.7169 59.9311V59.9358Z" fill="#010101"/>
</g>
<defs>
<clipPath id="clip0_1_1118">
<rect width="104" height="95" fill="white"/>
</clipPath>
</defs>
</svg>
