<svg width="149" height="46" viewBox="0 0 149 46" fill="none" xmlns="http://www.w3.org/2000/svg">
<g clip-path="url(#clip0_1_1038)">
<path d="M33.7082 28.5886L33.6128 28.6537L33.6439 28.6111C33.666 28.5998 33.686 28.5886 33.7082 28.5886V28.5886Z" fill="#010101"/>
<path d="M33.9299 28.5033C33.8566 28.5348 33.7812 28.5572 33.708 28.5887C33.7391 28.5662 33.7723 28.5572 33.7923 28.5236C33.8456 28.5236 33.8877 28.5123 33.9299 28.5011V28.5033Z" fill="#010101"/>
<path d="M33.7922 28.5258C33.77 28.5572 33.739 28.5684 33.7079 28.5909C33.6857 28.5909 33.6657 28.6021 33.6436 28.6133L33.6968 28.5482C33.7279 28.5482 33.7611 28.537 33.7922 28.5258V28.5258Z" fill="#010101"/>
<path d="M33.2202 28.6313C33.3799 28.6201 33.5374 28.5887 33.6971 28.546L33.6439 28.6111C33.4753 28.6763 33.3156 28.7279 33.147 28.7818C33.178 28.7279 33.2002 28.6852 33.2202 28.6313V28.6313Z" fill="#010101"/>
<path d="M32.9141 28.6851C33.0205 28.6739 33.1159 28.6627 33.2202 28.6312C33.198 28.6851 33.1781 28.7278 33.147 28.7817C33.1159 28.7929 33.0938 28.8041 33.0627 28.8131L32.9141 28.6963V28.6851V28.6851Z" fill="#010101"/>
<path d="M40.197 12.7428C40.197 17.8107 38.4599 22.4721 35.5493 26.1254C37.1688 23.1031 38.0784 19.6317 38.0784 15.9582C38.0784 13.7308 37.7389 11.5864 37.1266 9.57232L37.1045 9.5072L39.953 9.49597C40.1127 10.5558 40.197 11.6381 40.197 12.7428V12.7428Z" fill="#010101"/>
<path d="M47.5758 9.4646C47.1831 18.1857 41.6259 25.5461 33.93 28.5033C33.8879 28.5145 33.8457 28.5258 33.7925 28.5258C39.5716 24.7019 43.3718 18.1004 43.3718 10.6008C43.3718 10.2258 43.3607 9.85081 43.3407 9.48705L47.5758 9.4646V9.4646Z" fill="#010101"/>
<path d="M40.1971 12.7429C40.1971 11.6404 40.1128 10.5581 39.9531 9.49601L37.1046 9.50724L37.1267 9.57236C37.7413 11.5865 38.0785 13.7286 38.0785 15.9583C38.0785 19.634 37.1689 23.1054 35.5494 26.1254C38.46 22.4722 40.1971 17.8107 40.1971 12.7429V12.7429ZM44.9601 22.9212C44.9601 35.3495 35.0103 45.4201 22.7312 45.4201C10.452 45.4201 0.5 35.3495 0.5 22.9212C0.5 10.493 10.452 0.422363 22.7312 0.422363C29.0516 0.422363 34.7663 3.0899 38.8106 7.38758H49.7232C49.7232 12.5632 47.9129 17.3077 44.8847 21.0149C44.9268 21.6481 44.9579 22.2791 44.9579 22.9212H44.9601ZM29.6106 9.52969C32.2683 13.1089 33.8456 17.5547 33.8456 22.3868C33.8456 24.5828 33.5173 26.6935 32.9139 28.6874C32.3526 28.7727 31.7803 28.8154 31.199 28.8154C26.5203 28.8154 22.4561 26.1366 20.4129 22.2162L20.3485 22.1735C18.8245 18.5203 15.2572 15.9605 11.0865 15.9605C8.77929 15.9605 6.64069 16.7531 4.94801 18.0824C8.27126 19.744 10.5585 23.2042 10.5585 27.2099C10.5585 34.0135 16.0092 39.5304 22.7312 39.5304C29.0826 39.5304 34.3004 34.6018 34.8506 28.3237L34.8728 28.2496C34.5666 28.3461 34.2472 28.4314 33.9299 28.5078C41.6258 25.5506 47.183 18.1902 47.5757 9.46907H47.6067L47.5846 9.34108C47.5846 9.38374 47.5846 9.42641 47.5735 9.46907L43.3384 9.49152C43.3606 9.85528 43.3695 10.2303 43.3695 10.6052C43.3695 18.1049 39.5693 24.7041 33.7902 28.5302C33.7591 28.5415 33.7258 28.5527 33.6948 28.5527C33.5351 28.5954 33.3775 28.6268 33.2178 28.638C34.9637 25.5304 35.9598 21.931 35.9598 18.1071C35.9598 15.0219 35.3143 12.0962 34.1607 9.4511L34.1829 9.5252L29.6106 9.53643V9.52969Z" fill="#4A93CF"/>
<path d="M33.8459 22.3868C33.8459 17.5547 32.2686 13.1088 29.6108 9.52966L34.1831 9.51843L34.1609 9.44434C35.3145 12.0917 35.9601 15.0152 35.9601 18.1003C35.9601 21.9243 34.964 25.5259 33.2181 28.6313C33.1116 28.6627 33.0162 28.6739 32.9119 28.6851C33.5153 26.6912 33.8437 24.5806 33.8437 22.3846L33.8459 22.3868Z" fill="#010101"/>
<path d="M12.6749 21.3135C13.2593 21.3135 13.7331 20.834 13.7331 20.2424C13.7331 19.6509 13.2593 19.1714 12.6749 19.1714C12.0905 19.1714 11.6167 19.6509 11.6167 20.2424C11.6167 20.834 12.0905 21.3135 12.6749 21.3135Z" fill="#010101"/>
<path d="M13.7332 20.2424C13.7332 19.6542 13.2562 19.1714 12.675 19.1714C12.0938 19.1714 11.6168 19.6542 11.6168 20.2424C11.6168 20.8307 12.0938 21.3135 12.675 21.3135C13.2562 21.3135 13.7332 20.8307 13.7332 20.2424V20.2424ZM12.675 18.1003C13.8397 18.1003 14.7914 19.0636 14.7914 20.2424C14.7914 21.4213 13.8397 22.3846 12.675 22.3846C11.5103 22.3846 10.5586 21.4213 10.5586 20.2424C10.5586 19.0636 11.5103 18.1003 12.675 18.1003V18.1003Z" fill="#4A93CF"/>
<path d="M14.7915 20.2425C14.7915 19.0637 13.8398 18.1004 12.6751 18.1004C11.5104 18.1004 10.5587 19.0637 10.5587 20.2425C10.5587 21.4213 11.5104 22.3846 12.6751 22.3846C13.8398 22.3846 14.7915 21.4213 14.7915 20.2425V20.2425ZM31.1993 28.8132C31.7805 28.8132 32.3529 28.7705 32.9141 28.6852V28.6964L33.0628 28.8132C33.0938 28.802 33.116 28.7907 33.1471 28.7818C33.3157 28.7279 33.4754 28.674 33.644 28.6111L33.6129 28.6538L33.7083 28.5887C33.7815 28.5572 33.857 28.5348 33.9302 28.5033C34.2474 28.4292 34.5647 28.3417 34.873 28.2451L34.8508 28.3192C34.3007 34.5973 29.0829 39.526 22.7314 39.526C16.0095 39.526 10.5587 34.009 10.5587 27.2055C10.5587 23.1975 8.27149 19.7373 4.94824 18.078C6.64093 16.7487 8.77952 15.9561 11.0867 15.9561C15.2574 15.9561 18.8247 18.5158 20.3488 22.1691L20.4131 22.2117C22.4563 26.1322 26.5205 28.811 31.1993 28.811V28.8132Z" fill="#010101"/>
<path d="M50.7038 36.6788C51.1364 38.6076 52.503 39.4519 54.6992 39.4519C56.8955 39.4519 57.825 38.5762 57.825 37.1705C57.825 35.6078 56.911 34.9296 53.6654 34.1662C48.5031 32.9402 47.2252 31.0384 47.2252 28.4449C47.2252 25.0971 49.6988 22.8247 54.1912 22.8247C59.2293 22.8247 61.2348 25.5663 61.5077 28.3753H57.3747C57.1772 27.1942 56.5317 25.9099 54.0847 25.9099C52.4187 25.9099 51.4137 26.606 51.4137 27.9689C51.4137 29.3319 52.219 29.8461 55.2849 30.5646C60.8044 31.8804 62.0135 33.9596 62.0135 36.6653C62.0135 40.1726 59.3913 42.5775 54.3776 42.5775C49.3638 42.5775 47.0256 40.1771 46.5708 36.6766H50.7038V36.6788Z" fill="#F2F2F2"/>
<path d="M77.3541 37.6488C76.8638 40.0514 75.1933 42.6426 70.9494 42.6426C66.7055 42.6426 64.2363 39.5372 64.2363 35.2036C64.2363 30.87 66.8031 27.5558 71.138 27.5558C75.9409 27.5558 77.2764 31.0429 77.3541 32.6753H73.5028C73.2588 31.5009 72.6021 30.6791 71.0625 30.6791C69.2589 30.6791 68.2384 32.2779 68.2384 35.0734C68.2384 38.1428 69.3188 39.5417 71.047 39.5417C72.4025 39.5417 73.1279 38.7311 73.4806 37.6488H77.3563H77.3541Z" fill="#F2F2F2"/>
<path d="M83.7191 21.976V29.5923C84.3447 28.6583 85.4983 27.5558 87.7988 27.5558C90.4543 27.5558 92.5707 29.1477 92.5707 33.057V42.308H88.6507V33.6543C88.6507 31.7794 87.9941 30.7824 86.3391 30.7824C84.1473 30.7824 83.7169 32.4328 83.7169 34.658V42.308H79.7725V21.976H83.7169H83.7191Z" fill="#F2F2F2"/>
<path d="M109.376 35.0711C109.376 39.4339 106.795 42.6426 102.283 42.6426C97.7708 42.6426 95.2861 39.4519 95.2861 35.1475C95.2861 30.843 97.9438 27.5558 102.47 27.5558C106.662 27.5558 109.376 30.5511 109.376 35.0711V35.0711ZM99.2904 35.0981C99.2904 37.8734 100.471 39.517 102.37 39.517C104.269 39.517 105.373 37.8711 105.373 35.1228C105.373 32.105 104.28 30.6791 102.314 30.6791C100.484 30.6791 99.2904 32.0511 99.2904 35.0981V35.0981Z" fill="#F2F2F2"/>
<path d="M112.084 42.308V21.976H116.028V42.308H112.084Z" fill="#F2F2F2"/>
<path d="M119.571 21.976H123.516V25.5372H119.571V21.976ZM119.571 27.8903H123.516V42.308H119.571V27.8903Z" fill="#F2F2F2"/>
<path d="M129.827 37.9744C130.125 39.1241 131.052 39.7685 132.525 39.7685C133.998 39.7685 134.513 39.2386 134.513 38.3651C134.513 37.44 133.9 37.0763 131.859 36.5688C127.218 35.4102 126.46 33.9574 126.46 31.9231C126.46 29.8888 127.939 27.5558 132.237 27.5558C136.534 27.5558 138.02 29.9426 138.142 31.8961H134.391C134.264 31.364 133.914 30.3558 132.059 30.3558C130.755 30.3558 130.333 30.9396 130.333 31.5885C130.333 32.307 130.775 32.6528 133.088 33.1985C137.84 34.3167 138.513 35.967 138.513 38.08C138.513 40.4668 136.718 42.6404 132.374 42.6404C128.03 42.6404 126.264 40.5274 125.952 37.9722H129.827V37.9744Z" fill="#F2F2F2"/>
<path d="M139.568 27.8903H141.765V23.9856H145.709V27.8903H148.5V30.8924H145.709V38.0081C145.709 39.1016 146.04 39.5282 147.215 39.5282C147.435 39.5282 147.819 39.526 148.114 39.4833V42.2294C147.331 42.4989 146.259 42.5056 145.463 42.5056C142.683 42.5056 141.765 41.0012 141.765 38.4796V30.8947H139.568V27.8926V27.8903Z" fill="#F2F2F2"/>
</g>
<defs>
<clipPath id="clip0_1_1038">
<rect width="148" height="45" fill="white" transform="translate(0.5 0.422363)"/>
</clipPath>
</defs>
</svg>
