<svg width="21" height="16" viewBox="0 0 21 16" fill="none" xmlns="http://www.w3.org/2000/svg">
<path d="M20.8651 3.89009C20.8651 2.16513 19.5073 0.777505 17.8295 0.777505C15.557 0.678225 13.2393 0.639893 10.8708 0.639893H10.1324C7.76959 0.639893 5.44781 0.678225 3.17526 0.777889C1.50161 0.777889 0.143822 2.17318 0.143822 3.89814C0.0412703 5.26238 -0.0022118 6.62701 0.000249451 7.99164C-0.00385263 9.35627 0.0426376 10.7222 0.13972 12.0894C0.13972 13.8143 1.49751 15.2134 3.17116 15.2134C5.55857 15.3169 8.00751 15.3629 10.4975 15.3591C12.9915 15.3668 15.4336 15.3182 17.8238 15.2134C19.5015 15.2134 20.8593 13.8143 20.8593 12.0894C20.9578 10.7209 21.0029 9.35627 20.9988 7.98781C21.0081 6.62318 20.9635 5.25727 20.8651 3.89009ZM8.49156 11.752V4.21975L14.4396 7.98398L8.49156 11.752Z" fill="#F2F2F2"/>
</svg>
