<svg width="22" height="15" viewBox="0 0 22 15" fill="none" xmlns="http://www.w3.org/2000/svg">
<path d="M21.3651 3.31257C21.3651 1.58762 20.0073 0.199991 18.3295 0.199991C16.057 0.10071 13.7393 0.0623779 11.3708 0.0623779H10.6324C8.26959 0.0623779 5.94781 0.10071 3.67526 0.200374C2.00161 0.200374 0.643822 1.59567 0.643822 3.32062C0.54127 4.68487 0.497788 6.0495 0.500249 7.41413C0.496147 8.77876 0.542638 10.1447 0.63972 11.5119C0.63972 13.2368 1.99751 14.6359 3.67116 14.6359C6.05857 14.7394 8.50751 14.7854 10.9975 14.7816C13.4915 14.7893 15.9336 14.7407 18.3238 14.6359C20.0015 14.6359 21.3593 13.2368 21.3593 11.5119C21.4578 10.1434 21.5029 8.77876 21.4988 7.41029C21.5081 6.04567 21.4635 4.67976 21.3651 3.31257ZM8.99156 11.1745V3.64223L14.9396 7.40646L8.99156 11.1745Z" fill="#F2F2F2"/>
</svg>
