<svg width="148" height="45" viewBox="0 0 148 45" fill="none" xmlns="http://www.w3.org/2000/svg">
<g clip-path="url(#clip0_1_3446)">
<path d="M33.2082 28.1663L33.1128 28.2314L33.1439 28.1887C33.166 28.1775 33.186 28.1663 33.2082 28.1663V28.1663Z" fill="#010101"/>
<path d="M33.4299 28.0809C33.3566 28.1123 33.2812 28.1347 33.208 28.1662C33.2391 28.1437 33.2723 28.1347 33.2923 28.1011C33.3456 28.1011 33.3877 28.0898 33.4299 28.0786V28.0809Z" fill="#010101"/>
<path d="M33.2924 28.1033C33.2703 28.1347 33.2392 28.1459 33.2081 28.1684C33.186 28.1684 33.166 28.1796 33.1438 28.1908L33.197 28.1257C33.2281 28.1257 33.2614 28.1145 33.2924 28.1033V28.1033Z" fill="#010101"/>
<path d="M32.7199 28.2089C32.8797 28.1976 33.0372 28.1662 33.1969 28.1235L33.1437 28.1887C32.9751 28.2538 32.8153 28.3054 32.6467 28.3593C32.6778 28.3054 32.7 28.2627 32.7199 28.2089V28.2089Z" fill="#010101"/>
<path d="M32.4138 28.2629C32.5203 28.2516 32.6157 28.2404 32.72 28.209C32.6978 28.2629 32.6778 28.3055 32.6468 28.3594C32.6157 28.3707 32.5935 28.3819 32.5625 28.3909L32.4138 28.2741V28.2629V28.2629Z" fill="#010101"/>
<path d="M39.697 12.3206C39.697 17.3884 37.9599 22.0499 35.0493 25.7031C36.6688 22.6808 37.5784 19.2095 37.5784 15.536C37.5784 13.3085 37.2389 11.1642 36.6266 9.15007L36.6045 9.08496L39.453 9.07373C39.6127 10.1336 39.697 11.2158 39.697 12.3206V12.3206Z" fill="#010101"/>
<path d="M47.0758 9.04224C46.6831 17.7634 41.1259 25.1238 33.43 28.081C33.3879 28.0922 33.3457 28.1034 33.2925 28.1034C39.0716 24.2795 42.8718 17.678 42.8718 10.1784C42.8718 9.80343 42.8607 9.42844 42.8407 9.06469L47.0758 9.04224V9.04224Z" fill="#010101"/>
<path d="M39.6971 12.3205C39.6971 11.218 39.6128 10.1357 39.4531 9.07365L36.6046 9.08488L36.6267 9.14999C37.2413 11.1641 37.5785 13.3062 37.5785 15.5359C37.5785 19.2116 36.6689 22.683 35.0494 25.7031C37.96 22.0498 39.6971 17.3884 39.6971 12.3205V12.3205ZM44.4601 22.4989C44.4601 34.9271 34.5103 44.9978 22.2312 44.9978C9.952 44.9978 0 34.9271 0 22.4989C0 10.0706 9.952 0 22.2312 0C28.5516 0 34.2663 2.66753 38.3106 6.96522H49.2232C49.2232 12.1409 47.4129 16.8854 44.3847 20.5925C44.4268 21.2257 44.4579 21.8567 44.4579 22.4989H44.4601ZM29.1106 9.10733C31.7683 12.6865 33.3456 17.1324 33.3456 21.9645C33.3456 24.1605 33.0173 26.2711 32.4139 28.2651C31.8526 28.3504 31.2803 28.393 30.699 28.393C26.0203 28.393 21.9561 25.7143 19.9129 21.7938L19.8485 21.7512C18.3245 18.0979 14.7572 15.5381 10.5865 15.5381C8.27929 15.5381 6.14069 16.3308 4.44801 17.66C7.77126 19.3216 10.0585 22.7818 10.0585 26.7876C10.0585 33.5911 15.5092 39.1081 22.2312 39.1081C28.5826 39.1081 33.8004 34.1794 34.3506 27.9013L34.3728 27.8272C34.0666 27.9238 33.7472 28.0091 33.4299 28.0854C41.1258 25.1282 46.683 17.7678 47.0757 9.0467H47.1067L47.0846 8.91872C47.0846 8.96138 47.0846 9.00404 47.0735 9.0467L42.8384 9.06916C42.8606 9.43291 42.8695 9.80789 42.8695 10.1829C42.8695 17.6825 39.0693 24.2817 33.2902 28.1079C33.2591 28.1191 33.2258 28.1303 33.1948 28.1303C33.0351 28.173 32.8775 28.2044 32.7178 28.2157C34.4637 25.108 35.4598 21.5087 35.4598 17.6847C35.4598 14.5996 34.8143 11.6738 33.6607 9.02874L33.6829 9.10284L29.1106 9.11407V9.10733Z" fill="#4A93CF"/>
<path d="M33.3456 21.9644C33.3456 17.1323 31.7683 12.6865 29.1106 9.1073L33.6828 9.09607L33.6607 9.02197C34.8143 11.6693 35.4598 14.5928 35.4598 17.678C35.4598 21.5019 34.4637 25.1035 32.7178 28.2089C32.6113 28.2403 32.5159 28.2516 32.4117 28.2628C33.0151 26.2689 33.3434 24.1582 33.3434 21.9622L33.3456 21.9644Z" fill="#010101"/>
<path d="M12.1749 20.8911C12.7593 20.8911 13.2331 20.4116 13.2331 19.8201C13.2331 19.2286 12.7593 18.749 12.1749 18.749C11.5905 18.749 11.1167 19.2286 11.1167 19.8201C11.1167 20.4116 11.5905 20.8911 12.1749 20.8911Z" fill="#010101"/>
<path d="M13.2332 19.8201C13.2332 19.2318 12.7562 18.749 12.175 18.749C11.5938 18.749 11.1168 19.2318 11.1168 19.8201C11.1168 20.4084 11.5938 20.8911 12.175 20.8911C12.7562 20.8911 13.2332 20.4084 13.2332 19.8201V19.8201ZM12.175 17.678C13.3397 17.678 14.2914 18.6413 14.2914 19.8201C14.2914 20.9989 13.3397 21.9622 12.175 21.9622C11.0103 21.9622 10.0586 20.9989 10.0586 19.8201C10.0586 18.6413 11.0103 17.678 12.175 17.678V17.678Z" fill="#4A93CF"/>
<path d="M14.2913 19.8202C14.2913 18.6413 13.3396 17.678 12.1749 17.678C11.0102 17.678 10.0585 18.6413 10.0585 19.8202C10.0585 20.999 11.0102 21.9623 12.1749 21.9623C13.3396 21.9623 14.2913 20.999 14.2913 19.8202V19.8202ZM30.699 28.3908C31.2803 28.3908 31.8526 28.3482 32.4139 28.2628V28.2741L32.5625 28.3908C32.5936 28.3796 32.6158 28.3684 32.6468 28.3594C32.8154 28.3055 32.9752 28.2516 33.1438 28.1887L33.1127 28.2314L33.2081 28.1663C33.2813 28.1349 33.3567 28.1124 33.4299 28.081C33.7472 28.0069 34.0644 27.9193 34.3728 27.8227L34.3506 27.8968C33.8004 34.175 28.5826 39.1036 22.2312 39.1036C15.5092 39.1036 10.0585 33.5867 10.0585 26.7831C10.0585 22.7751 7.77125 19.3149 4.448 17.6556C6.14068 16.3263 8.27928 15.5337 10.5865 15.5337C14.7572 15.5337 18.3245 18.0934 19.8485 21.7467L19.9129 21.7894C21.9561 25.7098 26.0203 28.3886 30.699 28.3886V28.3908Z" fill="#010101"/>
<path d="M50.2038 36.2564C50.6364 38.1852 52.003 39.0295 54.1992 39.0295C56.3955 39.0295 57.325 38.1538 57.325 36.7482C57.325 35.1854 56.411 34.5073 53.1654 33.7438C48.0031 32.5179 46.7252 30.616 46.7252 28.0226C46.7252 24.6747 49.1988 22.4023 53.6912 22.4023C58.7293 22.4023 60.7348 25.144 61.0077 27.953H56.8747C56.6772 26.7719 56.0317 25.4875 53.5847 25.4875C51.9187 25.4875 50.9137 26.1836 50.9137 27.5465C50.9137 28.9095 51.719 29.4237 54.7849 30.1422C60.3044 31.458 61.5135 33.5373 61.5135 36.243C61.5135 39.7503 58.8913 42.1551 53.8776 42.1551C48.8638 42.1551 46.5256 39.7548 46.0708 36.2542H50.2038V36.2564Z" fill="#F2F2F2"/>
<path d="M76.8541 37.2264C76.3638 39.6289 74.6933 42.2201 70.4494 42.2201C66.2055 42.2201 63.7363 39.1147 63.7363 34.7811C63.7363 30.4475 66.3031 27.1333 70.638 27.1333C75.4409 27.1333 76.7764 30.6204 76.8541 32.2528H73.0028C72.7588 31.0785 72.1021 30.2566 70.5625 30.2566C68.7589 30.2566 67.7384 31.8554 67.7384 34.6509C67.7384 37.7203 68.8188 39.1192 70.547 39.1192C71.9025 39.1192 72.6279 38.3086 72.9806 37.2264H76.8563H76.8541Z" fill="#F2F2F2"/>
<path d="M83.2189 21.5535V29.1699C83.8445 28.2358 84.9981 27.1333 87.2986 27.1333C89.9541 27.1333 92.0705 28.7253 92.0705 32.6345V41.8855H88.1505V33.2318C88.1505 31.3569 87.4938 30.3599 85.8389 30.3599C83.647 30.3599 83.2166 32.0103 83.2166 34.2355V41.8855H79.2722V21.5535H83.2166H83.2189Z" fill="#F2F2F2"/>
<path d="M108.875 34.6486C108.875 39.0115 106.295 42.2201 101.783 42.2201C97.2706 42.2201 94.7859 39.0294 94.7859 34.725C94.7859 30.4206 97.4436 27.1333 101.969 27.1333C106.162 27.1333 108.875 30.1287 108.875 34.6486V34.6486ZM98.7902 34.6756C98.7902 37.4509 99.9704 39.0945 101.869 39.0945C103.768 39.0945 104.873 37.4487 104.873 34.7003C104.873 31.6825 103.78 30.2566 101.814 30.2566C99.9837 30.2566 98.7902 31.6286 98.7902 34.6756V34.6756Z" fill="#F2F2F2"/>
<path d="M111.584 41.8855V21.5535H115.528V41.8855H111.584Z" fill="#F2F2F2"/>
<path d="M119.071 21.5535H123.016V25.1147H119.071V21.5535ZM119.071 27.4678H123.016V41.8855H119.071V27.4678Z" fill="#F2F2F2"/>
<path d="M129.327 37.5519C129.625 38.7016 130.552 39.346 132.025 39.346C133.498 39.346 134.013 38.8161 134.013 37.9426C134.013 37.0175 133.4 36.6538 131.359 36.1463C126.718 34.9877 125.96 33.5349 125.96 31.5006C125.96 29.4663 127.439 27.1333 131.737 27.1333C136.034 27.1333 137.52 29.5202 137.642 31.4737H133.891C133.764 30.9415 133.414 29.9333 131.559 29.9333C130.255 29.9333 129.833 30.5171 129.833 31.166C129.833 31.8846 130.275 32.2304 132.588 32.776C137.34 33.8942 138.013 35.5446 138.013 37.6575C138.013 40.0443 136.218 42.2179 131.874 42.2179C127.53 42.2179 125.764 40.105 125.452 37.5497H129.327V37.5519Z" fill="#F2F2F2"/>
<path d="M139.069 27.4677H141.265V23.563H145.209V27.4677H148V30.4698H145.209V37.5855C145.209 38.679 145.54 39.1056 146.716 39.1056C146.935 39.1056 147.319 39.1034 147.614 39.0607V41.8068C146.831 42.0763 145.759 42.083 144.963 42.083C142.183 42.083 141.265 40.5786 141.265 38.057V30.4721H139.069V27.47V27.4677Z" fill="#F2F2F2"/>
</g>
<defs>
<clipPath id="clip0_1_3446">
<rect width="148" height="45" fill="white"/>
</clipPath>
</defs>
</svg>
