<svg width="134" height="41" viewBox="0 0 134 41" fill="none" xmlns="http://www.w3.org/2000/svg">
<g clip-path="url(#clip0_509_15707)">
<path d="M30.0668 25.6626L29.9804 25.7219L30.0085 25.6831C30.0286 25.6728 30.0467 25.6626 30.0668 25.6626Z" fill="#181048"/>
<path d="M30.2677 25.5848C30.2014 25.6135 30.1331 25.634 30.0668 25.6626C30.0949 25.6421 30.125 25.6339 30.1431 25.6033C30.1913 25.6033 30.2295 25.593 30.2677 25.5828V25.5848Z" fill="#181048"/>
<path d="M30.1431 25.6053C30.123 25.6339 30.0949 25.6442 30.0668 25.6646C30.0467 25.6646 30.0286 25.6749 30.0085 25.6851L30.0568 25.6258C30.0849 25.6258 30.115 25.6155 30.1431 25.6053Z" fill="#181048"/>
<path d="M29.6249 25.7015C29.7695 25.6912 29.9121 25.6626 30.0568 25.6237L30.0085 25.6831C29.8559 25.7424 29.7113 25.7894 29.5586 25.8385C29.5867 25.7894 29.6068 25.7506 29.6249 25.7015Z" fill="#181048"/>
<path d="M29.3477 25.7506C29.4441 25.7403 29.5305 25.7301 29.6249 25.7015C29.6048 25.7506 29.5867 25.7894 29.5586 25.8385C29.5305 25.8488 29.5104 25.859 29.4823 25.8672L29.3477 25.7608V25.7506Z" fill="#181048"/>
<path d="M35.942 11.2253C35.942 15.8427 34.3692 20.0898 31.7339 23.4183C33.2002 20.6647 34.0237 17.5019 34.0237 14.1549C34.0237 12.1255 33.7164 10.1717 33.1621 8.33666L33.142 8.27733L35.721 8.2671C35.8656 9.23272 35.942 10.2188 35.942 11.2253Z" fill="#181048"/>
<path d="M42.6226 8.23846C42.2671 16.1844 37.2355 22.8905 30.2677 25.5848C30.2295 25.5951 30.1913 25.6053 30.1431 25.6053C35.3755 22.1213 38.8163 16.1066 38.8163 9.27364C38.8163 8.93199 38.8062 8.59034 38.7882 8.25892L42.6226 8.23846Z" fill="#181048"/>
<path d="M35.942 11.2253C35.942 10.2208 35.8656 9.23477 35.721 8.2671L33.142 8.27733L33.1621 8.33666C33.7184 10.1717 34.0237 12.1234 34.0237 14.1549C34.0237 17.5039 33.2002 20.6667 31.7339 23.4183C34.3692 20.0898 35.942 15.8427 35.942 11.2253ZM40.2544 20.499C40.2544 31.8225 31.2458 40.998 20.1282 40.998C9.0106 40.998 0 31.8225 0 20.499C0 9.17544 9.0106 0 20.1282 0C25.8507 0 31.0249 2.43042 34.6866 6.34609H44.5669C44.5669 11.0617 42.9279 15.3845 40.1861 18.7621C40.2243 19.339 40.2524 19.9139 40.2524 20.499H40.2544ZM26.3569 8.29779C28.7632 11.5588 30.1913 15.6095 30.1913 20.0121C30.1913 22.0129 29.8941 23.9359 29.3477 25.7526C28.8395 25.8303 28.3213 25.8692 27.7951 25.8692C23.5589 25.8692 19.8792 23.4286 18.0292 19.8566L17.971 19.8177C16.5911 16.4892 13.3612 14.157 9.58506 14.157C7.49611 14.157 5.55982 14.8791 4.02725 16.0903C7.03614 17.6042 9.10701 20.7568 9.10701 24.4065C9.10701 30.6053 14.0422 35.6318 20.1282 35.6318C25.8789 35.6318 30.6031 31.1413 31.1012 25.4212L31.1213 25.3537C30.8441 25.4416 30.5549 25.5194 30.2677 25.5889C37.2355 22.8946 42.2671 16.1885 42.6226 8.24255H42.6507L42.6306 8.12594C42.6306 8.16481 42.6306 8.20368 42.6206 8.24255L38.7861 8.26301C38.8062 8.59443 38.8143 8.93608 38.8143 9.27773C38.8143 16.1107 35.3735 22.1233 30.1411 25.6094C30.113 25.6196 30.0829 25.6299 30.0547 25.6299C29.9101 25.6687 29.7675 25.6974 29.6229 25.7076C31.2037 22.8762 32.1055 19.5968 32.1055 16.1128C32.1055 13.3018 31.521 10.6361 30.4765 8.22619L30.4966 8.2937L26.3569 8.30393V8.29779Z" fill="#4A93CF"/>
<path d="M30.1913 20.0121C30.1913 15.6095 28.7632 11.5588 26.3569 8.29779L30.4966 8.28756L30.4765 8.22005C31.521 10.6321 32.1055 13.2957 32.1055 16.1066C32.1055 19.5906 31.2037 22.8721 29.6229 25.7015C29.5265 25.7301 29.4401 25.7403 29.3457 25.7506C29.892 23.9339 30.1893 22.0108 30.1893 20.01L30.1913 20.0121Z" fill="#181048"/>
<path d="M11.0232 19.0342C11.5524 19.0342 11.9813 18.5973 11.9813 18.0583C11.9813 17.5194 11.5524 17.0825 11.0232 17.0825C10.4941 17.0825 10.0651 17.5194 10.0651 18.0583C10.0651 18.5973 10.4941 19.0342 11.0232 19.0342Z" fill="#181048"/>
<path d="M11.9813 18.0583C11.9813 17.5223 11.5495 17.0825 11.0232 17.0825C10.497 17.0825 10.0651 17.5223 10.0651 18.0583C10.0651 18.5943 10.497 19.0342 11.0232 19.0342C11.5495 19.0342 11.9813 18.5943 11.9813 18.0583ZM11.0232 16.1066C12.0777 16.1066 12.9394 16.9843 12.9394 18.0583C12.9394 19.1324 12.0777 20.01 11.0232 20.01C9.9687 20.01 9.10701 19.1324 9.10701 18.0583C9.10701 16.9843 9.9687 16.1066 11.0232 16.1066Z" fill="#4A93CF"/>
<path d="M12.9394 18.0583C12.9394 16.9843 12.0777 16.1066 11.0232 16.1066C9.9687 16.1066 9.10701 16.9843 9.10701 18.0583C9.10701 19.1324 9.9687 20.01 11.0232 20.01C12.0777 20.01 12.9394 19.1324 12.9394 18.0583ZM27.7951 25.8672C28.3213 25.8672 28.8395 25.8283 29.3477 25.7506V25.7608L29.4823 25.8672C29.5104 25.8569 29.5305 25.8467 29.5586 25.8385C29.7113 25.7894 29.8559 25.7403 30.0085 25.6831L29.9804 25.7219L30.0668 25.6626C30.1331 25.634 30.2014 25.6135 30.2677 25.5848C30.5549 25.5173 30.8421 25.4376 31.1213 25.3496L31.1012 25.4171C30.6031 31.1372 25.8789 35.6277 20.1282 35.6277C14.0422 35.6277 9.10701 30.6012 9.10701 24.4024C9.10701 20.7506 7.03614 17.598 4.02725 16.0862C5.55982 14.8751 7.49611 14.1529 9.58506 14.1529C13.3612 14.1529 16.5911 16.4851 17.971 19.8136L18.0292 19.8525C19.8792 23.4245 23.5589 25.8651 27.7951 25.8651V25.8672Z" fill="#181048"/>
<path d="M45.4549 33.0327C45.8466 34.79 47.0839 35.5592 49.0724 35.5592C51.0609 35.5592 51.9025 34.7614 51.9025 33.4807C51.9025 32.0568 51.075 31.439 48.1364 30.7434C43.4624 29.6264 42.3054 27.8936 42.3054 25.5307C42.3054 22.4804 44.545 20.41 48.6124 20.41C53.174 20.41 54.9898 22.908 55.2368 25.4673H51.4948C51.316 24.3912 50.7315 23.221 48.516 23.221C47.0076 23.221 46.0977 23.8552 46.0977 25.097C46.0977 26.3388 46.8268 26.8073 49.6027 27.4619C54.6001 28.6608 55.6948 30.5552 55.6948 33.0204C55.6948 36.2159 53.3206 38.407 48.7812 38.407C44.2417 38.407 42.1247 36.22 41.7129 33.0306H45.4549V33.0327Z" fill="#010101"/>
<path d="M69.5843 33.9164C69.1404 36.1055 67.6279 38.4663 63.7854 38.4663C59.943 38.4663 57.7074 35.637 57.7074 31.6886C57.7074 27.7402 60.0314 24.7205 63.9562 24.7205C68.3048 24.7205 69.514 27.8977 69.5843 29.385H66.0973C65.8764 28.315 65.2818 27.5663 63.8879 27.5663C62.2549 27.5663 61.3309 29.0229 61.3309 31.5699C61.3309 34.3665 62.3091 35.6411 63.8738 35.6411C65.1011 35.6411 65.7579 34.9025 66.0773 33.9164H69.5863H69.5843Z" fill="#010101"/>
<path d="M75.347 19.6367V26.5761C75.9134 25.725 76.9579 24.7205 79.0408 24.7205C81.4451 24.7205 83.3613 26.171 83.3613 29.7328V38.1615H79.8121V30.277C79.8121 28.5687 79.2175 27.6604 77.7191 27.6604C75.7346 27.6604 75.345 29.164 75.345 31.1914V38.1615H71.7737V19.6367H75.347Z" fill="#010101"/>
<path d="M98.5765 31.5679C98.5765 35.5429 96.2405 38.4663 92.155 38.4663C88.0695 38.4663 85.8198 35.5592 85.8198 31.6374C85.8198 27.7156 88.2261 24.7205 92.3237 24.7205C96.1199 24.7205 98.5765 27.4497 98.5765 31.5679ZM89.4454 31.5924C89.4454 34.121 90.5139 35.6186 92.2333 35.6186C93.9527 35.6186 94.9529 34.119 94.9529 31.6149C94.9529 28.8654 93.9627 27.5663 92.1831 27.5663C90.526 27.5663 89.4454 28.8162 89.4454 31.5924Z" fill="#010101"/>
<path d="M101.029 38.1615V19.6367H104.6V38.1615H101.029Z" fill="#010101"/>
<path d="M107.808 19.6367H111.379V22.8814H107.808V19.6367ZM107.808 25.0254H111.379V38.1615H107.808V25.0254Z" fill="#010101"/>
<path d="M117.094 34.2131C117.363 35.2605 118.203 35.8477 119.536 35.8477C120.87 35.8477 121.336 35.3649 121.336 34.5691C121.336 33.7262 120.782 33.3948 118.934 32.9324C114.732 31.8768 114.045 30.5531 114.045 28.6996C114.045 26.8461 115.384 24.7205 119.275 24.7205C123.166 24.7205 124.512 26.8952 124.622 28.6751H121.225C121.111 28.1902 120.794 27.2717 119.114 27.2717C117.933 27.2717 117.552 27.8036 117.552 28.3948C117.552 29.0495 117.951 29.3645 120.046 29.8617C124.349 30.8805 124.957 32.3841 124.957 34.3092C124.957 36.4839 123.333 38.4643 119.4 38.4643C115.467 38.4643 113.868 36.5392 113.585 34.211H117.094V34.2131Z" fill="#010101"/>
<path d="M125.914 25.0254H127.902V21.4677H131.473V25.0254H134V27.7606H131.473V34.2438C131.473 35.2401 131.773 35.6288 132.837 35.6288C133.036 35.6288 133.384 35.6267 133.651 35.5879V38.0899C132.942 38.3354 131.972 38.3415 131.25 38.3415C128.734 38.3415 127.902 36.9708 127.902 34.6734V27.7627H125.914V25.0254Z" fill="#010101"/>
</g>
<defs>
<clipPath id="clip0_509_15707">
<rect width="134" height="41" fill="white"/>
</clipPath>
</defs>
</svg>
