<svg width="134" height="42" viewBox="0 0 134 42" fill="none" xmlns="http://www.w3.org/2000/svg">
<g clip-path="url(#clip0_1_2794)">
<path d="M30.0667 26.1626L29.9803 26.2219L30.0084 26.1831C30.0285 26.1728 30.0466 26.1626 30.0667 26.1626Z" fill="#181048"/>
<path d="M30.2675 26.0848C30.2012 26.1135 30.133 26.134 30.0667 26.1626C30.0948 26.1421 30.1249 26.1339 30.143 26.1033C30.1912 26.1033 30.2294 26.093 30.2675 26.0828V26.0848Z" fill="#181048"/>
<path d="M30.143 26.1053C30.1229 26.1339 30.0948 26.1442 30.0667 26.1646C30.0466 26.1646 30.0285 26.1749 30.0084 26.1851L30.0566 26.1258C30.0847 26.1258 30.1149 26.1155 30.143 26.1053Z" fill="#181048"/>
<path d="M29.6248 26.2015C29.7694 26.1912 29.912 26.1626 30.0566 26.1237L30.0084 26.1831C29.8558 26.2424 29.7112 26.2894 29.5585 26.3385C29.5866 26.2894 29.6067 26.2506 29.6248 26.2015Z" fill="#181048"/>
<path d="M29.3476 26.2506C29.444 26.2403 29.5304 26.2301 29.6248 26.2015C29.6047 26.2506 29.5866 26.2894 29.5585 26.3385C29.5304 26.3488 29.5103 26.359 29.4822 26.3672L29.3476 26.2608V26.2506Z" fill="#181048"/>
<path d="M35.9418 11.7253C35.9418 16.3427 34.3691 20.5898 31.7338 23.9183C33.2001 21.1647 34.0236 18.0019 34.0236 14.6549C34.0236 12.6255 33.7163 10.6717 33.1619 8.83666L33.1418 8.77733L35.7209 8.7671C35.8655 9.73272 35.9418 10.7188 35.9418 11.7253Z" fill="#181048"/>
<path d="M42.6225 8.73846C42.2669 16.6844 37.2354 23.3905 30.2675 26.0848C30.2294 26.0951 30.1912 26.1053 30.143 26.1053C35.3754 22.6213 38.8161 16.6066 38.8161 9.77364C38.8161 9.43199 38.8061 9.09034 38.788 8.75892L42.6225 8.73846Z" fill="#181048"/>
<path d="M35.9418 11.7253C35.9418 10.7208 35.8655 9.73477 35.7209 8.7671L33.1418 8.77733L33.1619 8.83666C33.7183 10.6717 34.0236 12.6234 34.0236 14.6549C34.0236 18.0039 33.2001 21.1667 31.7338 23.9183C34.3691 20.5898 35.9418 16.3427 35.9418 11.7253ZM40.2543 20.999C40.2543 32.3225 31.2457 41.498 20.1281 41.498C9.01048 41.498 -0.00012207 32.3225 -0.00012207 20.999C-0.00012207 9.67544 9.01048 0.5 20.1281 0.5C25.8506 0.5 31.0248 2.93042 34.6865 6.84609H44.5668C44.5668 11.5617 42.9278 15.8845 40.186 19.2621C40.2242 19.839 40.2523 20.4139 40.2523 20.999H40.2543ZM26.3568 8.79779C28.7631 12.0588 30.1912 16.1095 30.1912 20.5121C30.1912 22.5129 29.8939 24.4359 29.3476 26.2526C28.8394 26.3303 28.3212 26.3692 27.7949 26.3692C23.5588 26.3692 19.879 23.9286 18.0291 20.3566L17.9709 20.3177C16.5909 16.9892 13.3611 14.657 9.58494 14.657C7.49599 14.657 5.55969 15.3791 4.02713 16.5903C7.03602 18.1042 9.10689 21.2568 9.10689 24.9065C9.10689 31.1053 14.042 36.1318 20.1281 36.1318C25.8787 36.1318 30.603 31.6413 31.1011 25.9212L31.1212 25.8537C30.844 25.9416 30.5548 26.0194 30.2675 26.0889C37.2354 23.3946 42.2669 16.6885 42.6225 8.74255H42.6506L42.6305 8.62594C42.6305 8.66481 42.6305 8.70368 42.6204 8.74255L38.786 8.76301C38.8061 9.09443 38.8141 9.43608 38.8141 9.77773C38.8141 16.6107 35.3734 22.6233 30.141 26.1094C30.1129 26.1196 30.0827 26.1299 30.0546 26.1299C29.91 26.1687 29.7674 26.1974 29.6228 26.2076C31.2035 23.3762 32.1054 20.0968 32.1054 16.6128C32.1054 13.8018 31.5209 11.1361 30.4764 8.72619L30.4965 8.7937L26.3568 8.80393V8.79779Z" fill="#4A93CF"/>
<path d="M30.1912 20.5121C30.1912 16.1095 28.7631 12.0588 26.3568 8.79779L30.4965 8.78756L30.4764 8.72005C31.5209 11.1321 32.1054 13.7957 32.1054 16.6066C32.1054 20.0906 31.2035 23.3721 29.6228 26.2015C29.5264 26.2301 29.44 26.2403 29.3456 26.2506C29.8919 24.4339 30.1892 22.5108 30.1892 20.51L30.1912 20.5121Z" fill="#181048"/>
<path d="M11.0231 19.5342C11.5522 19.5342 11.9812 19.0973 11.9812 18.5583C11.9812 18.0194 11.5522 17.5825 11.0231 17.5825C10.4939 17.5825 10.065 18.0194 10.065 18.5583C10.065 19.0973 10.4939 19.5342 11.0231 19.5342Z" fill="#181048"/>
<path d="M11.9812 18.5583C11.9812 18.0223 11.5494 17.5825 11.0231 17.5825C10.4968 17.5825 10.065 18.0223 10.065 18.5583C10.065 19.0943 10.4968 19.5342 11.0231 19.5342C11.5494 19.5342 11.9812 19.0943 11.9812 18.5583ZM11.0231 16.6066C12.0776 16.6066 12.9393 17.4843 12.9393 18.5583C12.9393 19.6324 12.0776 20.51 11.0231 20.51C9.96858 20.51 9.10689 19.6324 9.10689 18.5583C9.10689 17.4843 9.96858 16.6066 11.0231 16.6066Z" fill="#4A93CF"/>
<path d="M12.9393 18.5583C12.9393 17.4843 12.0776 16.6066 11.0231 16.6066C9.96858 16.6066 9.10689 17.4843 9.10689 18.5583C9.10689 19.6324 9.96858 20.51 11.0231 20.51C12.0776 20.51 12.9393 19.6324 12.9393 18.5583ZM27.7949 26.3672C28.3212 26.3672 28.8394 26.3283 29.3476 26.2506V26.2608L29.4822 26.3672C29.5103 26.3569 29.5304 26.3467 29.5585 26.3385C29.7112 26.2894 29.8558 26.2403 30.0084 26.1831L29.9803 26.2219L30.0667 26.1626C30.133 26.134 30.2012 26.1135 30.2675 26.0848C30.5548 26.0173 30.842 25.9376 31.1212 25.8496L31.1011 25.9171C30.603 31.6372 25.8787 36.1277 20.1281 36.1277C14.042 36.1277 9.10689 31.1012 9.10689 24.9024C9.10689 21.2506 7.03602 18.098 4.02713 16.5862C5.55969 15.3751 7.49599 14.6529 9.58494 14.6529C13.3611 14.6529 16.5909 16.9851 17.9709 20.3136L18.0291 20.3525C19.879 23.9245 23.5588 26.3651 27.7949 26.3651V26.3672Z" fill="#181048"/>
<path d="M45.4544 33.5336C45.846 35.291 47.0833 36.0602 49.0719 36.0602C51.0604 36.0602 51.902 35.2623 51.902 33.9817C51.902 32.5578 51.0744 31.94 48.1359 31.2444C43.4618 30.1274 42.3049 28.3946 42.3049 26.0317C42.3049 22.9814 44.5445 20.911 48.6119 20.911C53.1734 20.911 54.9892 23.4089 55.2363 25.9682H51.4942C51.3155 24.8921 50.731 23.7219 48.5155 23.7219C47.007 23.7219 46.0971 24.3561 46.0971 25.598C46.0971 26.8398 46.8262 27.3082 49.6021 27.9629C54.5995 29.1617 55.6942 31.0562 55.6942 33.5214C55.6942 36.7169 53.3201 38.908 48.7806 38.908C44.2412 38.908 42.1241 36.721 41.7123 33.5316H45.4544V33.5336Z" fill="#010101"/>
<path d="M69.5837 34.4174C69.1398 36.6064 67.6273 38.9673 63.7849 38.9673C59.9424 38.9673 57.7069 36.1379 57.7069 32.1895C57.7069 28.2411 60.0308 25.2215 63.9556 25.2215C68.3042 25.2215 69.5134 28.3987 69.5837 29.886H66.0968C65.8758 28.816 65.2813 28.0672 63.8873 28.0672C62.2543 28.0672 61.3304 29.5239 61.3304 32.0709C61.3304 34.8675 62.3086 36.142 63.8733 36.142C65.1005 36.142 65.7573 35.4035 66.0767 34.4174H69.5857H69.5837Z" fill="#010101"/>
<path d="M75.3464 20.1377V27.0771C75.9128 26.226 76.9573 25.2215 79.0402 25.2215C81.4445 25.2215 83.3607 26.672 83.3607 30.2337V38.6625H79.8115V30.7779C79.8115 29.0697 79.217 28.1613 77.7186 28.1613C75.7341 28.1613 75.3444 29.665 75.3444 31.6924V38.6625H71.7731V20.1377H75.3464Z" fill="#010101"/>
<path d="M98.5759 32.0688C98.5759 36.0438 96.2399 38.9673 92.1544 38.9673C88.0689 38.9673 85.8193 36.0602 85.8193 32.1384C85.8193 28.2166 88.2256 25.2215 92.3231 25.2215C96.1194 25.2215 98.5759 27.9506 98.5759 32.0688ZM89.4448 32.0934C89.4448 34.622 90.5134 36.1195 92.2327 36.1195C93.9521 36.1195 94.9524 34.62 94.9524 32.1159C94.9524 29.3663 93.9622 28.0672 92.1825 28.0672C90.5254 28.0672 89.4448 29.3172 89.4448 32.0934Z" fill="#010101"/>
<path d="M101.028 38.6625V20.1377H104.6V38.6625H101.028Z" fill="#010101"/>
<path d="M107.807 20.1377H111.379V23.3823H107.807V20.1377ZM107.807 25.5263H111.379V38.6625H107.807V25.5263Z" fill="#010101"/>
<path d="M117.093 34.7141C117.362 35.7615 118.202 36.3487 119.536 36.3487C120.869 36.3487 121.335 35.8659 121.335 35.07C121.335 34.2272 120.781 33.8957 118.933 33.4334C114.731 32.3778 114.044 31.0541 114.044 29.2006C114.044 27.3471 115.384 25.2215 119.275 25.2215C123.165 25.2215 124.511 27.3962 124.621 29.1761H121.225C121.11 28.6912 120.793 27.7726 119.114 27.7726C117.933 27.7726 117.551 28.3046 117.551 28.8958C117.551 29.5504 117.951 29.8655 120.046 30.3626C124.348 31.3814 124.957 32.8851 124.957 34.8102C124.957 36.9849 123.332 38.9652 119.399 38.9652C115.466 38.9652 113.867 37.0401 113.584 34.712H117.093V34.7141Z" fill="#010101"/>
<path d="M125.913 25.5264H127.902V21.9687H131.473V25.5264H134V28.2616H131.473V34.7448C131.473 35.7411 131.772 36.1298 132.837 36.1298C133.036 36.1298 133.383 36.1277 133.65 36.0888V38.5909C132.941 38.8364 131.971 38.8425 131.25 38.8425C128.733 38.8425 127.902 37.4718 127.902 35.1744V28.2636H125.913V25.5264Z" fill="#010101"/>
</g>
<defs>
<clipPath id="clip0_1_2794">
<rect width="134" height="41" fill="white" transform="translate(-0.00012207 0.5)"/>
</clipPath>
</defs>
</svg>
