<svg width="134" height="42" viewBox="0 0 134 42" fill="none" xmlns="http://www.w3.org/2000/svg">
<g clip-path="url(#clip0_1_1960)">
<path d="M30.0668 26.1626L29.9804 26.2219L30.0085 26.1831C30.0286 26.1728 30.0467 26.1626 30.0668 26.1626Z" fill="#181048"/>
<path d="M30.2677 26.0848C30.2014 26.1135 30.1331 26.134 30.0668 26.1626C30.0949 26.1421 30.125 26.1339 30.1431 26.1033C30.1913 26.1033 30.2295 26.093 30.2677 26.0828V26.0848Z" fill="#181048"/>
<path d="M30.1431 26.1053C30.123 26.1339 30.0949 26.1442 30.0668 26.1646C30.0467 26.1646 30.0286 26.1749 30.0085 26.1851L30.0568 26.1258C30.0849 26.1258 30.115 26.1155 30.1431 26.1053Z" fill="#181048"/>
<path d="M29.6249 26.2015C29.7695 26.1912 29.9121 26.1626 30.0568 26.1237L30.0085 26.1831C29.8559 26.2424 29.7113 26.2894 29.5586 26.3385C29.5867 26.2894 29.6068 26.2506 29.6249 26.2015Z" fill="#181048"/>
<path d="M29.3477 26.2506C29.4441 26.2403 29.5305 26.2301 29.6249 26.2015C29.6048 26.2506 29.5867 26.2894 29.5586 26.3385C29.5305 26.3488 29.5104 26.359 29.4823 26.3672L29.3477 26.2608V26.2506Z" fill="#181048"/>
<path d="M35.942 11.7253C35.942 16.3427 34.3692 20.5898 31.7339 23.9183C33.2002 21.1647 34.0237 18.0019 34.0237 14.6549C34.0237 12.6255 33.7164 10.6717 33.1621 8.83666L33.142 8.77733L35.721 8.7671C35.8656 9.73272 35.942 10.7188 35.942 11.7253Z" fill="#181048"/>
<path d="M42.6226 8.73846C42.2671 16.6844 37.2355 23.3905 30.2677 26.0848C30.2295 26.0951 30.1913 26.1053 30.1431 26.1053C35.3755 22.6213 38.8163 16.6066 38.8163 9.77364C38.8163 9.43199 38.8062 9.09034 38.7882 8.75892L42.6226 8.73846Z" fill="#181048"/>
<path d="M35.942 11.7253C35.942 10.7208 35.8656 9.73477 35.721 8.7671L33.142 8.77733L33.1621 8.83666C33.7184 10.6717 34.0237 12.6234 34.0237 14.6549C34.0237 18.0039 33.2002 21.1667 31.7339 23.9183C34.3692 20.5898 35.942 16.3427 35.942 11.7253ZM40.2544 20.999C40.2544 32.3225 31.2458 41.498 20.1282 41.498C9.0106 41.498 0 32.3225 0 20.999C0 9.67544 9.0106 0.5 20.1282 0.5C25.8507 0.5 31.0249 2.93042 34.6866 6.84609H44.5669C44.5669 11.5617 42.9279 15.8845 40.1861 19.2621C40.2243 19.839 40.2524 20.4139 40.2524 20.999H40.2544ZM26.3569 8.79779C28.7632 12.0588 30.1913 16.1095 30.1913 20.5121C30.1913 22.5129 29.8941 24.4359 29.3477 26.2526C28.8395 26.3303 28.3213 26.3692 27.7951 26.3692C23.5589 26.3692 19.8792 23.9286 18.0292 20.3566L17.971 20.3177C16.5911 16.9892 13.3612 14.657 9.58506 14.657C7.49611 14.657 5.55982 15.3791 4.02725 16.5903C7.03614 18.1042 9.10701 21.2567 9.10701 24.9065C9.10701 31.1053 14.0422 36.1318 20.1282 36.1318C25.8789 36.1318 30.6031 31.6413 31.1012 25.9212L31.1213 25.8537C30.8441 25.9416 30.5549 26.0194 30.2677 26.0889C37.2355 23.3946 42.2671 16.6885 42.6226 8.74255H42.6507L42.6306 8.62594C42.6306 8.66481 42.6306 8.70368 42.6206 8.74255L38.7861 8.76301C38.8062 9.09443 38.8143 9.43608 38.8143 9.77773C38.8143 16.6107 35.3735 22.6233 30.1411 26.1094C30.113 26.1196 30.0829 26.1299 30.0547 26.1299C29.9101 26.1687 29.7675 26.1974 29.6229 26.2076C31.2037 23.3762 32.1055 20.0968 32.1055 16.6128C32.1055 13.8018 31.521 11.1361 30.4765 8.72619L30.4966 8.7937L26.3569 8.80393V8.79779Z" fill="#4A93CF"/>
<path d="M30.1913 20.5121C30.1913 16.1095 28.7632 12.0588 26.3569 8.79779L30.4966 8.78756L30.4765 8.72005C31.521 11.1321 32.1055 13.7957 32.1055 16.6066C32.1055 20.0906 31.2037 23.3721 29.6229 26.2015C29.5265 26.2301 29.4401 26.2403 29.3457 26.2506C29.892 24.4339 30.1893 22.5108 30.1893 20.51L30.1913 20.5121Z" fill="#181048"/>
<path d="M11.0232 19.5342C11.5524 19.5342 11.9813 19.0973 11.9813 18.5583C11.9813 18.0194 11.5524 17.5825 11.0232 17.5825C10.4941 17.5825 10.0651 18.0194 10.0651 18.5583C10.0651 19.0973 10.4941 19.5342 11.0232 19.5342Z" fill="#181048"/>
<path d="M11.9813 18.5583C11.9813 18.0223 11.5495 17.5825 11.0232 17.5825C10.497 17.5825 10.0651 18.0223 10.0651 18.5583C10.0651 19.0943 10.497 19.5342 11.0232 19.5342C11.5495 19.5342 11.9813 19.0943 11.9813 18.5583ZM11.0232 16.6066C12.0777 16.6066 12.9394 17.4843 12.9394 18.5583C12.9394 19.6324 12.0777 20.51 11.0232 20.51C9.9687 20.51 9.10701 19.6324 9.10701 18.5583C9.10701 17.4843 9.9687 16.6066 11.0232 16.6066Z" fill="#4A93CF"/>
<path d="M12.9394 18.5583C12.9394 17.4843 12.0777 16.6066 11.0232 16.6066C9.9687 16.6066 9.10701 17.4843 9.10701 18.5583C9.10701 19.6324 9.9687 20.51 11.0232 20.51C12.0777 20.51 12.9394 19.6324 12.9394 18.5583ZM27.7951 26.3672C28.3213 26.3672 28.8395 26.3283 29.3477 26.2506V26.2608L29.4823 26.3672C29.5104 26.3569 29.5305 26.3467 29.5586 26.3385C29.7113 26.2894 29.8559 26.2403 30.0085 26.1831L29.9804 26.2219L30.0668 26.1626C30.1331 26.134 30.2014 26.1135 30.2677 26.0848C30.5549 26.0173 30.8421 25.9376 31.1213 25.8496L31.1012 25.9171C30.6031 31.6372 25.8789 36.1277 20.1282 36.1277C14.0422 36.1277 9.10701 31.1012 9.10701 24.9024C9.10701 21.2506 7.03614 18.098 4.02725 16.5862C5.55982 15.3751 7.49611 14.6529 9.58506 14.6529C13.3612 14.6529 16.5911 16.9851 17.971 20.3136L18.0292 20.3525C19.8792 23.9245 23.5589 26.3651 27.7951 26.3651V26.3672Z" fill="#181048"/>
<path d="M45.4545 33.5336C45.8462 35.291 47.0835 36.0602 49.072 36.0602C51.0605 36.0602 51.9021 35.2623 51.9021 33.9817C51.9021 32.5578 51.0746 31.94 48.136 31.2444C43.462 30.1274 42.305 28.3946 42.305 26.0317C42.305 22.9814 44.5446 20.911 48.612 20.911C53.1736 20.911 54.9893 23.4089 55.2364 25.9682H51.4944C51.3156 24.8921 50.7311 23.7219 48.5156 23.7219C47.0071 23.7219 46.0972 24.3561 46.0972 25.598C46.0972 26.8398 46.8264 27.3082 49.6023 27.9629C54.5997 29.1617 55.6944 31.0562 55.6944 33.5214C55.6944 36.7169 53.3202 38.908 48.7807 38.908C44.2413 38.908 42.1242 36.721 41.7125 33.5316H45.4545V33.5336Z" fill="#010101"/>
<path d="M69.5838 34.4174C69.1399 36.6064 67.6275 38.9673 63.785 38.9673C59.9426 38.9673 57.707 36.1379 57.707 32.1895C57.707 28.2411 60.0309 25.2215 63.9557 25.2215C68.3044 25.2215 69.5135 28.3987 69.5838 29.886H66.0969C65.876 28.816 65.2814 28.0672 63.8875 28.0672C62.2545 28.0672 61.3305 29.5239 61.3305 32.0709C61.3305 34.8675 62.3087 36.142 63.8734 36.142C65.1006 36.142 65.7575 35.4035 66.0768 34.4174H69.5859H69.5838Z" fill="#010101"/>
<path d="M75.3465 20.1377V27.0771C75.913 26.226 76.9574 25.2215 79.0404 25.2215C81.4447 25.2215 83.3609 26.672 83.3609 30.2337V38.6625H79.8117V30.7779C79.8117 29.0697 79.2171 28.1613 77.7187 28.1613C75.7342 28.1613 75.3445 29.665 75.3445 31.6924V38.6625H71.7732V20.1377H75.3465Z" fill="#010101"/>
<path d="M98.576 32.0688C98.576 36.0438 96.24 38.9673 92.1545 38.9673C88.069 38.9673 85.8194 36.0602 85.8194 32.1384C85.8194 28.2166 88.2257 25.2215 92.3233 25.2215C96.1195 25.2215 98.576 27.9506 98.576 32.0688ZM89.4449 32.0934C89.4449 34.622 90.5135 36.1195 92.2329 36.1195C93.9522 36.1195 94.9525 34.62 94.9525 32.1159C94.9525 29.3663 93.9623 28.0672 92.1827 28.0672C90.5256 28.0672 89.4449 29.3172 89.4449 32.0934Z" fill="#010101"/>
<path d="M101.029 38.6625V20.1377H104.6V38.6625H101.029Z" fill="#010101"/>
<path d="M107.808 20.1377H111.379V23.3823H107.808V20.1377ZM107.808 25.5263H111.379V38.6625H107.808V25.5263Z" fill="#010101"/>
<path d="M117.093 34.7141C117.363 35.7615 118.202 36.3487 119.536 36.3487C120.87 36.3487 121.336 35.8659 121.336 35.07C121.336 34.2272 120.781 33.8957 118.933 33.4334C114.731 32.3778 114.044 31.0541 114.044 29.2006C114.044 27.3471 115.384 25.2215 119.275 25.2215C123.165 25.2215 124.511 27.3962 124.622 29.1761H121.225C121.111 28.6912 120.793 27.7726 119.114 27.7726C117.933 27.7726 117.551 28.3046 117.551 28.8958C117.551 29.5504 117.951 29.8655 120.046 30.3626C124.348 31.3814 124.957 32.8851 124.957 34.8102C124.957 36.9849 123.332 38.9652 119.399 38.9652C115.466 38.9652 113.868 37.0401 113.584 34.712H117.093V34.7141Z" fill="#010101"/>
<path d="M125.913 25.5264H127.902V21.9687H131.473V25.5264H134V28.2616H131.473V34.7448C131.473 35.7411 131.772 36.1298 132.837 36.1298C133.036 36.1298 133.383 36.1277 133.65 36.0888V38.5909C132.941 38.8364 131.971 38.8425 131.25 38.8425C128.733 38.8425 127.902 37.4718 127.902 35.1744V28.2636H125.913V25.5264Z" fill="#010101"/>
</g>
<defs>
<clipPath id="clip0_1_1960">
<rect width="134" height="41" fill="white" transform="translate(0 0.5)"/>
</clipPath>
</defs>
</svg>
