<svg width="134" height="41" viewBox="0 0 134 41" fill="none" xmlns="http://www.w3.org/2000/svg">
<g clip-path="url(#clip0_1_821)">
<path d="M30.0668 25.6626L29.9804 25.7219L30.0085 25.6831C30.0286 25.6728 30.0467 25.6626 30.0668 25.6626Z" fill="#181048"/>
<path d="M30.2677 25.5848C30.2014 25.6135 30.1331 25.634 30.0668 25.6626C30.0949 25.6421 30.125 25.6339 30.1431 25.6033C30.1913 25.6033 30.2295 25.593 30.2677 25.5828V25.5848Z" fill="#181048"/>
<path d="M30.1431 25.6053C30.123 25.6339 30.0949 25.6442 30.0668 25.6646C30.0467 25.6646 30.0286 25.6749 30.0085 25.6851L30.0568 25.6258C30.0849 25.6258 30.115 25.6155 30.1431 25.6053Z" fill="#181048"/>
<path d="M29.6249 25.7015C29.7695 25.6912 29.9121 25.6626 30.0568 25.6237L30.0085 25.6831C29.8559 25.7424 29.7113 25.7894 29.5586 25.8385C29.5867 25.7894 29.6068 25.7506 29.6249 25.7015Z" fill="#181048"/>
<path d="M29.3477 25.7506C29.4441 25.7403 29.5305 25.7301 29.6249 25.7015C29.6048 25.7506 29.5867 25.7894 29.5586 25.8385C29.5305 25.8488 29.5104 25.859 29.4823 25.8672L29.3477 25.7608V25.7506Z" fill="#181048"/>
<path d="M35.942 11.2253C35.942 15.8427 34.3692 20.0898 31.7339 23.4183C33.2002 20.6647 34.0237 17.5019 34.0237 14.1549C34.0237 12.1255 33.7164 10.1717 33.1621 8.33666L33.142 8.27733L35.721 8.2671C35.8656 9.23272 35.942 10.2188 35.942 11.2253Z" fill="#181048"/>
<path d="M42.6226 8.23846C42.2671 16.1844 37.2355 22.8905 30.2677 25.5848C30.2295 25.5951 30.1913 25.6053 30.1431 25.6053C35.3755 22.1213 38.8163 16.1066 38.8163 9.27364C38.8163 8.93199 38.8062 8.59034 38.7882 8.25892L42.6226 8.23846Z" fill="#181048"/>
<path d="M35.942 11.2253C35.942 10.2208 35.8656 9.23477 35.721 8.2671L33.142 8.27733L33.1621 8.33666C33.7184 10.1717 34.0237 12.1234 34.0237 14.1549C34.0237 17.5039 33.2002 20.6667 31.7339 23.4183C34.3692 20.0898 35.942 15.8427 35.942 11.2253ZM40.2544 20.499C40.2544 31.8225 31.2458 40.998 20.1282 40.998C9.0106 40.998 0 31.8225 0 20.499C0 9.17544 9.0106 0 20.1282 0C25.8507 0 31.0249 2.43042 34.6866 6.34609H44.5669C44.5669 11.0617 42.9279 15.3845 40.1861 18.7621C40.2243 19.339 40.2524 19.9139 40.2524 20.499H40.2544ZM26.3569 8.29779C28.7632 11.5588 30.1913 15.6095 30.1913 20.0121C30.1913 22.0129 29.8941 23.9359 29.3477 25.7526C28.8395 25.8303 28.3213 25.8692 27.7951 25.8692C23.5589 25.8692 19.8792 23.4286 18.0292 19.8566L17.971 19.8177C16.5911 16.4892 13.3612 14.157 9.58506 14.157C7.49611 14.157 5.55982 14.8791 4.02725 16.0903C7.03614 17.6042 9.10701 20.7567 9.10701 24.4065C9.10701 30.6053 14.0422 35.6318 20.1282 35.6318C25.8789 35.6318 30.6031 31.1413 31.1012 25.4212L31.1213 25.3537C30.8441 25.4416 30.5549 25.5194 30.2677 25.5889C37.2355 22.8946 42.2671 16.1885 42.6226 8.24255H42.6507L42.6306 8.12594C42.6306 8.16481 42.6306 8.20368 42.6206 8.24255L38.7861 8.26301C38.8062 8.59443 38.8143 8.93608 38.8143 9.27773C38.8143 16.1107 35.3735 22.1233 30.1411 25.6094C30.113 25.6196 30.0829 25.6299 30.0547 25.6299C29.9101 25.6687 29.7675 25.6974 29.6229 25.7076C31.2037 22.8762 32.1055 19.5968 32.1055 16.1128C32.1055 13.3018 31.521 10.6361 30.4765 8.22619L30.4966 8.2937L26.3569 8.30393V8.29779Z" fill="#4A93CF"/>
<path d="M30.1913 20.0121C30.1913 15.6095 28.7632 11.5588 26.3569 8.29779L30.4966 8.28756L30.4765 8.22005C31.521 10.6321 32.1055 13.2957 32.1055 16.1066C32.1055 19.5906 31.2037 22.8721 29.6229 25.7015C29.5265 25.7301 29.4401 25.7403 29.3457 25.7506C29.892 23.9339 30.1893 22.0108 30.1893 20.01L30.1913 20.0121Z" fill="#181048"/>
<path d="M11.0232 19.0342C11.5524 19.0342 11.9813 18.5973 11.9813 18.0583C11.9813 17.5194 11.5524 17.0825 11.0232 17.0825C10.4941 17.0825 10.0651 17.5194 10.0651 18.0583C10.0651 18.5973 10.4941 19.0342 11.0232 19.0342Z" fill="#181048"/>
<path d="M11.9813 18.0583C11.9813 17.5223 11.5495 17.0825 11.0232 17.0825C10.497 17.0825 10.0651 17.5223 10.0651 18.0583C10.0651 18.5943 10.497 19.0342 11.0232 19.0342C11.5495 19.0342 11.9813 18.5943 11.9813 18.0583ZM11.0232 16.1066C12.0777 16.1066 12.9394 16.9843 12.9394 18.0583C12.9394 19.1324 12.0777 20.01 11.0232 20.01C9.9687 20.01 9.10701 19.1324 9.10701 18.0583C9.10701 16.9843 9.9687 16.1066 11.0232 16.1066Z" fill="#4A93CF"/>
<path d="M12.9394 18.0583C12.9394 16.9843 12.0777 16.1066 11.0232 16.1066C9.9687 16.1066 9.10701 16.9843 9.10701 18.0583C9.10701 19.1324 9.9687 20.01 11.0232 20.01C12.0777 20.01 12.9394 19.1324 12.9394 18.0583ZM27.7951 25.8672C28.3213 25.8672 28.8395 25.8283 29.3477 25.7506V25.7608L29.4823 25.8672C29.5104 25.8569 29.5305 25.8467 29.5586 25.8385C29.7113 25.7894 29.8559 25.7403 30.0085 25.6831L29.9804 25.7219L30.0668 25.6626C30.1331 25.634 30.2014 25.6135 30.2677 25.5848C30.5549 25.5173 30.8421 25.4376 31.1213 25.3496L31.1012 25.4171C30.6031 31.1372 25.8789 35.6277 20.1282 35.6277C14.0422 35.6277 9.10701 30.6012 9.10701 24.4024C9.10701 20.7506 7.03614 17.598 4.02725 16.0862C5.55982 14.8751 7.49611 14.1529 9.58506 14.1529C13.3612 14.1529 16.5911 16.4851 17.971 19.8136L18.0292 19.8525C19.8792 23.4245 23.5589 25.8651 27.7951 25.8651V25.8672Z" fill="#181048"/>
<path d="M45.4544 33.0336C45.8461 34.791 47.0834 35.5602 49.0719 35.5602C51.0604 35.5602 51.902 34.7623 51.902 33.4817C51.902 32.0578 51.0745 31.44 48.1359 30.7444C43.4619 29.6274 42.3049 27.8946 42.3049 25.5317C42.3049 22.4814 44.5445 20.411 48.612 20.411C53.1735 20.411 54.9893 22.9089 55.2363 25.4682H51.4943C51.3155 24.3921 50.731 23.2219 48.5155 23.2219C47.0071 23.2219 46.0972 23.8561 46.0972 25.098C46.0972 26.3398 46.8263 26.8082 49.6022 27.4629C54.5996 28.6617 55.6943 30.5562 55.6943 33.0214C55.6943 36.2169 53.3201 38.408 48.7807 38.408C44.2412 38.408 42.1242 36.221 41.7124 33.0316H45.4544V33.0336Z" fill="#010101"/>
<path d="M69.5838 33.9174C69.1399 36.1064 67.6274 38.4673 63.7849 38.4673C59.9425 38.4673 57.7069 35.6379 57.7069 31.6895C57.7069 27.7411 60.0309 24.7215 63.9557 24.7215C68.3043 24.7215 69.5135 27.8987 69.5838 29.386H66.0969C65.8759 28.316 65.2814 27.5672 63.8874 27.5672C62.2544 27.5672 61.3304 29.0239 61.3304 31.5709C61.3304 34.3675 62.3086 35.642 63.8733 35.642C65.1006 35.642 65.7574 34.9035 66.0768 33.9174H69.5858H69.5838Z" fill="#010101"/>
<path d="M75.3465 19.6377V26.5771C75.9129 25.726 76.9574 24.7215 79.0403 24.7215C81.4446 24.7215 83.3608 26.172 83.3608 29.7337V38.1625H79.8116V30.2779C79.8116 28.5697 79.217 27.6613 77.7186 27.6613C75.7341 27.6613 75.3445 29.165 75.3445 31.1924V38.1625H71.7732V19.6377H75.3465Z" fill="#010101"/>
<path d="M98.576 31.5688C98.576 35.5438 96.24 38.4673 92.1545 38.4673C88.069 38.4673 85.8193 35.5602 85.8193 31.6384C85.8193 27.7166 88.2256 24.7215 92.3232 24.7215C96.1195 24.7215 98.576 27.4506 98.576 31.5688ZM89.4449 31.5934C89.4449 34.122 90.5134 35.6195 92.2328 35.6195C93.9522 35.6195 94.9525 34.12 94.9525 31.6159C94.9525 28.8663 93.9622 27.5672 92.1826 27.5672C90.5255 27.5672 89.4449 28.8172 89.4449 31.5934Z" fill="#010101"/>
<path d="M101.028 38.1625V19.6377H104.6V38.1625H101.028Z" fill="#010101"/>
<path d="M107.808 19.6377H111.379V22.8823H107.808V19.6377ZM107.808 25.0263H111.379V38.1625H107.808V25.0263Z" fill="#010101"/>
<path d="M117.093 34.2141C117.362 35.2615 118.202 35.8487 119.536 35.8487C120.869 35.8487 121.335 35.3659 121.335 34.57C121.335 33.7272 120.781 33.3957 118.933 32.9334C114.731 31.8778 114.044 30.5541 114.044 28.7006C114.044 26.8471 115.384 24.7215 119.275 24.7215C123.165 24.7215 124.511 26.8962 124.622 28.6761H121.225C121.111 28.1912 120.793 27.2726 119.114 27.2726C117.933 27.2726 117.551 27.8046 117.551 28.3958C117.551 29.0504 117.951 29.3655 120.046 29.8626C124.348 30.8814 124.957 32.3851 124.957 34.3102C124.957 36.4849 123.332 38.4652 119.399 38.4652C115.466 38.4652 113.867 36.5401 113.584 34.212H117.093V34.2141Z" fill="#010101"/>
<path d="M125.913 25.0264H127.902V21.4687H131.473V25.0264H134V27.7616H131.473V34.2448C131.473 35.2411 131.772 35.6298 132.837 35.6298C133.036 35.6298 133.383 35.6277 133.65 35.5888V38.0909C132.941 38.3364 131.971 38.3425 131.25 38.3425C128.733 38.3425 127.902 36.9718 127.902 34.6744V27.7636H125.913V25.0264Z" fill="#010101"/>
</g>
<defs>
<clipPath id="clip0_1_821">
<rect width="134" height="41" fill="white"/>
</clipPath>
</defs>
</svg>
