<svg width="134" height="42" viewBox="0 0 134 42" fill="none" xmlns="http://www.w3.org/2000/svg">
<g clip-path="url(#clip0_589_30275)">
<path d="M30.0668 26.1626L29.9804 26.2219L30.0085 26.1831C30.0286 26.1728 30.0467 26.1626 30.0668 26.1626Z" fill="#181048"/>
<path d="M30.2677 26.0848C30.2014 26.1135 30.1331 26.134 30.0668 26.1626C30.0949 26.1421 30.125 26.1339 30.1431 26.1033C30.1913 26.1033 30.2295 26.093 30.2677 26.0828V26.0848Z" fill="#181048"/>
<path d="M30.1431 26.1053C30.123 26.1339 30.0949 26.1442 30.0668 26.1646C30.0467 26.1646 30.0286 26.1749 30.0085 26.1851L30.0568 26.1258C30.0849 26.1258 30.115 26.1155 30.1431 26.1053Z" fill="#181048"/>
<path d="M29.6249 26.2015C29.7695 26.1912 29.9121 26.1626 30.0568 26.1237L30.0085 26.1831C29.8559 26.2424 29.7113 26.2894 29.5586 26.3385C29.5867 26.2894 29.6068 26.2506 29.6249 26.2015Z" fill="#181048"/>
<path d="M29.3477 26.2506C29.4441 26.2403 29.5305 26.2301 29.6249 26.2015C29.6048 26.2506 29.5867 26.2894 29.5586 26.3385C29.5305 26.3488 29.5104 26.359 29.4823 26.3672L29.3477 26.2608V26.2506Z" fill="#181048"/>
<path d="M35.942 11.7253C35.942 16.3427 34.3692 20.5898 31.7339 23.9183C33.2002 21.1647 34.0237 18.0019 34.0237 14.6549C34.0237 12.6255 33.7164 10.6717 33.1621 8.83666L33.142 8.77733L35.721 8.7671C35.8656 9.73272 35.942 10.7188 35.942 11.7253Z" fill="#181048"/>
<path d="M42.6226 8.73846C42.2671 16.6844 37.2355 23.3905 30.2677 26.0848C30.2295 26.0951 30.1913 26.1053 30.1431 26.1053C35.3755 22.6213 38.8163 16.6066 38.8163 9.77364C38.8163 9.43199 38.8062 9.09034 38.7882 8.75892L42.6226 8.73846Z" fill="#181048"/>
<path d="M35.942 11.7253C35.942 10.7208 35.8656 9.73477 35.721 8.7671L33.142 8.77733L33.1621 8.83666C33.7184 10.6717 34.0237 12.6234 34.0237 14.6549C34.0237 18.0039 33.2002 21.1667 31.7339 23.9183C34.3692 20.5898 35.942 16.3427 35.942 11.7253ZM40.2544 20.999C40.2544 32.3225 31.2458 41.498 20.1282 41.498C9.0106 41.498 0 32.3225 0 20.999C0 9.67544 9.0106 0.5 20.1282 0.5C25.8507 0.5 31.0249 2.93042 34.6866 6.84609H44.5669C44.5669 11.5617 42.9279 15.8845 40.1861 19.2621C40.2243 19.839 40.2524 20.4139 40.2524 20.999H40.2544ZM26.3569 8.79779C28.7632 12.0588 30.1913 16.1095 30.1913 20.5121C30.1913 22.5129 29.8941 24.4359 29.3477 26.2526C28.8395 26.3303 28.3213 26.3692 27.7951 26.3692C23.5589 26.3692 19.8792 23.9286 18.0292 20.3566L17.971 20.3177C16.5911 16.9892 13.3612 14.657 9.58506 14.657C7.49611 14.657 5.55982 15.3791 4.02725 16.5903C7.03614 18.1042 9.10701 21.2567 9.10701 24.9065C9.10701 31.1053 14.0422 36.1318 20.1282 36.1318C25.8789 36.1318 30.6031 31.6413 31.1012 25.9212L31.1213 25.8537C30.8441 25.9416 30.5549 26.0194 30.2677 26.0889C37.2355 23.3946 42.2671 16.6885 42.6226 8.74255H42.6507L42.6306 8.62594C42.6306 8.66481 42.6306 8.70368 42.6206 8.74255L38.7861 8.76301C38.8062 9.09443 38.8143 9.43608 38.8143 9.77773C38.8143 16.6107 35.3735 22.6233 30.1411 26.1094C30.113 26.1196 30.0829 26.1299 30.0547 26.1299C29.9101 26.1687 29.7675 26.1974 29.6229 26.2076C31.2037 23.3762 32.1055 20.0968 32.1055 16.6128C32.1055 13.8018 31.521 11.1361 30.4765 8.72619L30.4966 8.7937L26.3569 8.80393V8.79779Z" fill="#4A93CF"/>
<path d="M30.1913 20.5121C30.1913 16.1095 28.7632 12.0588 26.3569 8.79779L30.4966 8.78756L30.4765 8.72005C31.521 11.1321 32.1055 13.7957 32.1055 16.6066C32.1055 20.0906 31.2037 23.3721 29.6229 26.2015C29.5265 26.2301 29.4401 26.2403 29.3457 26.2506C29.892 24.4339 30.1893 22.5108 30.1893 20.51L30.1913 20.5121Z" fill="#181048"/>
<path d="M11.0232 19.5342C11.5524 19.5342 11.9813 19.0973 11.9813 18.5583C11.9813 18.0194 11.5524 17.5825 11.0232 17.5825C10.4941 17.5825 10.0651 18.0194 10.0651 18.5583C10.0651 19.0973 10.4941 19.5342 11.0232 19.5342Z" fill="#181048"/>
<path d="M11.9813 18.5583C11.9813 18.0223 11.5495 17.5825 11.0232 17.5825C10.497 17.5825 10.0651 18.0223 10.0651 18.5583C10.0651 19.0943 10.497 19.5342 11.0232 19.5342C11.5495 19.5342 11.9813 19.0943 11.9813 18.5583ZM11.0232 16.6066C12.0777 16.6066 12.9394 17.4843 12.9394 18.5583C12.9394 19.6324 12.0777 20.51 11.0232 20.51C9.9687 20.51 9.10701 19.6324 9.10701 18.5583C9.10701 17.4843 9.9687 16.6066 11.0232 16.6066Z" fill="#4A93CF"/>
<path d="M12.9394 18.5583C12.9394 17.4843 12.0777 16.6066 11.0232 16.6066C9.9687 16.6066 9.10701 17.4843 9.10701 18.5583C9.10701 19.6324 9.9687 20.51 11.0232 20.51C12.0777 20.51 12.9394 19.6324 12.9394 18.5583ZM27.7951 26.3672C28.3213 26.3672 28.8395 26.3283 29.3477 26.2506V26.2608L29.4823 26.3672C29.5104 26.3569 29.5305 26.3467 29.5586 26.3385C29.7113 26.2894 29.8559 26.2403 30.0085 26.1831L29.9804 26.2219L30.0668 26.1626C30.1331 26.134 30.2014 26.1135 30.2677 26.0848C30.5549 26.0173 30.8421 25.9376 31.1213 25.8496L31.1012 25.9171C30.6031 31.6372 25.8789 36.1277 20.1282 36.1277C14.0422 36.1277 9.10701 31.1012 9.10701 24.9024C9.10701 21.2506 7.03614 18.098 4.02725 16.5862C5.55982 15.3751 7.49611 14.6529 9.58506 14.6529C13.3612 14.6529 16.5911 16.9851 17.971 20.3136L18.0292 20.3525C19.8792 23.9245 23.5589 26.3651 27.7951 26.3651V26.3672Z" fill="#181048"/>
<path d="M45.453 33.5327C45.8446 35.29 47.0819 36.0592 49.0705 36.0592C51.059 36.0592 51.9006 35.2614 51.9006 33.9807C51.9006 32.5568 51.073 31.939 48.1345 31.2434C43.4604 30.1264 42.3035 28.3936 42.3035 26.0307C42.3035 22.9804 44.5431 20.91 48.6105 20.91C53.172 20.91 54.9878 23.408 55.2349 25.9673H51.4928C51.3141 24.8912 50.7296 23.721 48.5141 23.721C47.0056 23.721 46.0957 24.3552 46.0957 25.597C46.0957 26.8388 46.8248 27.3073 49.6007 27.9619C54.5981 29.1608 55.6928 31.0552 55.6928 33.5204C55.6928 36.7159 53.3187 38.907 48.7792 38.907C44.2398 38.907 42.1227 36.72 41.7109 33.5306H45.453V33.5327Z" fill="#010101"/>
<path d="M69.5823 34.4164C69.1384 36.6055 67.6259 38.9663 63.7835 38.9663C59.941 38.9663 57.7054 36.137 57.7054 32.1886C57.7054 28.2402 60.0294 25.2205 63.9542 25.2205C68.3028 25.2205 69.512 28.3977 69.5823 29.885H66.0954C65.8744 28.815 65.2799 28.0663 63.8859 28.0663C62.2529 28.0663 61.329 29.5229 61.329 32.0699C61.329 34.8665 62.3072 36.1411 63.8719 36.1411C65.0991 36.1411 65.7559 35.4025 66.0753 34.4164H69.5843H69.5823Z" fill="#010101"/>
<path d="M75.345 20.1367V27.0761C75.9114 26.225 76.9559 25.2205 79.0388 25.2205C81.4431 25.2205 83.3593 26.671 83.3593 30.2328V38.6615H79.8101V30.777C79.8101 29.0687 79.2156 28.1604 77.7172 28.1604C75.7327 28.1604 75.343 29.664 75.343 31.6914V38.6615H71.7717V20.1367H75.345Z" fill="#010101"/>
<path d="M98.5745 32.0679C98.5745 36.0429 96.2385 38.9663 92.153 38.9663C88.0675 38.9663 85.8179 36.0592 85.8179 32.1374C85.8179 28.2156 88.2242 25.2205 92.3217 25.2205C96.118 25.2205 98.5745 27.9497 98.5745 32.0679ZM89.4434 32.0924C89.4434 34.621 90.512 36.1186 92.2313 36.1186C93.9507 36.1186 94.951 34.619 94.951 32.1149C94.951 29.3654 93.9608 28.0663 92.1811 28.0663C90.524 28.0663 89.4434 29.3163 89.4434 32.0924Z" fill="#010101"/>
<path d="M101.027 38.6615V20.1367H104.598V38.6615H101.027Z" fill="#010101"/>
<path d="M107.806 20.1367H111.377V23.3814H107.806V20.1367ZM107.806 25.5254H111.377V38.6615H107.806V25.5254Z" fill="#010101"/>
<path d="M117.092 34.7131C117.361 35.7605 118.201 36.3477 119.534 36.3477C120.868 36.3477 121.334 35.8649 121.334 35.0691C121.334 34.2262 120.78 33.8948 118.932 33.4324C114.73 32.3768 114.043 31.0531 114.043 29.1996C114.043 27.3461 115.383 25.2205 119.273 25.2205C123.164 25.2205 124.51 27.3952 124.62 29.1751H121.224C121.109 28.6902 120.792 27.7717 119.112 27.7717C117.931 27.7717 117.55 28.3036 117.55 28.8948C117.55 29.5495 117.95 29.8645 120.044 30.3617C124.347 31.3805 124.956 32.8841 124.956 34.8092C124.956 36.9839 123.331 38.9643 119.398 38.9643C115.465 38.9643 113.866 37.0392 113.583 34.711H117.092V34.7131Z" fill="#010101"/>
<path d="M125.912 25.5254H127.9V21.9677H131.471V25.5254H133.998V28.2606H131.471V34.7438C131.471 35.7401 131.771 36.1288 132.835 36.1288C133.034 36.1288 133.382 36.1267 133.649 36.0879V38.5899C132.94 38.8354 131.97 38.8415 131.248 38.8415C128.732 38.8415 127.9 37.4708 127.9 35.1734V28.2627H125.912V25.5254Z" fill="#010101"/>
</g>
<defs>
<clipPath id="clip0_589_30275">
<rect width="134" height="41" fill="white" transform="translate(0 0.5)"/>
</clipPath>
</defs>
</svg>
