<svg width="134" height="42" viewBox="0 0 134 42" fill="none" xmlns="http://www.w3.org/2000/svg">
<g clip-path="url(#clip0_1_1960)">
<path d="M30.0669 26.1626L29.9805 26.2219L30.0087 26.1831C30.0288 26.1728 30.0468 26.1626 30.0669 26.1626Z" fill="#181048"/>
<path d="M30.2678 26.0848C30.2015 26.1135 30.1332 26.134 30.0669 26.1626C30.095 26.1421 30.1252 26.1339 30.1432 26.1033C30.1914 26.1033 30.2296 26.093 30.2678 26.0828V26.0848Z" fill="#181048"/>
<path d="M30.1432 26.1053C30.1232 26.1339 30.095 26.1442 30.0669 26.1646C30.0468 26.1646 30.0288 26.1749 30.0087 26.1851L30.0569 26.1258C30.085 26.1258 30.1151 26.1155 30.1432 26.1053Z" fill="#181048"/>
<path d="M29.625 26.2015C29.7696 26.1912 29.9123 26.1626 30.0569 26.1237L30.0087 26.1831C29.856 26.2424 29.7114 26.2894 29.5587 26.3385C29.5869 26.2894 29.6069 26.2506 29.625 26.2015Z" fill="#181048"/>
<path d="M29.3478 26.2506C29.4442 26.2403 29.5306 26.2301 29.625 26.2015C29.6049 26.2506 29.5869 26.2894 29.5587 26.3385C29.5306 26.3488 29.5105 26.359 29.4824 26.3672L29.3478 26.2608V26.2506Z" fill="#181048"/>
<path d="M35.9421 11.7253C35.9421 16.3427 34.3693 20.5898 31.7341 23.9183C33.2003 21.1647 34.0239 18.0019 34.0239 14.6549C34.0239 12.6255 33.7165 10.6717 33.1622 8.83666L33.1421 8.77733L35.7211 8.7671C35.8658 9.73272 35.9421 10.7188 35.9421 11.7253Z" fill="#181048"/>
<path d="M42.6227 8.73846C42.2672 16.6844 37.2356 23.3905 30.2678 26.0848C30.2296 26.0951 30.1915 26.1053 30.1432 26.1053C35.3757 22.6213 38.8164 16.6066 38.8164 9.77364C38.8164 9.43199 38.8064 9.09034 38.7883 8.75892L42.6227 8.73846Z" fill="#181048"/>
<path d="M35.9421 11.7253C35.9421 10.7208 35.8658 9.73477 35.7211 8.7671L33.1421 8.77733L33.1622 8.83666C33.7186 10.6717 34.0239 12.6234 34.0239 14.6549C34.0239 18.0039 33.2003 21.1667 31.7341 23.9183C34.3693 20.5898 35.9421 16.3427 35.9421 11.7253ZM40.2546 20.999C40.2546 32.3225 31.246 41.498 20.1283 41.498C9.01072 41.498 0.00012207 32.3225 0.00012207 20.999C0.00012207 9.67544 9.01072 0.5 20.1283 0.5C25.8509 0.5 31.025 2.93042 34.6867 6.84609H44.567C44.567 11.5617 42.928 15.8845 40.1863 19.2621C40.2244 19.839 40.2525 20.4139 40.2525 20.999H40.2546ZM26.357 8.79779C28.7633 12.0588 30.1915 16.1095 30.1915 20.5121C30.1915 22.5129 29.8942 24.4359 29.3478 26.2526C28.8397 26.3303 28.3214 26.3692 27.7952 26.3692C23.559 26.3692 19.8793 23.9286 18.0294 20.3566L17.9711 20.3177C16.5912 16.9892 13.3614 14.657 9.58518 14.657C7.49623 14.657 5.55994 15.3791 4.02737 16.5903C7.03626 18.1042 9.10713 21.2567 9.10713 24.9065C9.10713 31.1053 14.0423 36.1318 20.1283 36.1318C25.879 36.1318 30.6032 31.6413 31.1013 25.9212L31.1214 25.8537C30.8442 25.9416 30.555 26.0194 30.2678 26.0889C37.2356 23.3946 42.2672 16.6885 42.6227 8.74255H42.6508L42.6307 8.62594C42.6307 8.66481 42.6307 8.70368 42.6207 8.74255L38.7863 8.76301C38.8064 9.09443 38.8144 9.43608 38.8144 9.77773C38.8144 16.6107 35.3736 22.6233 30.1412 26.1094C30.1131 26.1196 30.083 26.1299 30.0549 26.1299C29.9102 26.1687 29.7676 26.1974 29.623 26.2076C31.2038 23.3762 32.1056 20.0968 32.1056 16.6128C32.1056 13.8018 31.5211 11.1361 30.4767 8.72619L30.4968 8.7937L26.357 8.80393V8.79779Z" fill="#4A93CF"/>
<path d="M30.1915 20.5121C30.1915 16.1095 28.7633 12.0588 26.357 8.79779L30.4968 8.78756L30.4767 8.72005C31.5211 11.1321 32.1056 13.7957 32.1056 16.6066C32.1056 20.0906 31.2038 23.3721 29.623 26.2015C29.5266 26.2301 29.4402 26.2403 29.3458 26.2506C29.8922 24.4339 30.1894 22.5108 30.1894 20.51L30.1915 20.5121Z" fill="#181048"/>
<path d="M11.0233 19.5342C11.5525 19.5342 11.9814 19.0973 11.9814 18.5583C11.9814 18.0194 11.5525 17.5825 11.0233 17.5825C10.4942 17.5825 10.0652 18.0194 10.0652 18.5583C10.0652 19.0973 10.4942 19.5342 11.0233 19.5342Z" fill="#181048"/>
<path d="M11.9814 18.5583C11.9814 18.0223 11.5496 17.5825 11.0233 17.5825C10.4971 17.5825 10.0652 18.0223 10.0652 18.5583C10.0652 19.0943 10.4971 19.5342 11.0233 19.5342C11.5496 19.5342 11.9814 19.0943 11.9814 18.5583ZM11.0233 16.6066C12.0779 16.6066 12.9395 17.4843 12.9395 18.5583C12.9395 19.6324 12.0779 20.51 11.0233 20.51C9.96882 20.51 9.10713 19.6324 9.10713 18.5583C9.10713 17.4843 9.96882 16.6066 11.0233 16.6066Z" fill="#4A93CF"/>
<path d="M12.9395 18.5583C12.9395 17.4843 12.0779 16.6066 11.0233 16.6066C9.96882 16.6066 9.10713 17.4843 9.10713 18.5583C9.10713 19.6324 9.96882 20.51 11.0233 20.51C12.0779 20.51 12.9395 19.6324 12.9395 18.5583ZM27.7952 26.3672C28.3214 26.3672 28.8397 26.3283 29.3478 26.2506V26.2608L29.4824 26.3672C29.5105 26.3569 29.5306 26.3467 29.5587 26.3385C29.7114 26.2894 29.856 26.2403 30.0087 26.1831L29.9805 26.2219L30.0669 26.1626C30.1332 26.134 30.2015 26.1135 30.2678 26.0848C30.555 26.0173 30.8422 25.9376 31.1214 25.8496L31.1013 25.9171C30.6032 31.6372 25.879 36.1277 20.1283 36.1277C14.0423 36.1277 9.10713 31.1012 9.10713 24.9024C9.10713 21.2506 7.03626 18.098 4.02737 16.5862C5.55994 15.3751 7.49623 14.6529 9.58518 14.6529C13.3614 14.6529 16.5912 16.9851 17.9711 20.3136L18.0294 20.3525C19.8793 23.9245 23.559 26.3651 27.7952 26.3651V26.3672Z" fill="#181048"/>
<path d="M45.4546 33.5336C45.8463 35.291 47.0836 36.0602 49.0721 36.0602C51.0606 36.0602 51.9022 35.2623 51.9022 33.9817C51.9022 32.5578 51.0747 31.94 48.1361 31.2444C43.4621 30.1274 42.3051 28.3946 42.3051 26.0317C42.3051 22.9814 44.5447 20.911 48.6121 20.911C53.1737 20.911 54.9895 23.4089 55.2365 25.9682H51.4945C51.3157 24.8921 50.7312 23.7219 48.5157 23.7219C47.0073 23.7219 46.0974 24.3561 46.0974 25.598C46.0974 26.8398 46.8265 27.3082 49.6024 27.9629C54.5998 29.1617 55.6945 31.0562 55.6945 33.5214C55.6945 36.7169 53.3203 38.908 48.7809 38.908C44.2414 38.908 42.1243 36.721 41.7126 33.5316H45.4546V33.5336Z" fill="#010101"/>
<path d="M69.584 34.4174C69.1401 36.6064 67.6276 38.9673 63.7851 38.9673C59.9427 38.9673 57.7071 36.1379 57.7071 32.1895C57.7071 28.2411 60.0311 25.2215 63.9559 25.2215C68.3045 25.2215 69.5137 28.3987 69.584 29.886H66.097C65.8761 28.816 65.2815 28.0672 63.8876 28.0672C62.2546 28.0672 61.3306 29.5239 61.3306 32.0709C61.3306 34.8675 62.3088 36.142 63.8735 36.142C65.1008 36.142 65.7576 35.4035 66.0769 34.4174H69.586H69.584Z" fill="#010101"/>
<path d="M75.3467 20.1377V27.0771C75.9131 26.226 76.9576 25.2215 79.0405 25.2215C81.4448 25.2215 83.361 26.672 83.361 30.2337V38.6625H79.8118V30.7779C79.8118 29.0697 79.2172 28.1613 77.7188 28.1613C75.7343 28.1613 75.3446 29.665 75.3446 31.6924V38.6625H71.7733V20.1377H75.3467Z" fill="#010101"/>
<path d="M98.5762 32.0688C98.5762 36.0438 96.2402 38.9673 92.1547 38.9673C88.0692 38.9673 85.8195 36.0602 85.8195 32.1384C85.8195 28.2166 88.2258 25.2215 92.3234 25.2215C96.1196 25.2215 98.5762 27.9506 98.5762 32.0688ZM89.445 32.0934C89.445 34.622 90.5136 36.1195 92.233 36.1195C93.9524 36.1195 94.9526 34.62 94.9526 32.1159C94.9526 29.3663 93.9624 28.0672 92.1828 28.0672C90.5257 28.0672 89.445 29.3172 89.445 32.0934Z" fill="#010101"/>
<path d="M101.029 38.6625V20.1377H104.6V38.6625H101.029Z" fill="#010101"/>
<path d="M107.808 20.1377H111.379V23.3823H107.808V20.1377ZM107.808 25.5263H111.379V38.6625H107.808V25.5263Z" fill="#010101"/>
<path d="M117.093 34.7141C117.363 35.7615 118.202 36.3487 119.536 36.3487C120.87 36.3487 121.336 35.8659 121.336 35.07C121.336 34.2272 120.781 33.8957 118.933 33.4334C114.731 32.3778 114.044 31.0541 114.044 29.2006C114.044 27.3471 115.384 25.2215 119.275 25.2215C123.165 25.2215 124.511 27.3962 124.622 29.1761H121.225C121.111 28.6912 120.793 27.7726 119.114 27.7726C117.933 27.7726 117.551 28.3046 117.551 28.8958C117.551 29.5504 117.951 29.8655 120.046 30.3626C124.349 31.3814 124.957 32.8851 124.957 34.8102C124.957 36.9849 123.332 38.9652 119.399 38.9652C115.467 38.9652 113.868 37.0401 113.584 34.712H117.093V34.7141Z" fill="#010101"/>
<path d="M125.913 25.5264H127.902V21.9687H131.473V25.5264H134V28.2616H131.473V34.7448C131.473 35.7411 131.772 36.1298 132.837 36.1298C133.036 36.1298 133.383 36.1277 133.65 36.0888V38.5909C132.941 38.8364 131.971 38.8425 131.25 38.8425C128.733 38.8425 127.902 37.4718 127.902 35.1744V28.2636H125.913V25.5264Z" fill="#010101"/>
</g>
<defs>
<clipPath id="clip0_1_1960">
<rect width="134" height="41" fill="white" transform="translate(0.00012207 0.5)"/>
</clipPath>
</defs>
</svg>
