<svg width="24" height="24" viewBox="0 0 24 24" fill="none" xmlns="http://www.w3.org/2000/svg">
<path fill-rule="evenodd" clip-rule="evenodd" d="M10.054 2.65806C11.1752 1.70252 12.8244 1.70252 13.9457 2.65806L14.016 2.71799C14.4965 3.12746 15.0939 3.37492 15.7232 3.42514L15.8153 3.43249C17.2838 3.54968 18.45 4.71581 18.5671 6.18434L18.5745 6.27643C18.6247 6.90573 18.8722 7.50315 19.2816 7.98365L19.3416 8.05397C20.2971 9.17524 20.2971 10.8244 19.3416 11.9457L19.2816 12.016C18.8722 12.4965 18.6247 13.0939 18.5745 13.7232L18.5671 13.8153C18.484 14.8574 17.8726 15.7472 16.9998 16.218V21.1558C16.9998 21.8256 16.3541 22.3061 15.7125 22.1136L11.9998 20.9998L8.28716 22.1136C7.64555 22.3061 6.99982 21.8256 6.99982 21.1558V16.218C6.12701 15.7472 5.51565 14.8574 5.43249 13.8153L5.42514 13.7232C5.37492 13.0939 5.12746 12.4965 4.71799 12.016L4.65806 11.9457C3.70252 10.8244 3.70252 9.17524 4.65806 8.05397L4.71799 7.98365C5.12746 7.50316 5.37492 6.90574 5.42514 6.27644L5.43249 6.18434C5.54968 4.71581 6.71581 3.54968 8.18434 3.43249L8.27644 3.42514C8.90573 3.37492 9.50315 3.12746 9.98365 2.71799L10.054 2.65806ZM12.6484 4.18029L12.7188 4.24022C13.5196 4.92267 14.5153 5.3351 15.5641 5.4188L15.6562 5.42615C16.1457 5.46521 16.5344 5.85392 16.5735 6.34343L16.5808 6.43553C16.6645 7.48436 17.077 8.48006 17.7594 9.28088L17.8193 9.3512C18.1379 9.72496 18.1379 10.2747 17.8193 10.6484L17.7594 10.7188C17.077 11.5196 16.6645 12.5153 16.5808 13.5641L16.5735 13.6562C16.5344 14.1457 16.1457 14.5344 15.6562 14.5735L15.5641 14.5808C14.5153 14.6645 13.5196 15.077 12.7188 15.7594L12.6484 15.8193C12.2747 16.1379 11.725 16.1379 11.3512 15.8193L11.2809 15.7594C10.4801 15.077 9.48436 14.6645 8.43553 14.5808L8.34343 14.5735C7.85392 14.5344 7.46521 14.1457 7.42615 13.6562L7.4188 13.5641C7.3351 12.5153 6.92267 11.5196 6.24022 10.7188L6.18029 10.6484C5.86178 10.2747 5.86178 9.72496 6.18029 9.3512L6.24022 9.28088C6.92267 8.48006 7.3351 7.48436 7.4188 6.43553L7.42615 6.34343C7.46521 5.85392 7.85392 5.46521 8.34343 5.42615L8.43553 5.4188C9.48436 5.3351 10.4801 4.92267 11.2809 4.24022L11.3512 4.18029C11.725 3.86178 12.2747 3.86178 12.6484 4.18029ZM8.99982 16.7234V19.8117L11.4251 19.0842C11.8 18.9717 12.1996 18.9717 12.5745 19.0842L14.9998 19.8117V16.7234C14.6415 16.8447 14.3073 17.0334 14.016 17.2816L13.9457 17.3416C12.8244 18.2971 11.1752 18.2971 10.054 17.3416L9.98365 17.2816C9.69236 17.0334 9.3581 16.8447 8.99982 16.7234Z" fill="#535763"/>
<path fill-rule="evenodd" clip-rule="evenodd" d="M12 11C12.5523 11 13 10.5523 13 10C13 9.44772 12.5523 9 12 9C11.4477 9 11 9.44772 11 10C11 10.5523 11.4477 11 12 11ZM12 13C13.6569 13 15 11.6569 15 10C15 8.34315 13.6569 7 12 7C10.3431 7 9 8.34315 9 10C9 11.6569 10.3431 13 12 13Z" fill="#535763"/>
</svg>
