<svg width="24" height="24" viewBox="0 0 24 24" fill="none" xmlns="http://www.w3.org/2000/svg">
<path fill-rule="evenodd" clip-rule="evenodd" d="M10.0544 2.34459C11.1756 1.38904 12.8248 1.38904 13.9461 2.34459L15.2175 3.42812C15.3777 3.56461 15.5768 3.6471 15.7866 3.66384L17.4518 3.79673C18.9204 3.91392 20.0865 5.08005 20.2037 6.54858L20.3366 8.21382C20.3533 8.42358 20.4358 8.62272 20.5723 8.78289L21.6558 10.0544C22.6114 11.1756 22.6114 12.8248 21.6558 13.9461L20.5723 15.2175C20.4358 15.3777 20.3533 15.5768 20.3366 15.7866L20.2037 17.4518C20.0865 18.9204 18.9204 20.0865 17.4518 20.2037L15.7866 20.3366C15.5768 20.3533 15.3777 20.4358 15.2175 20.5723L13.9461 21.6558C12.8248 22.6114 11.1756 22.6114 10.0544 21.6558L8.78289 20.5723C8.62272 20.4358 8.42358 20.3533 8.21382 20.3366L6.54858 20.2037C5.08005 20.0865 3.91392 18.9204 3.79673 17.4518L3.66384 15.7866C3.6471 15.5768 3.56461 15.3777 3.42812 15.2175L2.34459 13.9461C1.38904 12.8248 1.38904 11.1756 2.34459 10.0544L3.42812 8.78289C3.56461 8.62272 3.6471 8.42358 3.66384 8.21382L3.79673 6.54858C3.91392 5.08005 5.08005 3.91392 6.54858 3.79673L8.21382 3.66384C8.42358 3.6471 8.62272 3.56461 8.78289 3.42812L10.0544 2.34459ZM12.6488 3.86682C12.2751 3.5483 11.7253 3.5483 11.3516 3.86682L10.0801 4.95035C9.59963 5.35982 9.00221 5.60728 8.37291 5.6575L6.70767 5.79039C6.21816 5.82945 5.82945 6.21816 5.79039 6.70767L5.6575 8.37291C5.60728 9.00221 5.35982 9.59963 4.95035 10.0801L3.86682 11.3516C3.5483 11.7253 3.5483 12.2751 3.86682 12.6488L4.95035 13.9203C5.35982 14.4008 5.60728 14.9982 5.6575 15.6275L5.79039 17.2927C5.82945 17.7822 6.21816 18.171 6.70767 18.21L8.37291 18.3429C9.00221 18.3931 9.59963 18.6406 10.0801 19.0501L11.3516 20.1336C11.7253 20.4521 12.2751 20.4521 12.6488 20.1336L13.9203 19.0501C14.4008 18.6406 14.9982 18.3931 15.6275 18.3429L17.2927 18.21C17.7822 18.171 18.171 17.7822 18.21 17.2927L18.3429 15.6275C18.3931 14.9982 18.6406 14.4008 19.0501 13.9203L20.1336 12.6488C20.4521 12.2751 20.4521 11.7253 20.1336 11.3516L19.0501 10.0801C18.6406 9.59963 18.3931 9.00221 18.3429 8.37291L18.21 6.70767C18.171 6.21816 17.7822 5.82945 17.2927 5.79039L15.6275 5.6575C14.9982 5.60728 14.4008 5.35982 13.9203 4.95035L12.6488 3.86682Z" fill="#535763"/>
<path d="M11 9.5C11 10.3284 10.3284 11 9.5 11C8.67157 11 8 10.3284 8 9.5C8 8.67157 8.67157 8 9.5 8C10.3284 8 11 8.67157 11 9.5Z" fill="#535763"/>
<path d="M16 14.5C16 15.3284 15.3284 16 14.5 16C13.6716 16 13 15.3284 13 14.5C13 13.6716 13.6716 13 14.5 13C15.3284 13 16 13.6716 16 14.5Z" fill="#535763"/>
<path fill-rule="evenodd" clip-rule="evenodd" d="M15.1402 8.2318C15.5645 8.58537 15.6218 9.21593 15.2682 9.64021L10.2682 15.6402C9.91468 16.0645 9.28412 16.1218 8.85984 15.7682C8.43556 15.4147 8.37824 14.7841 8.7318 14.3598L13.7318 8.35984C14.0854 7.93556 14.7159 7.87824 15.1402 8.2318Z" fill="#535763"/>
</svg>
