<svg width="29" height="29" viewBox="0 0 29 29" fill="none" xmlns="http://www.w3.org/2000/svg">
<path d="M3.84445 25.0829H22.739C24.9855 25.0829 26.2907 23.7776 26.2907 21.2771V11.8604C25.6185 12.1451 24.8943 12.2654 24.1371 12.2307V21.2129C24.1371 22.3482 23.5239 22.9102 22.4493 22.9102H3.83953C2.74781 22.9102 2.1539 22.3482 2.1539 21.2033V8.40075C2.1539 7.26755 2.74781 6.70341 3.83953 6.70341H18.5782C18.517 5.9588 18.6447 5.19545 18.9253 4.53076H3.54984C1.30547 4.53076 0.000244141 5.82639 0.000244141 8.32693V21.2771C0.000244141 23.7872 1.31508 25.0829 3.84445 25.0829ZM13.1636 17.9942C14.0303 17.9942 14.8589 17.6311 15.7003 16.8036L21.2165 11.3769C20.6538 11.0321 20.159 10.5619 19.7662 10.0323L14.5057 15.2246C14.0165 15.7116 13.5953 15.9237 13.1636 15.9237C12.7223 15.9237 12.3128 15.7116 11.8216 15.2246L2.56686 6.08279L1.17609 7.51036L10.6249 16.8036C11.4684 17.6333 12.2873 17.9942 13.1636 17.9942ZM23.7185 23.4739L25.1313 22.0641L16.9699 13.9817L15.5739 15.3966L23.7185 23.4739ZM2.74007 23.3351L10.545 15.5954L9.13852 14.1931L1.33265 21.9296L2.74007 23.3351Z" fill="black"/>
<path d="M24.249 10.5991C26.465 10.5991 28.2985 8.76555 28.2985 6.54953C28.2985 4.33352 26.465 2.5 24.249 2.5C22.0329 2.5 20.209 4.33352 20.209 6.54953C20.209 8.76555 22.0329 10.5991 24.249 10.5991Z" fill="#FE4A49"/>
</svg>
