<svg width="29" height="29" viewBox="0 0 29 29" fill="none" xmlns="http://www.w3.org/2000/svg">
<path d="M3.84812 25.0834H22.7427C24.9892 25.0834 26.2944 23.7781 26.2944 21.2776V11.8609C25.6222 12.1456 24.898 12.2659 24.1408 12.2312V21.2134C24.1408 22.3487 23.5276 22.9107 22.453 22.9107H3.8432C2.75148 22.9107 2.15757 22.3487 2.15757 21.2038V8.40124C2.15757 7.26804 2.75148 6.7039 3.8432 6.7039H18.5819C18.5207 5.95929 18.6484 5.19594 18.929 4.53125H3.55351C1.30914 4.53125 0.00390625 5.82688 0.00390625 8.32742V21.2776C0.00390625 23.7877 1.31875 25.0834 3.84812 25.0834ZM13.1673 17.9947C14.034 17.9947 14.8626 17.6316 15.704 16.8041L21.2202 11.3773C20.6575 11.0326 20.1627 10.5624 19.7699 10.0327L14.5094 15.2251C14.0202 15.7121 13.599 15.9242 13.1673 15.9242C12.726 15.9242 12.3165 15.7121 11.8253 15.2251L2.57053 6.08328L1.17976 7.51085L10.6286 16.8041C11.4721 17.6338 12.291 17.9947 13.1673 17.9947ZM23.7222 23.4744L25.135 22.0646L16.9736 13.9822L15.5776 15.3971L23.7222 23.4744ZM2.74374 23.3356L10.5487 15.5959L9.14219 14.1936L1.33632 21.9301L2.74374 23.3356Z" fill="black"/>
<path d="M24.2509 10.5991C26.4669 10.5991 28.3004 8.76555 28.3004 6.54953C28.3004 4.33352 26.4669 2.5 24.2509 2.5C22.0348 2.5 20.2109 4.33352 20.2109 6.54953C20.2109 8.76555 22.0348 10.5991 24.2509 10.5991Z" fill="#FE4A49"/>
</svg>
