<svg width="29" height="29" viewBox="0 0 29 29" fill="none" xmlns="http://www.w3.org/2000/svg">
<path d="M4.05515 25.0834H22.9497C25.1962 25.0834 26.5014 23.7781 26.5014 21.2776V11.8609C25.8292 12.1456 25.105 12.2659 24.3478 12.2312V21.2134C24.3478 22.3487 23.7346 22.9107 22.66 22.9107H4.05023C2.95851 22.9107 2.3646 22.3487 2.3646 21.2038V8.40124C2.3646 7.26804 2.95851 6.7039 4.05023 6.7039H18.7889C18.7277 5.95929 18.8554 5.19594 19.136 4.53125H3.76054C1.51617 4.53125 0.210938 5.82688 0.210938 8.32742V21.2776C0.210938 23.7877 1.52578 25.0834 4.05515 25.0834ZM13.3743 17.9947C14.241 17.9947 15.0696 17.6316 15.911 16.8041L21.4272 11.3773C20.8645 11.0326 20.3697 10.5624 19.9769 10.0327L14.7164 15.2251C14.2272 15.7121 13.806 15.9242 13.3743 15.9242C12.933 15.9242 12.5235 15.7121 12.0323 15.2251L2.77756 6.08328L1.38679 7.51085L10.8356 16.8041C11.6791 17.6338 12.498 17.9947 13.3743 17.9947ZM23.9292 23.4744L25.342 22.0646L17.1806 13.9822L15.7846 15.3971L23.9292 23.4744ZM2.95077 23.3356L10.7557 15.5959L9.34922 14.1936L1.54335 21.9301L2.95077 23.3356Z" fill="black"/>
<path d="M24.458 10.5991C26.674 10.5991 28.5075 8.76555 28.5075 6.54953C28.5075 4.33352 26.674 2.5 24.458 2.5C22.2419 2.5 20.418 4.33352 20.418 6.54953C20.418 8.76555 22.2419 10.5991 24.458 10.5991Z" fill="#FE4A49"/>
</svg>
