<svg width="29" height="29" viewBox="0 0 29 29" fill="none" xmlns="http://www.w3.org/2000/svg">
<path d="M3.84415 25.083H22.7387C24.9852 25.083 26.2904 23.7777 26.2904 21.2772V11.8605C25.6182 12.1453 24.894 12.2655 24.1368 12.2308V21.213C24.1368 22.3483 23.5236 22.9103 22.449 22.9103H3.83923C2.74751 22.9103 2.1536 22.3483 2.1536 21.2034V8.40087C2.1536 7.26767 2.74751 6.70353 3.83923 6.70353H18.5779C18.5167 5.95892 18.6444 5.19557 18.925 4.53088H3.54954C1.30517 4.53088 -6.10352e-05 5.82651 -6.10352e-05 8.32705V21.2772C-6.10352e-05 23.7873 1.31478 25.083 3.84415 25.083ZM13.1633 17.9943C14.03 17.9943 14.8586 17.6312 15.7 16.8037L21.2162 11.377C20.6535 11.0322 20.1587 10.5621 19.7659 10.0324L14.5054 15.2247C14.0162 15.7117 13.595 15.9238 13.1633 15.9238C12.722 15.9238 12.3125 15.7117 11.8213 15.2247L2.56656 6.08291L1.17579 7.51048L10.6246 16.8037C11.4681 17.6334 12.287 17.9943 13.1633 17.9943ZM23.7182 23.474L25.131 22.0642L16.9696 13.9818L15.5736 15.3967L23.7182 23.474ZM2.73977 23.3352L10.5447 15.5955L9.13822 14.1932L1.33235 21.9297L2.73977 23.3352Z" fill="black"/>
<path d="M24.2486 10.5991C26.4646 10.5991 28.2981 8.76555 28.2981 6.54953C28.2981 4.33352 26.4646 2.5 24.2486 2.5C22.0325 2.5 20.2086 4.33352 20.2086 6.54953C20.2086 8.76555 22.0325 10.5991 24.2486 10.5991Z" fill="#FE4A49"/>
</svg>
