<svg width="29" height="29" viewBox="0 0 29 29" fill="none" xmlns="http://www.w3.org/2000/svg">
<path d="M3.84433 25.0834H22.7389C24.9854 25.0834 26.2906 23.7781 26.2906 21.2776V11.8609C25.6184 12.1456 24.8942 12.2659 24.137 12.2312V21.2134C24.137 22.3487 23.5238 22.9107 22.4492 22.9107H3.83941C2.74769 22.9107 2.15378 22.3487 2.15378 21.2038V8.40124C2.15378 7.26804 2.74769 6.7039 3.83941 6.7039H18.5781C18.5169 5.95929 18.6446 5.19594 18.9252 4.53125H3.54972C1.30535 4.53125 0.00012207 5.82688 0.00012207 8.32742V21.2776C0.00012207 23.7877 1.31496 25.0834 3.84433 25.0834ZM13.1635 17.9947C14.0302 17.9947 14.8588 17.6316 15.7002 16.8041L21.2164 11.3773C20.6537 11.0326 20.1589 10.5624 19.7661 10.0327L14.5056 15.2251C14.0164 15.7121 13.5952 15.9242 13.1635 15.9242C12.7222 15.9242 12.3127 15.7121 11.8215 15.2251L2.56674 6.08328L1.17597 7.51085L10.6248 16.8041C11.4683 17.6338 12.2872 17.9947 13.1635 17.9947ZM23.7184 23.4744L25.1312 22.0646L16.9698 13.9822L15.5738 15.3971L23.7184 23.4744ZM2.73995 23.3356L10.5449 15.5959L9.1384 14.1936L1.33253 21.9301L2.73995 23.3356Z" fill="black"/>
<path d="M24.2472 10.5991C26.4632 10.5991 28.2967 8.76555 28.2967 6.54953C28.2967 4.33352 26.4632 2.5 24.2472 2.5C22.0311 2.5 20.2072 4.33352 20.2072 6.54953C20.2072 8.76555 22.0311 10.5991 24.2472 10.5991Z" fill="#FE4A49"/>
</svg>
