<svg width="29" height="29" viewBox="0 0 29 29" fill="none" xmlns="http://www.w3.org/2000/svg">
<path d="M3.84397 25.0829H22.7386C24.9851 25.0829 26.2903 23.7776 26.2903 21.2771V11.8604C25.6181 12.1451 24.8939 12.2654 24.1367 12.2307V21.2129C24.1367 22.3482 23.5235 22.9102 22.4489 22.9102H3.83905C2.74733 22.9102 2.15342 22.3482 2.15342 21.2033V8.40075C2.15342 7.26755 2.74733 6.70341 3.83905 6.70341H18.5778C18.5166 5.9588 18.6443 5.19545 18.9249 4.53076H3.54936C1.30499 4.53076 -0.000244141 5.82639 -0.000244141 8.32693V21.2771C-0.000244141 23.7872 1.3146 25.0829 3.84397 25.0829ZM13.1632 17.9942C14.0299 17.9942 14.8585 17.6311 15.6999 16.8036L21.2161 11.3769C20.6534 11.0321 20.1586 10.5619 19.7658 10.0323L14.5053 15.2246C14.0161 15.7116 13.5949 15.9237 13.1632 15.9237C12.7219 15.9237 12.3124 15.7116 11.8212 15.2246L2.56638 6.08279L1.17561 7.51036L10.6245 16.8036C11.468 17.6333 12.2869 17.9942 13.1632 17.9942ZM23.7181 23.4739L25.1309 22.0641L16.9695 13.9817L15.5735 15.3966L23.7181 23.4739ZM2.73959 23.3351L10.5446 15.5954L9.13804 14.1931L1.33217 21.9296L2.73959 23.3351Z" fill="black"/>
<path d="M24.2485 10.5991C26.4645 10.5991 28.298 8.76555 28.298 6.54953C28.298 4.33352 26.4645 2.5 24.2485 2.5C22.0324 2.5 20.2085 4.33352 20.2085 6.54953C20.2085 8.76555 22.0324 10.5991 24.2485 10.5991Z" fill="#FE4A49"/>
</svg>
