<svg width="29" height="29" viewBox="0 0 29 29" fill="none" xmlns="http://www.w3.org/2000/svg">
<path d="M3.84421 25.083H22.7388C24.9853 25.083 26.2905 23.7777 26.2905 21.2772V11.8605C25.6183 12.1453 24.8941 12.2655 24.1369 12.2308V21.213C24.1369 22.3483 23.5237 22.9103 22.4491 22.9103H3.83929C2.74757 22.9103 2.15366 22.3483 2.15366 21.2034V8.40087C2.15366 7.26767 2.74757 6.70353 3.83929 6.70353H18.578C18.5168 5.95892 18.6445 5.19557 18.9251 4.53088H3.5496C1.30523 4.53088 0 5.82651 0 8.32705V21.2772C0 23.7873 1.31484 25.083 3.84421 25.083ZM13.1634 17.9943C14.0301 17.9943 14.8587 17.6312 15.7001 16.8037L21.2163 11.377C20.6536 11.0322 20.1588 10.5621 19.766 10.0324L14.5055 15.2247C14.0163 15.7117 13.5951 15.9238 13.1634 15.9238C12.7221 15.9238 12.3126 15.7117 11.8214 15.2247L2.56662 6.08291L1.17585 7.51048L10.6247 16.8037C11.4682 17.6334 12.2871 17.9943 13.1634 17.9943ZM23.7183 23.474L25.1311 22.0642L16.9697 13.9818L15.5737 15.3967L23.7183 23.474ZM2.73983 23.3352L10.5448 15.5955L9.13828 14.1932L1.33241 21.9297L2.73983 23.3352Z" fill="black"/>
<path d="M24.2487 10.5991C26.4647 10.5991 28.2982 8.76555 28.2982 6.54953C28.2982 4.33352 26.4647 2.5 24.2487 2.5C22.0326 2.5 20.2087 4.33352 20.2087 6.54953C20.2087 8.76555 22.0326 10.5991 24.2487 10.5991Z" fill="#FE4A49"/>
</svg>
