<svg width="29" height="29" viewBox="0 0 29 29" fill="none" xmlns="http://www.w3.org/2000/svg">
<path d="M3.84421 25.0829H22.7388C24.9853 25.0829 26.2905 23.7776 26.2905 21.2771V11.8604C25.6183 12.1451 24.8941 12.2654 24.1369 12.2307V21.2129C24.1369 22.3482 23.5237 22.9102 22.4491 22.9102H3.83929C2.74757 22.9102 2.15366 22.3482 2.15366 21.2033V8.40075C2.15366 7.26755 2.74757 6.70341 3.83929 6.70341H18.578C18.5168 5.9588 18.6445 5.19545 18.9251 4.53076H3.5496C1.30523 4.53076 0 5.82639 0 8.32693V21.2771C0 23.7872 1.31484 25.0829 3.84421 25.0829ZM13.1634 17.9942C14.0301 17.9942 14.8587 17.6311 15.7001 16.8036L21.2163 11.3769C20.6536 11.0321 20.1588 10.5619 19.766 10.0323L14.5055 15.2246C14.0163 15.7116 13.5951 15.9237 13.1634 15.9237C12.7221 15.9237 12.3126 15.7116 11.8214 15.2246L2.56662 6.08279L1.17585 7.51036L10.6247 16.8036C11.4682 17.6333 12.2871 17.9942 13.1634 17.9942ZM23.7183 23.4739L25.1311 22.0641L16.9697 13.9817L15.5737 15.3966L23.7183 23.4739ZM2.73983 23.3351L10.5448 15.5954L9.13828 14.1931L1.33241 21.9296L2.73983 23.3351Z" fill="black"/>
<path d="M24.2485 10.5991C26.4645 10.5991 28.298 8.76555 28.298 6.54953C28.298 4.33352 26.4645 2.5 24.2485 2.5C22.0324 2.5 20.2085 4.33352 20.2085 6.54953C20.2085 8.76555 22.0324 10.5991 24.2485 10.5991Z" fill="#FE4A49"/>
</svg>
