<svg width="29" height="29" viewBox="0 0 29 29" fill="none" xmlns="http://www.w3.org/2000/svg">
<path d="M4.05661 25.083H22.9512C25.1977 25.083 26.5029 23.7777 26.5029 21.2772V11.8605C25.8307 12.1452 25.1065 12.2655 24.3493 12.2308V21.213C24.3493 22.3483 23.7361 22.9103 22.6615 22.9103H4.05169C2.95997 22.9103 2.36606 22.3483 2.36606 21.2034V8.40085C2.36606 7.26765 2.95997 6.70351 4.05169 6.70351H18.7904C18.7292 5.9589 18.8569 5.19555 19.1375 4.53086H3.762C1.51763 4.53086 0.212402 5.82649 0.212402 8.32703V21.2772C0.212402 23.7873 1.52724 25.083 4.05661 25.083ZM13.3758 17.9943C14.2425 17.9943 15.0711 17.6312 15.9125 16.8037L21.4287 11.377C20.866 11.0322 20.3712 10.562 19.9784 10.0324L14.7179 15.2247C14.2287 15.7117 13.8075 15.9238 13.3758 15.9238C12.9345 15.9238 12.525 15.7117 12.0338 15.2247L2.77902 6.08289L1.38825 7.51046L10.8371 16.8037C11.6806 17.6334 12.4995 17.9943 13.3758 17.9943ZM23.9307 23.474L25.3435 22.0642L17.1821 13.9818L15.7861 15.3967L23.9307 23.474ZM2.95223 23.3352L10.7572 15.5955L9.35068 14.1932L1.54481 21.9297L2.95223 23.3352Z" fill="black"/>
<path d="M24.4609 10.5991C26.6769 10.5991 28.5104 8.76555 28.5104 6.54953C28.5104 4.33352 26.6769 2.5 24.4609 2.5C22.2448 2.5 20.4209 4.33352 20.4209 6.54953C20.4209 8.76555 22.2448 10.5991 24.4609 10.5991Z" fill="#FE4A49"/>
</svg>
