<svg width="29" height="29" viewBox="0 0 29 29" fill="none" xmlns="http://www.w3.org/2000/svg">
<path d="M3.84433 25.0829H22.7389C24.9854 25.0829 26.2906 23.7776 26.2906 21.2771V11.8604C25.6184 12.1451 24.8942 12.2654 24.137 12.2307V21.2129C24.137 22.3482 23.5238 22.9102 22.4492 22.9102H3.83941C2.74769 22.9102 2.15378 22.3482 2.15378 21.2033V8.40075C2.15378 7.26755 2.74769 6.70341 3.83941 6.70341H18.5781C18.5169 5.9588 18.6446 5.19545 18.9252 4.53076H3.54972C1.30535 4.53076 0.00012207 5.82639 0.00012207 8.32693V21.2771C0.00012207 23.7872 1.31496 25.0829 3.84433 25.0829ZM13.1635 17.9942C14.0302 17.9942 14.8588 17.6311 15.7002 16.8036L21.2164 11.3769C20.6537 11.0321 20.1589 10.5619 19.7661 10.0323L14.5056 15.2246C14.0164 15.7116 13.5952 15.9237 13.1635 15.9237C12.7222 15.9237 12.3127 15.7116 11.8215 15.2246L2.56674 6.08279L1.17597 7.51036L10.6248 16.8036C11.4683 17.6333 12.2872 17.9942 13.1635 17.9942ZM23.7184 23.4739L25.1312 22.0641L16.9698 13.9817L15.5738 15.3966L23.7184 23.4739ZM2.73995 23.3351L10.5449 15.5954L9.1384 14.1931L1.33253 21.9296L2.73995 23.3351Z" fill="black"/>
<path d="M24.2488 10.5991C26.4648 10.5991 28.2983 8.76555 28.2983 6.54953C28.2983 4.33352 26.4648 2.5 24.2488 2.5C22.0327 2.5 20.2088 4.33352 20.2088 6.54953C20.2088 8.76555 22.0327 10.5991 24.2488 10.5991Z" fill="#FE4A49"/>
</svg>
