<svg width="29" height="29" viewBox="0 0 29 29" fill="none" xmlns="http://www.w3.org/2000/svg">
<path d="M3.84445 25.083H22.739C24.9855 25.083 26.2907 23.7777 26.2907 21.2772V11.8605C25.6185 12.1453 24.8943 12.2655 24.1371 12.2308V21.213C24.1371 22.3483 23.5239 22.9103 22.4493 22.9103H3.83953C2.74781 22.9103 2.1539 22.3483 2.1539 21.2034V8.40087C2.1539 7.26767 2.74781 6.70353 3.83953 6.70353H18.5782C18.517 5.95892 18.6447 5.19557 18.9253 4.53088H3.54984C1.30547 4.53088 0.000244141 5.82651 0.000244141 8.32705V21.2772C0.000244141 23.7873 1.31508 25.083 3.84445 25.083ZM13.1636 17.9943C14.0303 17.9943 14.8589 17.6312 15.7003 16.8037L21.2165 11.377C20.6538 11.0322 20.159 10.5621 19.7662 10.0324L14.5057 15.2247C14.0165 15.7117 13.5953 15.9238 13.1636 15.9238C12.7223 15.9238 12.3128 15.7117 11.8216 15.2247L2.56686 6.08291L1.17609 7.51048L10.6249 16.8037C11.4684 17.6334 12.2873 17.9943 13.1636 17.9943ZM23.7185 23.474L25.1313 22.0642L16.9699 13.9818L15.5739 15.3967L23.7185 23.474ZM2.74007 23.3352L10.545 15.5955L9.13852 14.1932L1.33265 21.9297L2.74007 23.3352Z" fill="black"/>
<path d="M24.249 10.5991C26.465 10.5991 28.2985 8.76555 28.2985 6.54953C28.2985 4.33352 26.465 2.5 24.249 2.5C22.0329 2.5 20.209 4.33352 20.209 6.54953C20.209 8.76555 22.0329 10.5991 24.249 10.5991Z" fill="#FE4A49"/>
</svg>
