<svg width="29" height="29" viewBox="0 0 29 29" fill="none" xmlns="http://www.w3.org/2000/svg">
<path d="M3.84433 25.083H22.7389C24.9854 25.083 26.2906 23.7777 26.2906 21.2772V11.8605C25.6184 12.1453 24.8942 12.2655 24.137 12.2308V21.213C24.137 22.3483 23.5238 22.9103 22.4492 22.9103H3.83941C2.74769 22.9103 2.15378 22.3483 2.15378 21.2034V8.40087C2.15378 7.26767 2.74769 6.70353 3.83941 6.70353H18.5781C18.5169 5.95892 18.6446 5.19557 18.9252 4.53088H3.54972C1.30535 4.53088 0.00012207 5.82651 0.00012207 8.32705V21.2772C0.00012207 23.7873 1.31496 25.083 3.84433 25.083ZM13.1635 17.9943C14.0302 17.9943 14.8588 17.6312 15.7002 16.8037L21.2164 11.377C20.6537 11.0322 20.1589 10.5621 19.7661 10.0324L14.5056 15.2247C14.0164 15.7117 13.5952 15.9238 13.1635 15.9238C12.7222 15.9238 12.3127 15.7117 11.8215 15.2247L2.56674 6.08291L1.17597 7.51048L10.6248 16.8037C11.4683 17.6334 12.2872 17.9943 13.1635 17.9943ZM23.7184 23.474L25.1312 22.0642L16.9698 13.9818L15.5738 15.3967L23.7184 23.474ZM2.73995 23.3352L10.5449 15.5955L9.1384 14.1932L1.33253 21.9297L2.73995 23.3352Z" fill="black"/>
<path d="M24.2488 10.5991C26.4648 10.5991 28.2983 8.76555 28.2983 6.54953C28.2983 4.33352 26.4648 2.5 24.2488 2.5C22.0327 2.5 20.2088 4.33352 20.2088 6.54953C20.2088 8.76555 22.0327 10.5991 24.2488 10.5991Z" fill="#FE4A49"/>
</svg>
