<svg width="23" height="29" viewBox="0 0 23 29" fill="none" xmlns="http://www.w3.org/2000/svg">
<path d="M-0.000244141 21.1183C-0.000244141 22.1109 0.740378 22.7662 1.95913 22.7662H6.7821C6.87585 25.0194 8.70655 27.0653 11.3628 27.0653C14.0306 27.0653 15.8613 25.0194 15.9551 22.7662H20.7781C21.9872 22.7662 22.7374 22.1109 22.7374 21.1183C22.7374 19.8726 21.5885 18.8052 20.5364 17.7812C19.7208 16.9832 19.5267 15.3845 19.3718 13.8281C19.358 13.1516 19.3036 12.5254 19.2396 11.9184C18.5538 12.1933 17.6902 12.3093 16.9578 12.2184C17.0196 12.7635 17.0623 13.3492 17.074 14.031C17.1921 16.255 17.5821 17.9418 18.3741 18.8666C18.9572 19.5252 19.6064 20.1534 19.9081 20.4869V20.6233H2.7963V20.4869C3.09583 20.1534 3.77786 19.5252 4.35349 18.8666C5.16138 17.9418 5.54083 16.255 5.66318 14.031C5.79489 9.27061 7.25505 7.68178 9.14506 7.17108C9.42959 7.10288 9.59365 6.96858 9.61592 6.6428C9.67427 5.45358 10.3374 4.65084 11.3628 4.65084C11.561 4.65084 11.7497 4.67217 11.9053 4.73826C12.1174 4.04522 12.4779 3.40843 12.9626 2.87875C12.491 2.63406 11.9524 2.5 11.3628 2.5C9.62319 2.5 8.31959 3.6775 7.88225 5.24008C4.8178 6.34399 3.53178 9.30578 3.37804 13.7458C3.22734 15.3592 3.02695 16.9748 2.20078 17.7812C1.13906 18.8052 -0.000244141 19.8726 -0.000244141 21.1183ZM8.99201 22.7662H13.7452C13.6557 24.2439 12.6985 25.1852 11.3628 25.1852C10.0388 25.1852 9.07193 24.2439 8.99201 22.7662Z" fill="black"/>
<path d="M17.2244 10.6827C19.4308 10.6827 21.2739 8.85881 21.2739 6.64279C21.2739 4.41717 19.4308 2.59326 17.2244 2.59326C14.9987 2.59326 13.1748 4.41717 13.1748 6.64279C13.1748 8.85881 14.9987 10.6827 17.2244 10.6827Z" fill="#FE4A49"/>
</svg>
