<svg width="23" height="29" viewBox="0 0 23 29" fill="none" xmlns="http://www.w3.org/2000/svg">
<path d="M0.000244141 21.1183C0.000244141 22.1109 0.740866 22.7662 1.95961 22.7662H6.78258C6.87633 25.0194 8.70703 27.0653 11.3632 27.0653C14.031 27.0653 15.8617 25.0194 15.9555 22.7662H20.7785C21.9876 22.7662 22.7378 22.1109 22.7378 21.1183C22.7378 19.8726 21.5889 18.8052 20.5368 17.7812C19.7212 16.9832 19.5271 15.3845 19.3722 13.8281C19.3584 13.1516 19.304 12.5254 19.24 11.9184C18.5542 12.1933 17.6906 12.3093 16.9582 12.2184C17.02 12.7635 17.0627 13.3492 17.0744 14.031C17.1925 16.255 17.5825 17.9418 18.3745 18.8666C18.9576 19.5252 19.6068 20.1534 19.9085 20.4869V20.6233H2.79678V20.4869C3.09631 20.1534 3.77834 19.5252 4.35397 18.8666C5.16186 17.9418 5.54131 16.255 5.66366 14.031C5.79537 9.27061 7.25553 7.68178 9.14554 7.17108C9.43007 7.10288 9.59413 6.96858 9.6164 6.6428C9.67475 5.45358 10.3378 4.65084 11.3632 4.65084C11.5614 4.65084 11.7501 4.67217 11.9057 4.73826C12.1178 4.04522 12.4783 3.40843 12.963 2.87875C12.4914 2.63406 11.9528 2.5 11.3632 2.5C9.62367 2.5 8.32007 3.6775 7.88273 5.24008C4.81828 6.34399 3.53226 9.30578 3.37852 13.7458C3.22782 15.3592 3.02743 16.9748 2.20126 17.7812C1.13954 18.8052 0.000244141 19.8726 0.000244141 21.1183ZM8.99249 22.7662H13.7456C13.6561 24.2439 12.6989 25.1852 11.3632 25.1852C10.0392 25.1852 9.07241 24.2439 8.99249 22.7662Z" fill="black"/>
<path d="M17.2249 10.6825C19.4313 10.6825 21.2744 8.85858 21.2744 6.64256C21.2744 4.41694 19.4313 2.59303 17.2249 2.59303C14.9992 2.59303 13.1753 4.41694 13.1753 6.64256C13.1753 8.85858 14.9992 10.6825 17.2249 10.6825Z" fill="#FE4A49"/>
</svg>
