<svg width="23" height="29" viewBox="0 0 23 29" fill="none" xmlns="http://www.w3.org/2000/svg">
<path d="M0.00012207 21.1183C0.00012207 22.1109 0.740744 22.7662 1.95949 22.7662H6.78246C6.87621 25.0194 8.70691 27.0653 11.3631 27.0653C14.0309 27.0653 15.8616 25.0194 15.9554 22.7662H20.7784C21.9875 22.7662 22.7377 22.1109 22.7377 21.1183C22.7377 19.8726 21.5888 18.8052 20.5367 17.7812C19.7211 16.9832 19.527 15.3845 19.3721 13.8281C19.3583 13.1516 19.3039 12.5254 19.2399 11.9184C18.5541 12.1933 17.6905 12.3093 16.9581 12.2184C17.0199 12.7635 17.0626 13.3492 17.0743 14.031C17.1924 16.255 17.5824 17.9418 18.3744 18.8666C18.9575 19.5252 19.6067 20.1534 19.9084 20.4869V20.6233H2.79666V20.4869C3.09619 20.1534 3.77822 19.5252 4.35385 18.8666C5.16174 17.9418 5.54119 16.255 5.66354 14.031C5.79525 9.27061 7.25541 7.68178 9.14542 7.17108C9.42995 7.10288 9.59401 6.96858 9.61628 6.6428C9.67463 5.45358 10.3377 4.65084 11.3631 4.65084C11.5613 4.65084 11.75 4.67217 11.9056 4.73826C12.1177 4.04522 12.4782 3.40843 12.9629 2.87875C12.4913 2.63406 11.9527 2.5 11.3631 2.5C9.62355 2.5 8.31995 3.6775 7.88261 5.24008C4.81816 6.34399 3.53214 9.30578 3.3784 13.7458C3.2277 15.3592 3.02731 16.9748 2.20114 17.7812C1.13942 18.8052 0.00012207 19.8726 0.00012207 21.1183ZM8.99237 22.7662H13.7455C13.656 24.2439 12.6988 25.1852 11.3631 25.1852C10.0391 25.1852 9.07229 24.2439 8.99237 22.7662Z" fill="black"/>
<path d="M17.2248 10.6825C19.4312 10.6825 21.2743 8.85857 21.2743 6.64255C21.2743 4.41693 19.4312 2.59302 17.2248 2.59302C14.9991 2.59302 13.1752 4.41693 13.1752 6.64255C13.1752 8.85857 14.9991 10.6825 17.2248 10.6825Z" fill="#FE4A49"/>
</svg>
