<svg width="23" height="29" viewBox="0 0 23 29" fill="none" xmlns="http://www.w3.org/2000/svg">
<path d="M-6.10352e-05 21.1183C-6.10352e-05 22.1109 0.740561 22.7662 1.95931 22.7662H6.78228C6.87603 25.0194 8.70673 27.0653 11.3629 27.0653C14.0307 27.0653 15.8614 25.0194 15.9552 22.7662H20.7782C21.9873 22.7662 22.7375 22.1109 22.7375 21.1183C22.7375 19.8726 21.5886 18.8052 20.5365 17.7812C19.7209 16.9832 19.5268 15.3845 19.3719 13.8281C19.3581 13.1516 19.3037 12.5254 19.2397 11.9184C18.5539 12.1933 17.6903 12.3093 16.9579 12.2184C17.0197 12.7635 17.0624 13.3492 17.0741 14.031C17.1922 16.255 17.5822 17.9418 18.3742 18.8666C18.9573 19.5252 19.6065 20.1534 19.9082 20.4869V20.6233H2.79648V20.4869C3.09601 20.1534 3.77804 19.5252 4.35367 18.8666C5.16156 17.9418 5.54101 16.255 5.66336 14.031C5.79507 9.27061 7.25523 7.68178 9.14524 7.17108C9.42977 7.10288 9.59383 6.96858 9.6161 6.6428C9.67445 5.45358 10.3375 4.65084 11.3629 4.65084C11.5611 4.65084 11.7498 4.67217 11.9054 4.73826C12.1175 4.04522 12.478 3.40843 12.9627 2.87875C12.4911 2.63406 11.9525 2.5 11.3629 2.5C9.62337 2.5 8.31977 3.6775 7.88243 5.24008C4.81798 6.34399 3.53196 9.30578 3.37822 13.7458C3.22752 15.3592 3.02713 16.9748 2.20096 17.7812C1.13924 18.8052 -6.10352e-05 19.8726 -6.10352e-05 21.1183ZM8.99219 22.7662H13.7453C13.6558 24.2439 12.6986 25.1852 11.3629 25.1852C10.0389 25.1852 9.07211 24.2439 8.99219 22.7662Z" fill="black"/>
<path d="M17.2246 10.6825C19.431 10.6825 21.2741 8.85857 21.2741 6.64255C21.2741 4.41693 19.431 2.59302 17.2246 2.59302C14.9989 2.59302 13.175 4.41693 13.175 6.64255C13.175 8.85857 14.9989 10.6825 17.2246 10.6825Z" fill="#FE4A49"/>
</svg>
