<svg width="23" height="29" viewBox="0 0 23 29" fill="none" xmlns="http://www.w3.org/2000/svg">
<path d="M0.00390625 21.1183C0.00390625 22.1109 0.744528 22.7662 1.96328 22.7662H6.78625C6.88 25.0194 8.7107 27.0653 11.3669 27.0653C14.0347 27.0653 15.8654 25.0194 15.9592 22.7662H20.7822C21.9913 22.7662 22.7415 22.1109 22.7415 21.1183C22.7415 19.8726 21.5926 18.8052 20.5405 17.7812C19.7249 16.9832 19.5308 15.3845 19.3759 13.8281C19.3621 13.1516 19.3077 12.5254 19.2437 11.9184C18.5579 12.1933 17.6943 12.3093 16.9619 12.2184C17.0237 12.7635 17.0664 13.3492 17.0781 14.031C17.1962 16.255 17.5862 17.9418 18.3782 18.8666C18.9613 19.5252 19.6105 20.1534 19.9122 20.4869V20.6233H2.80045V20.4869C3.09998 20.1534 3.78201 19.5252 4.35764 18.8666C5.16553 17.9418 5.54498 16.255 5.66733 14.031C5.79904 9.27061 7.2592 7.68178 9.14921 7.17108C9.43374 7.10288 9.5978 6.96858 9.62007 6.6428C9.67842 5.45358 10.3415 4.65084 11.3669 4.65084C11.5651 4.65084 11.7538 4.67217 11.9094 4.73826C12.1215 4.04522 12.482 3.40843 12.9667 2.87875C12.4951 2.63406 11.9565 2.5 11.3669 2.5C9.62734 2.5 8.32374 3.6775 7.8864 5.24008C4.82195 6.34399 3.53593 9.30578 3.38219 13.7458C3.23149 15.3592 3.0311 16.9748 2.20493 17.7812C1.14321 18.8052 0.00390625 19.8726 0.00390625 21.1183ZM8.99616 22.7662H13.7493C13.6598 24.2439 12.7026 25.1852 11.3669 25.1852C10.0429 25.1852 9.07608 24.2439 8.99616 22.7662Z" fill="black"/>
<path d="M17.2293 10.6832C19.4357 10.6832 21.2788 8.8593 21.2788 6.64328C21.2788 4.41766 19.4357 2.59375 17.2293 2.59375C15.0036 2.59375 13.1797 4.41766 13.1797 6.64328C13.1797 8.8593 15.0036 10.6832 17.2293 10.6832Z" fill="#FE4A49"/>
</svg>
