<svg width="23" height="29" viewBox="0 0 23 29" fill="none" xmlns="http://www.w3.org/2000/svg">
<path d="M0 21.1183C0 22.1109 0.740622 22.7662 1.95937 22.7662H6.78234C6.87609 25.0194 8.70679 27.0653 11.363 27.0653C14.0308 27.0653 15.8615 25.0194 15.9553 22.7662H20.7783C21.9874 22.7662 22.7376 22.1109 22.7376 21.1183C22.7376 19.8726 21.5887 18.8052 20.5366 17.7812C19.721 16.9832 19.5269 15.3845 19.372 13.8281C19.3582 13.1516 19.3038 12.5254 19.2398 11.9184C18.554 12.1933 17.6904 12.3093 16.958 12.2184C17.0198 12.7635 17.0625 13.3492 17.0742 14.031C17.1923 16.255 17.5823 17.9418 18.3743 18.8666C18.9574 19.5252 19.6066 20.1534 19.9083 20.4869V20.6233H2.79654V20.4869C3.09607 20.1534 3.7781 19.5252 4.35373 18.8666C5.16162 17.9418 5.54107 16.255 5.66342 14.031C5.79513 9.27061 7.25529 7.68178 9.1453 7.17108C9.42983 7.10288 9.59389 6.96858 9.61616 6.6428C9.67451 5.45358 10.3376 4.65084 11.363 4.65084C11.5612 4.65084 11.7499 4.67217 11.9055 4.73826C12.1176 4.04522 12.4781 3.40843 12.9628 2.87875C12.4912 2.63406 11.9526 2.5 11.363 2.5C9.62343 2.5 8.31983 3.6775 7.88249 5.24008C4.81804 6.34399 3.53202 9.30578 3.37828 13.7458C3.22758 15.3592 3.02719 16.9748 2.20102 17.7812C1.1393 18.8052 0 19.8726 0 21.1183ZM8.99225 22.7662H13.7454C13.6559 24.2439 12.6987 25.1852 11.363 25.1852C10.039 25.1852 9.07217 24.2439 8.99225 22.7662Z" fill="black"/>
<path d="M17.2247 10.6825C19.4311 10.6825 21.2742 8.85857 21.2742 6.64255C21.2742 4.41693 19.4311 2.59302 17.2247 2.59302C14.999 2.59302 13.1751 4.41693 13.1751 6.64255C13.1751 8.85857 14.999 10.6825 17.2247 10.6825Z" fill="#FE4A49"/>
</svg>
