<svg width="23" height="29" viewBox="0 0 23 29" fill="none" xmlns="http://www.w3.org/2000/svg">
<path d="M0.212402 21.1183C0.212402 22.1109 0.953024 22.7662 2.17177 22.7662H6.99474C7.08849 25.0194 8.91919 27.0653 11.5754 27.0653C14.2432 27.0653 16.0739 25.0194 16.1677 22.7662H20.9907C22.1998 22.7662 22.95 22.1109 22.95 21.1183C22.95 19.8726 21.8011 18.8052 20.749 17.7812C19.9334 16.9832 19.7393 15.3845 19.5844 13.8281C19.5706 13.1516 19.5162 12.5254 19.4522 11.9184C18.7664 12.1933 17.9028 12.3093 17.1704 12.2184C17.2322 12.7635 17.2749 13.3492 17.2866 14.031C17.4047 16.255 17.7947 17.9418 18.5867 18.8666C19.1698 19.5252 19.819 20.1534 20.1207 20.4869V20.6233H3.00894V20.4869C3.30847 20.1534 3.9905 19.5252 4.56613 18.8666C5.37402 17.9418 5.75347 16.255 5.87582 14.031C6.00753 9.27061 7.46769 7.68178 9.3577 7.17108C9.64223 7.10288 9.80629 6.96858 9.82856 6.6428C9.88691 5.45358 10.55 4.65084 11.5754 4.65084C11.7736 4.65084 11.9623 4.67217 12.1179 4.73826C12.33 4.04522 12.6905 3.40843 13.1752 2.87875C12.7036 2.63406 12.165 2.5 11.5754 2.5C9.83583 2.5 8.53223 3.6775 8.09489 5.24008C5.03044 6.34399 3.74442 9.30578 3.59068 13.7458C3.43998 15.3592 3.23959 16.9748 2.41342 17.7812C1.3517 18.8052 0.212402 19.8726 0.212402 21.1183ZM9.20465 22.7662H13.9578C13.8683 24.2439 12.9111 25.1852 11.5754 25.1852C10.2514 25.1852 9.28457 24.2439 9.20465 22.7662Z" fill="black"/>
<path d="M17.4373 10.6825C19.6437 10.6825 21.4868 8.85859 21.4868 6.64257C21.4868 4.41695 19.6437 2.59304 17.4373 2.59304C15.2116 2.59304 13.3877 4.41695 13.3877 6.64257C13.3877 8.85859 15.2116 10.6825 17.4373 10.6825Z" fill="#FE4A49"/>
</svg>
