<svg width="50" height="9" viewBox="0 0 50 9" fill="none" xmlns="http://www.w3.org/2000/svg">
<path d="M44.9999 7.20208L42.8186 8.42509C42.7223 8.48217 42.6215 8.50662 42.5164 8.49847C42.4113 8.49032 42.3193 8.45771 42.2405 8.40063C42.1616 8.34356 42.1003 8.2723 42.0565 8.18685C42.0127 8.10108 42.0039 8.00519 42.0302 7.8992L42.6084 5.58771L40.6768 4.03449C40.5892 3.96111 40.5345 3.87746 40.5128 3.78353C40.4907 3.68993 40.4972 3.59829 40.5322 3.5086C40.5673 3.41891 40.6198 3.34553 40.6899 3.28846C40.76 3.23138 40.8564 3.19469 40.979 3.17839L43.5282 2.97048L44.5137 0.793522C44.5575 0.695681 44.6255 0.622301 44.7177 0.573381C44.8095 0.52446 44.9035 0.5 44.9999 0.5C45.0963 0.5 45.1905 0.52446 45.2827 0.573381C45.3745 0.622301 45.4423 0.695681 45.4861 0.793522L46.4716 2.97048L49.0208 3.17839C49.1434 3.19469 49.2398 3.23138 49.3099 3.28846C49.38 3.34553 49.4325 3.41891 49.4676 3.5086C49.5026 3.59829 49.5093 3.68993 49.4875 3.78353C49.4655 3.87746 49.4106 3.96111 49.323 4.03449L47.3914 5.58771L47.9696 7.8992C47.9959 8.00519 47.9871 8.10108 47.9433 8.18685C47.8995 8.2723 47.8382 8.34356 47.7593 8.40063C47.6805 8.45771 47.5885 8.49032 47.4834 8.49847C47.3783 8.50662 47.2775 8.48217 47.1812 8.42509L44.9999 7.20208Z" fill="#DEB00F"/>
<path d="M34.9999 7.20208L32.8186 8.42509C32.7223 8.48217 32.6215 8.50662 32.5164 8.49847C32.4113 8.49032 32.3193 8.45771 32.2405 8.40063C32.1616 8.34356 32.1003 8.2723 32.0565 8.18685C32.0127 8.10108 32.0039 8.00519 32.0302 7.8992L32.6084 5.58771L30.6768 4.03449C30.5892 3.96111 30.5345 3.87746 30.5128 3.78353C30.4907 3.68993 30.4972 3.59829 30.5322 3.5086C30.5673 3.41891 30.6198 3.34553 30.6899 3.28846C30.76 3.23138 30.8564 3.19469 30.979 3.17839L33.5282 2.97048L34.5137 0.793522C34.5575 0.695681 34.6255 0.622301 34.7177 0.573381C34.8095 0.52446 34.9035 0.5 34.9999 0.5C35.0963 0.5 35.1905 0.52446 35.2827 0.573381C35.3745 0.622301 35.4423 0.695681 35.4861 0.793522L36.4716 2.97048L39.0208 3.17839C39.1434 3.19469 39.2398 3.23138 39.3099 3.28846C39.38 3.34553 39.4325 3.41891 39.4676 3.5086C39.5026 3.59829 39.5093 3.68993 39.4875 3.78353C39.4655 3.87746 39.4106 3.96111 39.323 4.03449L37.3914 5.58771L37.9696 7.8992C37.9959 8.00519 37.9871 8.10108 37.9433 8.18685C37.8995 8.2723 37.8382 8.34356 37.7593 8.40063C37.6805 8.45771 37.5885 8.49032 37.4834 8.49847C37.3783 8.50662 37.2775 8.48217 37.1812 8.42509L34.9999 7.20208Z" fill="#DEB00F"/>
<path d="M24.9999 7.20208L22.8186 8.42509C22.7223 8.48217 22.6215 8.50662 22.5164 8.49847C22.4113 8.49032 22.3193 8.45771 22.2405 8.40063C22.1616 8.34356 22.1003 8.2723 22.0565 8.18685C22.0127 8.10108 22.0039 8.00519 22.0302 7.8992L22.6084 5.58771L20.6768 4.03449C20.5892 3.96111 20.5345 3.87746 20.5128 3.78353C20.4907 3.68993 20.4972 3.59829 20.5322 3.5086C20.5673 3.41891 20.6198 3.34553 20.6899 3.28846C20.76 3.23138 20.8564 3.19469 20.979 3.17839L23.5282 2.97048L24.5137 0.793522C24.5575 0.695681 24.6255 0.622301 24.7177 0.573381C24.8095 0.52446 24.9035 0.5 24.9999 0.5C25.0963 0.5 25.1905 0.52446 25.2827 0.573381C25.3745 0.622301 25.4423 0.695681 25.4861 0.793522L26.4716 2.97048L29.0208 3.17839C29.1434 3.19469 29.2398 3.23138 29.3099 3.28846C29.38 3.34553 29.4325 3.41891 29.4676 3.5086C29.5026 3.59829 29.5093 3.68993 29.4875 3.78353C29.4655 3.87746 29.4106 3.96111 29.323 4.03449L27.3914 5.58771L27.9696 7.8992C27.9959 8.00519 27.9871 8.10108 27.9433 8.18685C27.8995 8.2723 27.8382 8.34356 27.7593 8.40063C27.6805 8.45771 27.5885 8.49032 27.4834 8.49847C27.3783 8.50662 27.2775 8.48217 27.1812 8.42509L24.9999 7.20208Z" fill="#DEB00F"/>
<path d="M14.9999 7.20208L12.8186 8.42509C12.7223 8.48217 12.6215 8.50662 12.5164 8.49847C12.4113 8.49032 12.3193 8.45771 12.2405 8.40063C12.1616 8.34356 12.1003 8.2723 12.0565 8.18685C12.0127 8.10108 12.0039 8.00519 12.0302 7.8992L12.6084 5.58771L10.6768 4.03449C10.5892 3.96111 10.5345 3.87746 10.5128 3.78353C10.4907 3.68993 10.4972 3.59829 10.5322 3.5086C10.5673 3.41891 10.6198 3.34553 10.6899 3.28846C10.76 3.23138 10.8564 3.19469 10.979 3.17839L13.5282 2.97048L14.5137 0.793522C14.5575 0.695681 14.6255 0.622301 14.7177 0.573381C14.8095 0.52446 14.9035 0.5 14.9999 0.5C15.0963 0.5 15.1905 0.52446 15.2827 0.573381C15.3745 0.622301 15.4423 0.695681 15.4861 0.793522L16.4716 2.97048L19.0208 3.17839C19.1434 3.19469 19.2398 3.23138 19.3099 3.28846C19.38 3.34553 19.4325 3.41891 19.4676 3.5086C19.5026 3.59829 19.5093 3.68993 19.4875 3.78353C19.4655 3.87746 19.4106 3.96111 19.323 4.03449L17.3914 5.58771L17.9696 7.8992C17.9959 8.00519 17.9871 8.10108 17.9433 8.18685C17.8995 8.2723 17.8382 8.34356 17.7593 8.40063C17.6805 8.45771 17.5885 8.49032 17.4834 8.49847C17.3783 8.50662 17.2775 8.48217 17.1812 8.42509L14.9999 7.20208Z" fill="#DEB00F"/>
<path d="M4.9999 7.20208L2.81863 8.42509C2.72227 8.48217 2.62153 8.50662 2.51641 8.49847C2.41129 8.49032 2.31931 8.45771 2.24047 8.40063C2.16163 8.34356 2.10031 8.2723 2.0565 8.18685C2.0127 8.10108 2.00394 8.00519 2.03022 7.8992L2.60839 5.58771L0.676788 4.03449C0.589187 3.96111 0.534523 3.87746 0.512798 3.78353C0.490723 3.68993 0.497205 3.59829 0.532246 3.5086C0.567286 3.41891 0.619847 3.34553 0.689928 3.28846C0.760009 3.23138 0.85637 3.19469 0.979011 3.17839L3.5282 2.97048L4.51371 0.793522C4.55752 0.695681 4.62549 0.622301 4.71765 0.573381C4.80946 0.52446 4.90354 0.5 4.9999 0.5C5.09626 0.5 5.19052 0.52446 5.28268 0.573381C5.37448 0.622301 5.44229 0.695681 5.48609 0.793522L6.4716 2.97048L9.02079 3.17839C9.14343 3.19469 9.23979 3.23138 9.30987 3.28846C9.37995 3.34553 9.43252 3.41891 9.46756 3.5086C9.5026 3.59829 9.50925 3.68993 9.48753 3.78353C9.46545 3.87746 9.41062 3.96111 9.32301 4.03449L7.39141 5.58771L7.96958 7.8992C7.99586 8.00519 7.9871 8.10108 7.9433 8.18685C7.8995 8.2723 7.83818 8.34356 7.75933 8.40063C7.68049 8.45771 7.58851 8.49032 7.48339 8.49847C7.37827 8.50662 7.27753 8.48217 7.18117 8.42509L4.9999 7.20208Z" fill="#DEB00F"/>
</svg>
