<svg width="39" height="9" viewBox="0 0 39 9" fill="none" xmlns="http://www.w3.org/2000/svg">
<path d="M24.4999 7.20208L22.3186 8.42509C22.2223 8.48217 22.1215 8.50662 22.0164 8.49847C21.9113 8.49032 21.8193 8.45771 21.7405 8.40063C21.6616 8.34356 21.6003 8.2723 21.5565 8.18685C21.5127 8.10108 21.5039 8.00519 21.5302 7.8992L22.1084 5.58771L20.1768 4.03449C20.0892 3.96111 20.0345 3.87746 20.0128 3.78353C19.9907 3.68993 19.9972 3.59829 20.0322 3.5086C20.0673 3.41891 20.1198 3.34553 20.1899 3.28846C20.26 3.23138 20.3564 3.19469 20.479 3.17839L23.0282 2.97048L24.0137 0.793522C24.0575 0.695681 24.1255 0.622301 24.2177 0.573381C24.3095 0.52446 24.4035 0.5 24.4999 0.5C24.5963 0.5 24.6905 0.52446 24.7827 0.573381C24.8745 0.622301 24.9423 0.695681 24.9861 0.793522L25.9716 2.97048L28.5208 3.17839C28.6434 3.19469 28.7398 3.23138 28.8099 3.28846C28.88 3.34553 28.9325 3.41891 28.9676 3.5086C29.0026 3.59829 29.0093 3.68993 28.9875 3.78353C28.9655 3.87746 28.9106 3.96111 28.823 4.03449L26.8914 5.58771L27.4696 7.8992C27.4959 8.00519 27.4871 8.10108 27.4433 8.18685C27.3995 8.2723 27.3382 8.34356 27.2593 8.40063C27.1805 8.45771 27.0885 8.49032 26.9834 8.49847C26.8783 8.50662 26.7775 8.48217 26.6812 8.42509L24.4999 7.20208Z" fill="#DEB00F"/>
<path d="M14.4999 7.20208L12.3186 8.42509C12.2223 8.48217 12.1215 8.50662 12.0164 8.49847C11.9113 8.49032 11.8193 8.45771 11.7405 8.40063C11.6616 8.34356 11.6003 8.2723 11.5565 8.18685C11.5127 8.10108 11.5039 8.00519 11.5302 7.8992L12.1084 5.58771L10.1768 4.03449C10.0892 3.96111 10.0345 3.87746 10.0128 3.78353C9.99072 3.68993 9.99721 3.59829 10.0322 3.5086C10.0673 3.41891 10.1198 3.34553 10.1899 3.28846C10.26 3.23138 10.3564 3.19469 10.479 3.17839L13.0282 2.97048L14.0137 0.793522C14.0575 0.695681 14.1255 0.622301 14.2177 0.573381C14.3095 0.52446 14.4035 0.5 14.4999 0.5C14.5963 0.5 14.6905 0.52446 14.7827 0.573381C14.8745 0.622301 14.9423 0.695681 14.9861 0.793522L15.9716 2.97048L18.5208 3.17839C18.6434 3.19469 18.7398 3.23138 18.8099 3.28846C18.88 3.34553 18.9325 3.41891 18.9676 3.5086C19.0026 3.59829 19.0093 3.68993 18.9875 3.78353C18.9655 3.87746 18.9106 3.96111 18.823 4.03449L16.8914 5.58771L17.4696 7.8992C17.4959 8.00519 17.4871 8.10108 17.4433 8.18685C17.3995 8.2723 17.3382 8.34356 17.2593 8.40063C17.1805 8.45771 17.0885 8.49032 16.9834 8.49847C16.8783 8.50662 16.7775 8.48217 16.6812 8.42509L14.4999 7.20208Z" fill="#DEB00F"/>
<path d="M4.4999 7.20208L2.31863 8.42509C2.22227 8.48217 2.12153 8.50662 2.01641 8.49847C1.91129 8.49032 1.81931 8.45771 1.74047 8.40063C1.66163 8.34356 1.60031 8.2723 1.5565 8.18685C1.5127 8.10108 1.50394 8.00519 1.53022 7.8992L2.10839 5.58771L0.176788 4.03449C0.0891865 3.96111 0.0345234 3.87746 0.0127984 3.78353C-0.0092771 3.68993 -0.00279466 3.59829 0.0322458 3.5086C0.0672862 3.41891 0.119847 3.34553 0.189928 3.28846C0.260009 3.23138 0.35637 3.19469 0.479011 3.17839L3.0282 2.97048L4.01371 0.793522C4.05752 0.695681 4.12549 0.622301 4.21765 0.573381C4.30946 0.52446 4.40354 0.5 4.4999 0.5C4.59626 0.5 4.69052 0.52446 4.78268 0.573381C4.87448 0.622301 4.94229 0.695681 4.98609 0.793522L5.9716 2.97048L8.52079 3.17839C8.64343 3.19469 8.73979 3.23138 8.80987 3.28846C8.87996 3.34553 8.93252 3.41891 8.96756 3.5086C9.0026 3.59829 9.00925 3.68993 8.98753 3.78353C8.96545 3.87746 8.91061 3.96111 8.82301 4.03449L6.89141 5.58771L7.46958 7.8992C7.49586 8.00519 7.4871 8.10108 7.4433 8.18685C7.3995 8.2723 7.33818 8.34356 7.25933 8.40063C7.18049 8.45771 7.08851 8.49032 6.98339 8.49847C6.87827 8.50662 6.77753 8.48217 6.68117 8.42509L4.4999 7.20208Z" fill="#DEB00F"/>
<path d="M34.4999 2.23667V6.05246L36.1556 6.99417L35.7219 5.23304L37.1805 4.05895L35.262 3.89996L34.4999 2.23667ZM34.4999 7.20208L32.3186 8.42509C32.2223 8.48216 32.1215 8.50662 32.0164 8.49847C31.9113 8.49032 31.8193 8.45771 31.7405 8.40063C31.6616 8.34356 31.6003 8.2723 31.5565 8.18685C31.5127 8.10108 31.5039 8.00519 31.5302 7.8992L32.1084 5.58771L30.1768 4.03449C30.0892 3.96111 30.0345 3.87746 30.0128 3.78353C29.9907 3.68993 29.9972 3.59829 30.0322 3.5086C30.0673 3.41891 30.1198 3.34553 30.1899 3.28846C30.26 3.23138 30.3564 3.19469 30.479 3.17839L33.0282 2.97048L34.0137 0.793522C34.0575 0.695681 34.1255 0.622301 34.2177 0.573381C34.3095 0.52446 34.4035 0.5 34.4999 0.5C34.5963 0.5 34.6905 0.52446 34.7827 0.573381C34.8745 0.622301 34.9423 0.695681 34.9861 0.793522L35.9716 2.97048L38.5208 3.17839C38.6434 3.19469 38.7398 3.23138 38.8099 3.28846C38.88 3.34553 38.9325 3.41891 38.9676 3.5086C39.0026 3.59829 39.0093 3.68993 38.9875 3.78353C38.9655 3.87746 38.9106 3.96111 38.823 4.03449L36.8914 5.58771L37.4696 7.8992C37.4959 8.00519 37.4871 8.10108 37.4433 8.18685C37.3995 8.2723 37.3382 8.34356 37.2593 8.40063C37.1805 8.45771 37.0885 8.49032 36.9834 8.49847C36.8783 8.50662 36.7775 8.48216 36.6812 8.42509L34.4999 7.20208Z" fill="#DEB00F"/>
</svg>
