<svg width="95" height="16" viewBox="0 0 95 16" fill="none" xmlns="http://www.w3.org/2000/svg">
<path d="M85.9948 13.17L81.7795 15.5334C81.5933 15.6437 81.3986 15.6909 81.1955 15.6752C80.9923 15.6594 80.8146 15.5964 80.6622 15.4861C80.5099 15.3758 80.3914 15.2381 80.3067 15.073C80.2221 14.9072 80.2052 14.7219 80.2559 14.5171L81.3732 10.0502L77.6405 7.04869C77.4712 6.90688 77.3655 6.74522 77.3236 6.56371C77.2809 6.38283 77.2934 6.20573 77.3611 6.03241C77.4289 5.8591 77.5304 5.71729 77.6659 5.607C77.8013 5.4967 77.9875 5.4258 78.2245 5.39429L83.1507 4.99251L85.0552 0.785606C85.1399 0.596532 85.2712 0.454727 85.4493 0.360189C85.6267 0.265652 85.8085 0.218384 85.9948 0.218384C86.181 0.218384 86.3631 0.265652 86.5412 0.360189C86.7186 0.454727 86.8496 0.596532 86.9343 0.785606L88.8388 4.99251L93.765 5.39429C94.002 5.4258 94.1882 5.4967 94.3236 5.607C94.4591 5.71729 94.5606 5.8591 94.6284 6.03241C94.6961 6.20573 94.7089 6.38283 94.667 6.56371C94.6243 6.74522 94.5183 6.90688 94.349 7.04869L90.6163 10.0502L91.7336 14.5171C91.7843 14.7219 91.7674 14.9072 91.6828 15.073C91.5981 15.2381 91.4796 15.3758 91.3273 15.4861C91.1749 15.5964 90.9972 15.6594 90.794 15.6752C90.5909 15.6909 90.3962 15.6437 90.21 15.5334L85.9948 13.17Z" fill="#DEB00F"/>
<path d="M66.67 13.17L62.4548 15.5334C62.2686 15.6437 62.0739 15.6909 61.8708 15.6752C61.6676 15.6594 61.4899 15.5964 61.3375 15.4861C61.1852 15.3758 61.0667 15.2381 60.982 15.073C60.8974 14.9072 60.8804 14.7219 60.9312 14.5171L62.0485 10.0502L58.3158 7.04869C58.1465 6.90688 58.0408 6.74522 57.9989 6.56371C57.9562 6.38283 57.9687 6.20573 58.0364 6.03241C58.1041 5.8591 58.2057 5.71729 58.3412 5.607C58.4766 5.4967 58.6628 5.4258 58.8998 5.39429L63.826 4.99251L65.7305 0.785606C65.8151 0.596532 65.9465 0.454727 66.1246 0.360189C66.302 0.265652 66.4838 0.218384 66.67 0.218384C66.8563 0.218384 67.0384 0.265652 67.2165 0.360189C67.3939 0.454727 67.5249 0.596532 67.6096 0.785606L69.5141 4.99251L74.4403 5.39429C74.6773 5.4258 74.8635 5.4967 74.9989 5.607C75.1344 5.71729 75.2359 5.8591 75.3037 6.03241C75.3714 6.20573 75.3842 6.38283 75.3423 6.56371C75.2996 6.74522 75.1936 6.90688 75.0243 7.04869L71.2916 10.0502L72.4089 14.5171C72.4596 14.7219 72.4427 14.9072 72.3581 15.073C72.2734 15.2381 72.1549 15.3758 72.0026 15.4861C71.8502 15.5964 71.6725 15.6594 71.4693 15.6752C71.2662 15.6909 71.0715 15.6437 70.8853 15.5334L66.67 13.17Z" fill="#DEB00F"/>
<path d="M47.3453 13.17L43.1301 15.5334C42.9439 15.6437 42.7492 15.6909 42.5461 15.6752C42.3429 15.6594 42.1652 15.5964 42.0128 15.4861C41.8605 15.3758 41.742 15.2381 41.6573 15.073C41.5727 14.9072 41.5557 14.7219 41.6065 14.5171L42.7238 10.0502L38.9911 7.04869C38.8218 6.90688 38.7161 6.74522 38.6741 6.56371C38.6315 6.38283 38.644 6.20573 38.7117 6.03241C38.7794 5.8591 38.881 5.71729 39.0164 5.607C39.1519 5.4967 39.3381 5.4258 39.5751 5.39429L44.5013 4.99251L46.4058 0.785606C46.4904 0.596532 46.6218 0.454727 46.7999 0.360189C46.9773 0.265652 47.1591 0.218384 47.3453 0.218384C47.5316 0.218384 47.7137 0.265652 47.8918 0.360189C48.0692 0.454727 48.2002 0.596532 48.2849 0.785606L50.1894 4.99251L55.1156 5.39429C55.3526 5.4258 55.5388 5.4967 55.6742 5.607C55.8097 5.71729 55.9112 5.8591 55.9789 6.03241C56.0467 6.20573 56.0595 6.38283 56.0175 6.56371C55.9749 6.74522 55.8689 6.90688 55.6996 7.04869L51.9669 10.0502L53.0841 14.5171C53.1349 14.7219 53.118 14.9072 53.0334 15.073C52.9487 15.2381 52.8302 15.3758 52.6779 15.4861C52.5255 15.5964 52.3478 15.6594 52.1446 15.6752C51.9415 15.6909 51.7468 15.6437 51.5606 15.5334L47.3453 13.17Z" fill="#DEB00F"/>
<path d="M28.0206 13.17L23.8054 15.5334C23.6192 15.6437 23.4245 15.6909 23.2214 15.6752C23.0182 15.6594 22.8405 15.5964 22.6881 15.4861C22.5357 15.3758 22.4172 15.2381 22.3326 15.073C22.248 14.9072 22.231 14.7219 22.2818 14.5171L23.3991 10.0502L19.6663 7.04869C19.4971 6.90688 19.3914 6.74522 19.3494 6.56371C19.3068 6.38283 19.3193 6.20573 19.387 6.03241C19.4547 5.8591 19.5563 5.71729 19.6917 5.607C19.8272 5.4967 20.0134 5.4258 20.2504 5.39429L25.1766 4.99251L27.0811 0.785606C27.1657 0.596532 27.2971 0.454727 27.4752 0.360189C27.6526 0.265652 27.8344 0.218384 28.0206 0.218384C28.2068 0.218384 28.389 0.265652 28.5671 0.360189C28.7445 0.454727 28.8755 0.596532 28.9602 0.785606L30.8646 4.99251L35.7909 5.39429C36.0279 5.4258 36.2141 5.4967 36.3495 5.607C36.485 5.71729 36.5865 5.8591 36.6542 6.03241C36.722 6.20573 36.7348 6.38283 36.6928 6.56371C36.6502 6.74522 36.5442 6.90688 36.3749 7.04869L32.6422 10.0502L33.7594 14.5171C33.8102 14.7219 33.7933 14.9072 33.7087 15.073C33.624 15.2381 33.5055 15.3758 33.3532 15.4861C33.2008 15.5964 33.023 15.6594 32.8199 15.6752C32.6168 15.6909 32.4221 15.6437 32.2359 15.5334L28.0206 13.17Z" fill="#DEB00F"/>
<path d="M8.69592 13.17L4.48069 15.5334C4.29448 15.6437 4.0998 15.6909 3.89665 15.6752C3.69351 15.6594 3.51576 15.5964 3.3634 15.4861C3.21104 15.3758 3.09254 15.2381 3.0079 15.073C2.92326 14.9072 2.90633 14.7219 2.95711 14.5171L4.0744 10.0502L0.341637 7.04869C0.17235 6.90688 0.0667155 6.74522 0.0247325 6.56371C-0.0179277 6.38283 -0.00540059 6.20573 0.062314 6.03241C0.130029 5.8591 0.2316 5.71729 0.36703 5.607C0.502459 5.4967 0.688674 5.4258 0.925675 5.39429L5.85191 4.99251L7.75638 0.785606C7.84103 0.596532 7.97239 0.454727 8.15048 0.360189C8.3279 0.265652 8.50971 0.218384 8.69592 0.218384C8.88214 0.218384 9.06429 0.265652 9.24238 0.360189C9.41979 0.454727 9.55082 0.596532 9.63546 0.785606L11.5399 4.99251L16.4662 5.39429C16.7032 5.4258 16.8894 5.4967 17.0248 5.607C17.1602 5.71729 17.2618 5.8591 17.3295 6.03241C17.3972 6.20573 17.4101 6.38283 17.3681 6.56371C17.3255 6.74522 17.2195 6.90688 17.0502 7.04869L13.3174 10.0502L14.4347 14.5171C14.4855 14.7219 14.4686 14.9072 14.3839 15.073C14.2993 15.2381 14.1808 15.3758 14.0284 15.4861C13.8761 15.5964 13.6983 15.6594 13.4952 15.6752C13.2921 15.6909 13.0974 15.6437 12.9112 15.5334L8.69592 13.17Z" fill="#DEB00F"/>
</svg>
