<svg width="95" height="16" viewBox="0 0 95 16" fill="none" xmlns="http://www.w3.org/2000/svg">
<path d="M85.9928 13.1703L81.7776 15.5338C81.5914 15.644 81.3967 15.6913 81.1935 15.6756C80.9904 15.6598 80.8126 15.5968 80.6603 15.4865C80.5079 15.3762 80.3894 15.2385 80.3048 15.0734C80.2201 14.9076 80.2032 14.7223 80.254 14.5175L81.3713 10.0506L77.6385 7.04905C77.4692 6.90725 77.3636 6.74559 77.3216 6.56408C77.2789 6.3832 77.2915 6.2061 77.3592 6.03278C77.4269 5.85946 77.5285 5.71766 77.6639 5.60736C77.7993 5.49707 77.9855 5.42617 78.2225 5.39465L83.1488 4.99287L85.0533 0.785973C85.1379 0.596899 85.2693 0.455093 85.4474 0.360556C85.6248 0.266019 85.8066 0.21875 85.9928 0.21875C86.179 0.21875 86.3612 0.266019 86.5393 0.360556C86.7167 0.455093 86.8477 0.596899 86.9323 0.785973L88.8368 4.99287L93.763 5.39465C94 5.42617 94.1863 5.49707 94.3217 5.60736C94.4571 5.71766 94.5587 5.85946 94.6264 6.03278C94.6941 6.2061 94.707 6.3832 94.665 6.56408C94.6223 6.74559 94.5164 6.90725 94.3471 7.04905L90.6143 10.0506L91.7316 14.5175C91.7824 14.7223 91.7655 14.9076 91.6808 15.0734C91.5962 15.2385 91.4777 15.3762 91.3253 15.4865C91.173 15.5968 90.9952 15.6598 90.7921 15.6756C90.5889 15.6913 90.3942 15.644 90.208 15.5338L85.9928 13.1703Z" fill="#DEB00F"/>
<path d="M66.6686 13.1703L62.4533 15.5338C62.2671 15.644 62.0725 15.6913 61.8693 15.6756C61.6662 15.6598 61.4884 15.5968 61.3361 15.4865C61.1837 15.3762 61.0652 15.2385 60.9806 15.0734C60.8959 14.9076 60.879 14.7223 60.9298 14.5175L62.0471 10.0506L58.3143 7.04905C58.145 6.90725 58.0394 6.74559 57.9974 6.56408C57.9547 6.3832 57.9673 6.2061 58.035 6.03278C58.1027 5.85946 58.2043 5.71766 58.3397 5.60736C58.4751 5.49707 58.6613 5.42617 58.8983 5.39465L63.8246 4.99287L65.729 0.785973C65.8137 0.596899 65.9451 0.455093 66.1231 0.360556C66.3006 0.266019 66.4824 0.21875 66.6686 0.21875C66.8548 0.21875 67.0369 0.266019 67.215 0.360556C67.3924 0.455093 67.5235 0.596899 67.6081 0.785973L69.5126 4.99287L74.4388 5.39465C74.6758 5.42617 74.862 5.49707 74.9975 5.60736C75.1329 5.71766 75.2345 5.85946 75.3022 6.03278C75.3699 6.2061 75.3828 6.3832 75.3408 6.56408C75.2981 6.74559 75.1922 6.90725 75.0229 7.04905L71.2901 10.0506L72.4074 14.5175C72.4582 14.7223 72.4412 14.9076 72.3566 15.0734C72.272 15.2385 72.1535 15.3762 72.0011 15.4865C71.8487 15.5968 71.671 15.6598 71.4679 15.6756C71.2647 15.6913 71.07 15.644 70.8838 15.5338L66.6686 13.1703Z" fill="#DEB00F"/>
<path d="M47.3444 13.1703L43.1291 15.5338C42.9429 15.644 42.7482 15.6913 42.5451 15.6756C42.3419 15.6598 42.1642 15.5968 42.0118 15.4865C41.8595 15.3762 41.741 15.2385 41.6563 15.0734C41.5717 14.9076 41.5548 14.7223 41.6056 14.5175L42.7228 10.0506L38.9901 7.04905C38.8208 6.90725 38.7152 6.74559 38.6732 6.56408C38.6305 6.3832 38.643 6.2061 38.7108 6.03278C38.7785 5.85946 38.88 5.71766 39.0155 5.60736C39.1509 5.49707 39.3371 5.42617 39.5741 5.39465L44.5003 4.99287L46.4048 0.785973C46.4895 0.596899 46.6208 0.455093 46.7989 0.360556C46.9763 0.266019 47.1581 0.21875 47.3444 0.21875C47.5306 0.21875 47.7127 0.266019 47.8908 0.360556C48.0682 0.455093 48.1993 0.596899 48.2839 0.785973L50.1884 4.99287L55.1146 5.39465C55.3516 5.42617 55.5378 5.49707 55.6733 5.60736C55.8087 5.71766 55.9103 5.85946 55.978 6.03278C56.0457 6.2061 56.0586 6.3832 56.0166 6.56408C55.9739 6.74559 55.8679 6.90725 55.6986 7.04905L51.9659 10.0506L53.0832 14.5175C53.134 14.7223 53.117 14.9076 53.0324 15.0734C52.9477 15.2385 52.8292 15.3762 52.6769 15.4865C52.5245 15.5968 52.3468 15.6598 52.1436 15.6756C51.9405 15.6913 51.7458 15.644 51.5596 15.5338L47.3444 13.1703Z" fill="#DEB00F"/>
<path d="M28.0201 13.1703L23.8049 15.5338C23.6187 15.644 23.424 15.6913 23.2209 15.6756C23.0177 15.6598 22.84 15.5968 22.6876 15.4865C22.5353 15.3762 22.4168 15.2385 22.3321 15.0734C22.2475 14.9076 22.2305 14.7223 22.2813 14.5175L23.3986 10.0506L19.6659 7.04905C19.4966 6.90725 19.3909 6.74559 19.349 6.56408C19.3063 6.3832 19.3188 6.2061 19.3865 6.03278C19.4542 5.85946 19.5558 5.71766 19.6912 5.60736C19.8267 5.49707 20.0129 5.42617 20.2499 5.39465L25.1761 4.99287L27.0806 0.785973C27.1652 0.596899 27.2966 0.455093 27.4747 0.360556C27.6521 0.266019 27.8339 0.21875 28.0201 0.21875C28.2064 0.21875 28.3885 0.266019 28.5666 0.360556C28.744 0.455093 28.875 0.596899 28.9597 0.785973L30.8642 4.99287L35.7904 5.39465C36.0274 5.42617 36.2136 5.49707 36.349 5.60736C36.4845 5.71766 36.586 5.85946 36.6538 6.03278C36.7215 6.2061 36.7343 6.3832 36.6924 6.56408C36.6497 6.74559 36.5437 6.90725 36.3744 7.04905L32.6417 10.0506L33.759 14.5175C33.8097 14.7223 33.7928 14.9076 33.7082 15.0734C33.6235 15.2385 33.505 15.3762 33.3527 15.4865C33.2003 15.5968 33.0226 15.6598 32.8194 15.6756C32.6163 15.6913 32.4216 15.644 32.2354 15.5338L28.0201 13.1703Z" fill="#DEB00F"/>
<path d="M8.69592 13.1703L4.48069 15.5338C4.29448 15.644 4.0998 15.6913 3.89665 15.6756C3.69351 15.6598 3.51576 15.5968 3.3634 15.4865C3.21104 15.3762 3.09254 15.2385 3.0079 15.0734C2.92326 14.9076 2.90633 14.7223 2.95711 14.5175L4.0744 10.0506L0.341637 7.04905C0.17235 6.90725 0.0667155 6.74559 0.0247325 6.56408C-0.0179277 6.3832 -0.00540059 6.2061 0.062314 6.03278C0.130029 5.85946 0.2316 5.71766 0.36703 5.60736C0.502459 5.49707 0.688674 5.42617 0.925675 5.39465L5.85191 4.99287L7.75638 0.785973C7.84103 0.596899 7.97239 0.455093 8.15048 0.360556C8.3279 0.266019 8.50971 0.21875 8.69592 0.21875C8.88214 0.21875 9.06429 0.266019 9.24238 0.360556C9.41979 0.455093 9.55082 0.596899 9.63546 0.785973L11.5399 4.99287L16.4662 5.39465C16.7032 5.42617 16.8894 5.49707 17.0248 5.60736C17.1602 5.71766 17.2618 5.85946 17.3295 6.03278C17.3972 6.2061 17.4101 6.3832 17.3681 6.56408C17.3255 6.74559 17.2195 6.90725 17.0502 7.04905L13.3174 10.0506L14.4347 14.5175C14.4855 14.7223 14.4686 14.9076 14.384 15.0734C14.2993 15.2385 14.1808 15.3762 14.0284 15.4865C13.8761 15.5968 13.6983 15.6598 13.4952 15.6756C13.2921 15.6913 13.0974 15.644 12.9112 15.5338L8.69592 13.1703Z" fill="#DEB00F"/>
</svg>
