<svg width="25" height="24" viewBox="0 0 25 24" fill="none" xmlns="http://www.w3.org/2000/svg">
<path fill-rule="evenodd" clip-rule="evenodd" d="M8.31567 6.0256C6.46318 7.28671 5.25 9.41159 5.25 11.8167C5.25 15.6827 8.38401 18.8167 12.25 18.8167C14.6551 18.8167 16.7799 17.6035 18.0411 15.751C12.9317 15.1925 8.87421 11.1349 8.31567 6.0256ZM19.25 13.8167C20.116 13.8167 20.8618 14.5799 20.5191 15.3753C19.1398 18.576 15.9566 20.8167 12.25 20.8167C7.27944 20.8167 3.25 16.7872 3.25 11.8167C3.25 8.11009 5.49067 4.92685 8.6914 3.54758C9.48674 3.20485 10.25 3.95063 10.25 4.81667C10.25 9.78724 14.2794 13.8167 19.25 13.8167Z" fill="#535763"/>
</svg>
