<svg width="25" height="24" viewBox="0 0 25 24" fill="none" xmlns="http://www.w3.org/2000/svg">
<path fill-rule="evenodd" clip-rule="evenodd" d="M12.75 18C16.0637 18 18.75 15.3137 18.75 12C18.75 8.68629 16.0637 6 12.75 6C9.43629 6 6.75 8.68629 6.75 12C6.75 15.3137 9.43629 18 12.75 18Z" fill="#535763"/>
<path fill-rule="evenodd" clip-rule="evenodd" d="M12.745 1.5C13.2973 1.5 13.745 1.94772 13.745 2.5V3.5C13.745 4.05228 13.2973 4.5 12.745 4.5C12.1927 4.5 11.745 4.05228 11.745 3.5V2.5C11.745 1.94772 12.1927 1.5 12.745 1.5Z" fill="#535763"/>
<path fill-rule="evenodd" clip-rule="evenodd" d="M12.745 19.5C13.2973 19.5 13.745 19.9477 13.745 20.5V21.4968C13.745 22.0491 13.2973 22.4968 12.745 22.4968C12.1927 22.4968 11.745 22.0491 11.745 21.4968V20.5C11.745 19.9477 12.1927 19.5 12.745 19.5Z" fill="#535763"/>
<path fill-rule="evenodd" clip-rule="evenodd" d="M2.24658 11.9984C2.24658 11.4461 2.6943 10.9984 3.24658 10.9984H4.24658C4.79887 10.9984 5.24658 11.4461 5.24658 11.9984C5.24658 12.5507 4.79887 12.9984 4.24658 12.9984H3.24658C2.6943 12.9984 2.24658 12.5507 2.24658 11.9984Z" fill="#535763"/>
<path fill-rule="evenodd" clip-rule="evenodd" d="M20.2466 11.9984C20.2466 11.4461 20.6943 10.9984 21.2466 10.9984H22.2434C22.7956 10.9984 23.2434 11.4461 23.2434 11.9984C23.2434 12.5507 22.7956 12.9984 22.2434 12.9984H21.2466C20.6943 12.9984 20.2466 12.5507 20.2466 11.9984Z" fill="#535763"/>
<path fill-rule="evenodd" clip-rule="evenodd" d="M5.32159 19.4219C4.93106 19.0313 4.93106 18.3982 5.32159 18.0077L6.02869 17.3005C6.41922 16.91 7.05238 16.91 7.44291 17.3005C7.83343 17.6911 7.83343 18.3242 7.44291 18.7148L6.7358 19.4219C6.34528 19.8124 5.71211 19.8124 5.32159 19.4219Z" fill="#535763"/>
<path fill-rule="evenodd" clip-rule="evenodd" d="M18.0495 6.69394C17.659 6.30342 17.659 5.67025 18.0495 5.27973L18.7543 4.5749C19.1449 4.18438 19.778 4.18438 20.1685 4.5749C20.5591 4.96543 20.5591 5.59859 20.1685 5.98911L19.4637 6.69394C19.0732 7.08447 18.44 7.08447 18.0495 6.69394Z" fill="#535763"/>
<path fill-rule="evenodd" clip-rule="evenodd" d="M5.32159 4.5749C5.71211 4.18438 6.34528 4.18438 6.7358 4.5749L7.44291 5.28201C7.83343 5.67253 7.83343 6.3057 7.44291 6.69622C7.05238 7.08675 6.41922 7.08675 6.02869 6.69622L5.32159 5.98911C4.93106 5.59859 4.93106 4.96543 5.32159 4.5749Z" fill="#535763"/>
<path fill-rule="evenodd" clip-rule="evenodd" d="M18.0495 17.3028C18.44 16.9123 19.0732 16.9123 19.4637 17.3028L20.1686 18.0077C20.5591 18.3982 20.5591 19.0313 20.1686 19.4219C19.778 19.8124 19.1449 19.8124 18.7543 19.4219L18.0495 18.717C17.659 18.3265 17.659 17.6933 18.0495 17.3028Z" fill="#535763"/>
</svg>
