<svg width="12" height="20" viewBox="0 0 12 20" fill="none" xmlns="http://www.w3.org/2000/svg">
<path d="M2.23588 1.31108L2.23642 1.3116L10.7905 9.57904C10.7905 9.57908 10.7906 9.57912 10.7906 9.57916C10.8463 9.63311 10.8732 9.67911 10.8869 9.71598L10.8878 9.71835C10.9097 9.7764 10.9232 9.8435 10.9244 9.92345C10.9257 10.0034 10.9143 10.0709 10.8942 10.1296L10.8934 10.132C10.8808 10.1693 10.8553 10.2161 10.8013 10.2719L2.50832 18.8269C2.37697 18.9624 2.21639 19.035 1.9901 19.0385C1.77424 19.0419 1.59989 18.9733 1.44016 18.8185C1.27511 18.6585 1.20652 18.4927 1.20353 18.3006C1.20054 18.1086 1.26395 17.9408 1.42395 17.7757L8.65875 10.3123L9.00676 9.95327L8.64775 9.60526L1.18434 2.37046C1.04622 2.23657 0.976226 2.07903 0.972901 1.86524C0.969721 1.66079 1.03585 1.48954 1.19312 1.3273C1.35311 1.16225 1.51891 1.09365 1.71094 1.09067C1.90298 1.08768 2.07083 1.15109 2.23588 1.31108Z" fill="#F2F2F2" stroke="#F2F2F2"/>
</svg>
