<svg width="18" height="20" viewBox="0 0 18 20" fill="none" xmlns="http://www.w3.org/2000/svg">
<path d="M9.702 0.128058L16.702 2.76974C17.0833 2.91358 17.4119 3.17113 17.6438 3.50796C17.8758 3.84478 18.0001 4.24484 18 4.65464V10.0517C18 11.7338 17.5346 13.3826 16.6559 14.8135C15.7772 16.2443 14.52 17.4006 13.025 18.1529L9.671 19.8405C9.46267 19.9454 9.23294 20 9 20C8.76706 20 8.53733 19.9454 8.329 19.8405L4.975 18.1529C3.48004 17.4006 2.22277 16.2443 1.34407 14.8135C0.465371 13.3826 -3.60317e-05 11.7338 1.55178e-08 10.0517V4.65464C-5.06984e-05 4.24484 0.124204 3.84478 0.356153 3.50796C0.588102 3.17113 0.916693 2.91358 1.298 2.76974L8.298 0.128058C8.75062 -0.0426859 9.24938 -0.0426859 9.702 0.128058ZM9 2.01296L2 4.65464V10.0517C2.00023 11.3599 2.36239 12.6421 3.04592 13.7548C3.72944 14.8674 4.70732 15.7666 5.87 16.3515L9 17.9285L12.13 16.3535C13.293 15.7685 14.2711 14.869 14.9546 13.7559C15.6382 12.6428 16.0001 11.3602 16 10.0517V4.65464L9 2.01296ZM9 12.0081C9.26522 12.0081 9.51957 12.1141 9.70711 12.3028C9.89464 12.4916 10 12.7475 10 13.0144C10 13.2813 9.89464 13.5373 9.70711 13.726C9.51957 13.9148 9.26522 14.0208 9 14.0208C8.73478 14.0208 8.48043 13.9148 8.29289 13.726C8.10536 13.5373 8 13.2813 8 13.0144C8 12.7475 8.10536 12.4916 8.29289 12.3028C8.48043 12.1141 8.73478 12.0081 9 12.0081ZM9 4.96359C9.26522 4.96359 9.51957 5.06962 9.70711 5.25835C9.89464 5.44708 10 5.70305 10 5.96995V9.99537C10 10.2623 9.89464 10.5182 9.70711 10.707C9.51957 10.8957 9.26522 11.0017 9 11.0017C8.73478 11.0017 8.48043 10.8957 8.29289 10.707C8.10536 10.5182 8 10.2623 8 9.99537V5.96995C8 5.70305 8.10536 5.44708 8.29289 5.25835C8.48043 5.06962 8.73478 4.96359 9 4.96359Z" fill="#010101"/>
</svg>
