<svg width="12" height="20" viewBox="0 0 12 20" fill="none" xmlns="http://www.w3.org/2000/svg">
<path d="M2.23588 1.3112L2.23642 1.31172L10.7905 9.57917C10.7905 9.5792 10.7906 9.57924 10.7906 9.57928C10.8463 9.63324 10.8732 9.67923 10.8869 9.7161L10.8878 9.71847C10.9097 9.77652 10.9232 9.84362 10.9244 9.92357C10.9257 10.0035 10.9143 10.071 10.8942 10.1297L10.8934 10.1321C10.8808 10.1694 10.8553 10.2163 10.8013 10.272L2.50832 18.827C2.37697 18.9625 2.21639 19.0351 1.9901 19.0386C1.77424 19.042 1.59989 18.9734 1.44016 18.8186C1.27511 18.6586 1.20652 18.4928 1.20353 18.3008C1.20054 18.1087 1.26395 17.9409 1.42395 17.7758L8.65875 10.3124L9.00676 9.9534L8.64775 9.60538L1.18434 2.37058C1.04622 2.23669 0.976226 2.07915 0.972901 1.86536C0.969721 1.66092 1.03585 1.48966 1.19312 1.32742C1.35311 1.16237 1.51891 1.09377 1.71094 1.09079C1.90298 1.0878 2.07083 1.15121 2.23588 1.3112Z" fill="#F2F2F2" stroke="#F2F2F2"/>
</svg>
