<svg width="12" height="20" viewBox="0 0 12 20" fill="none" xmlns="http://www.w3.org/2000/svg">
<path d="M2.23588 1.31102L2.23642 1.31154L10.7905 9.57898C10.7905 9.57902 10.7906 9.57906 10.7906 9.5791C10.8463 9.63305 10.8732 9.67905 10.8869 9.71592L10.8878 9.71829C10.9097 9.77634 10.9232 9.84344 10.9244 9.92339C10.9257 10.0033 10.9143 10.0708 10.8942 10.1295L10.8934 10.1319C10.8808 10.1692 10.8553 10.2161 10.8013 10.2718L2.50832 18.8268C2.37697 18.9623 2.21639 19.0349 1.9901 19.0384C1.77424 19.0418 1.59989 18.9732 1.44016 18.8184C1.27511 18.6584 1.20652 18.4926 1.20353 18.3006C1.20054 18.1085 1.26395 17.9407 1.42395 17.7756L8.65875 10.3122L9.00676 9.95321L8.64775 9.6052L1.18434 2.37039C1.04622 2.2365 0.976226 2.07897 0.972901 1.86518C0.969721 1.66073 1.03585 1.48948 1.19312 1.32724C1.35311 1.16219 1.51891 1.09359 1.71094 1.0906C1.90298 1.08762 2.07083 1.15102 2.23588 1.31102Z" fill="#F2F2F2" stroke="#F2F2F2"/>
</svg>
