<svg width="66" height="11" viewBox="0 0 66 11" fill="none" xmlns="http://www.w3.org/2000/svg">
<path d="M3.68228 10.3837C3.02895 10.3837 2.44095 10.2717 1.91828 10.0477C1.39561 9.81436 0.984948 9.48769 0.686281 9.06769C0.387615 8.64769 0.238281 8.15769 0.238281 7.59769H1.94628C1.98361 8.01769 2.14695 8.36302 2.43628 8.63369C2.73495 8.90435 3.15028 9.03969 3.68228 9.03969C4.23295 9.03969 4.66228 8.90902 4.97028 8.64769C5.27828 8.37702 5.43228 8.03169 5.43228 7.61169C5.43228 7.28502 5.33428 7.01902 5.13828 6.81369C4.95162 6.60835 4.71361 6.44969 4.42428 6.33769C4.14428 6.22569 3.75228 6.10436 3.24828 5.97369C2.61361 5.80569 2.09561 5.63769 1.69428 5.46969C1.30228 5.29236 0.966281 5.02169 0.686281 4.65769C0.406281 4.29369 0.266281 3.80835 0.266281 3.20169C0.266281 2.64169 0.406281 2.15169 0.686281 1.73169C0.966281 1.31169 1.35828 0.989688 1.86228 0.765688C2.36628 0.541688 2.94961 0.429688 3.61228 0.429688C4.55495 0.429688 5.32495 0.667688 5.92228 1.14369C6.52895 1.61035 6.86495 2.25435 6.93028 3.07569H5.16628C5.13828 2.72102 4.97028 2.41769 4.66228 2.16569C4.35428 1.91369 3.94828 1.78769 3.44428 1.78769C2.98695 1.78769 2.61361 1.90435 2.32428 2.13769C2.03495 2.37102 1.89028 2.70702 1.89028 3.14569C1.89028 3.44435 1.97895 3.69169 2.15628 3.88769C2.34295 4.07435 2.57628 4.22369 2.85628 4.33569C3.13628 4.44769 3.51895 4.56902 4.00428 4.69969C4.64828 4.87702 5.17095 5.05435 5.57228 5.23169C5.98295 5.40902 6.32828 5.68435 6.60828 6.05769C6.89761 6.42169 7.04228 6.91169 7.04228 7.52769C7.04228 8.02235 6.90695 8.48902 6.63628 8.92769C6.37495 9.36636 5.98761 9.72102 5.47428 9.99169C4.97028 10.253 4.37295 10.3837 3.68228 10.3837Z" fill="#010101"/>
<path d="M15.9955 6.23969C15.9955 6.52902 15.9768 6.79035 15.9395 7.02369H10.0455C10.0922 7.63969 10.3208 8.13436 10.7315 8.50769C11.1422 8.88102 11.6462 9.06769 12.2435 9.06769C13.1022 9.06769 13.7088 8.70835 14.0635 7.98969H15.7855C15.5522 8.69902 15.1275 9.28235 14.5115 9.73969C13.9048 10.1877 13.1488 10.4117 12.2435 10.4117C11.5062 10.4117 10.8435 10.2484 10.2555 9.92169C9.67683 9.58569 9.2195 9.11902 8.8835 8.52169C8.55683 7.91502 8.3935 7.21502 8.3935 6.42169C8.3935 5.62835 8.55217 4.93302 8.8695 4.33569C9.19617 3.72902 9.64883 3.26235 10.2275 2.93569C10.8155 2.60902 11.4875 2.44569 12.2435 2.44569C12.9715 2.44569 13.6202 2.60435 14.1895 2.92169C14.7588 3.23902 15.2022 3.68702 15.5195 4.26569C15.8368 4.83502 15.9955 5.49302 15.9955 6.23969ZM14.3295 5.73569C14.3202 5.14769 14.1102 4.67635 13.6995 4.32169C13.2888 3.96702 12.7802 3.78969 12.1735 3.78969C11.6228 3.78969 11.1515 3.96702 10.7595 4.32169C10.3675 4.66702 10.1342 5.13835 10.0595 5.73569H14.3295Z" fill="#010101"/>
<path d="M24.6361 6.23969C24.6361 6.52902 24.6175 6.79035 24.5801 7.02369H18.6861C18.7328 7.63969 18.9615 8.13436 19.3721 8.50769C19.7828 8.88102 20.2868 9.06769 20.8841 9.06769C21.7428 9.06769 22.3495 8.70835 22.7041 7.98969H24.4261C24.1928 8.69902 23.7681 9.28235 23.1521 9.73969C22.5455 10.1877 21.7895 10.4117 20.8841 10.4117C20.1468 10.4117 19.4841 10.2484 18.8961 9.92169C18.3175 9.58569 17.8601 9.11902 17.5241 8.52169C17.1975 7.91502 17.0341 7.21502 17.0341 6.42169C17.0341 5.62835 17.1928 4.93302 17.5101 4.33569C17.8368 3.72902 18.2895 3.26235 18.8681 2.93569C19.4561 2.60902 20.1281 2.44569 20.8841 2.44569C21.6121 2.44569 22.2608 2.60435 22.8301 2.92169C23.3995 3.23902 23.8428 3.68702 24.1601 4.26569C24.4775 4.83502 24.6361 5.49302 24.6361 6.23969ZM22.9701 5.73569C22.9608 5.14769 22.7508 4.67635 22.3401 4.32169C21.9295 3.96702 21.4208 3.78969 20.8141 3.78969C20.2635 3.78969 19.7921 3.96702 19.4001 4.32169C19.0081 4.66702 18.7748 5.13835 18.7001 5.73569H22.9701Z" fill="#010101"/>
<path d="M39.1815 2.44569C39.7881 2.44569 40.3295 2.57169 40.8055 2.82369C41.2908 3.07569 41.6688 3.44902 41.9395 3.94369C42.2195 4.43836 42.3595 5.03569 42.3595 5.73569V10.2857H40.7775V5.97369C40.7775 5.28302 40.6048 4.75569 40.2595 4.39169C39.9141 4.01836 39.4428 3.83169 38.8455 3.83169C38.2481 3.83169 37.7721 4.01836 37.4175 4.39169C37.0721 4.75569 36.8995 5.28302 36.8995 5.97369V10.2857H35.3175V5.97369C35.3175 5.28302 35.1448 4.75569 34.7995 4.39169C34.4541 4.01836 33.9828 3.83169 33.3855 3.83169C32.7881 3.83169 32.3121 4.01836 31.9575 4.39169C31.6121 4.75569 31.4395 5.28302 31.4395 5.97369V10.2857H29.8435V2.57169H31.4395V3.45369C31.7008 3.13635 32.0321 2.88902 32.4335 2.71169C32.8348 2.53435 33.2641 2.44569 33.7215 2.44569C34.3375 2.44569 34.8881 2.57636 35.3735 2.83769C35.8588 3.09902 36.2321 3.47702 36.4935 3.97169C36.7268 3.50502 37.0908 3.13635 37.5855 2.86569C38.0801 2.58569 38.6121 2.44569 39.1815 2.44569Z" fill="#010101"/>
<path d="M47.7363 10.4117C47.0083 10.4117 46.3503 10.2484 45.7623 9.92169C45.1743 9.58569 44.7123 9.11902 44.3763 8.52169C44.0403 7.91502 43.8723 7.21502 43.8723 6.42169C43.8723 5.63769 44.045 4.94236 44.3903 4.33569C44.7357 3.72902 45.207 3.26235 45.8043 2.93569C46.4017 2.60902 47.069 2.44569 47.8063 2.44569C48.5437 2.44569 49.211 2.60902 49.8083 2.93569C50.4057 3.26235 50.877 3.72902 51.2223 4.33569C51.5677 4.94236 51.7403 5.63769 51.7403 6.42169C51.7403 7.20569 51.563 7.90102 51.2083 8.50769C50.8537 9.11436 50.3683 9.58569 49.7523 9.92169C49.1457 10.2484 48.4737 10.4117 47.7363 10.4117ZM47.7363 9.02569C48.147 9.02569 48.5297 8.92769 48.8843 8.73169C49.2483 8.53569 49.5423 8.24169 49.7663 7.84969C49.9903 7.45769 50.1023 6.98169 50.1023 6.42169C50.1023 5.86169 49.995 5.39035 49.7803 5.00769C49.5657 4.61569 49.281 4.32169 48.9263 4.12569C48.5717 3.92969 48.189 3.83169 47.7783 3.83169C47.3677 3.83169 46.985 3.92969 46.6303 4.12569C46.285 4.32169 46.0097 4.61569 45.8043 5.00769C45.599 5.39035 45.4963 5.86169 45.4963 6.42169C45.4963 7.25235 45.7063 7.89635 46.1263 8.35369C46.5557 8.80169 47.0923 9.02569 47.7363 9.02569Z" fill="#010101"/>
<path d="M54.9141 3.69169C55.1474 3.29969 55.4554 2.99635 55.8381 2.78169C56.2301 2.55769 56.6921 2.44569 57.2241 2.44569V4.09769H56.8181C56.1927 4.09769 55.7167 4.25636 55.3901 4.57369C55.0727 4.89102 54.9141 5.44169 54.9141 6.22569V10.2857H53.3181V2.57169H54.9141V3.69169Z" fill="#010101"/>
<path d="M65.7611 6.23969C65.7611 6.52902 65.7425 6.79035 65.7051 7.02369H59.8111C59.8578 7.63969 60.0865 8.13436 60.4971 8.50769C60.9078 8.88102 61.4118 9.06769 62.0091 9.06769C62.8678 9.06769 63.4745 8.70835 63.8291 7.98969H65.5511C65.3178 8.69902 64.8931 9.28235 64.2771 9.73969C63.6705 10.1877 62.9145 10.4117 62.0091 10.4117C61.2718 10.4117 60.6091 10.2484 60.0211 9.92169C59.4425 9.58569 58.9851 9.11902 58.6491 8.52169C58.3225 7.91502 58.1591 7.21502 58.1591 6.42169C58.1591 5.62835 58.3178 4.93302 58.6351 4.33569C58.9618 3.72902 59.4145 3.26235 59.9931 2.93569C60.5811 2.60902 61.2531 2.44569 62.0091 2.44569C62.7371 2.44569 63.3858 2.60435 63.9551 2.92169C64.5245 3.23902 64.9678 3.68702 65.2851 4.26569C65.6025 4.83502 65.7611 5.49302 65.7611 6.23969ZM64.0951 5.73569C64.0858 5.14769 63.8758 4.67635 63.4651 4.32169C63.0545 3.96702 62.5458 3.78969 61.9391 3.78969C61.3885 3.78969 60.9171 3.96702 60.5251 4.32169C60.1331 4.66702 59.8998 5.13835 59.8251 5.73569H64.0951Z" fill="#010101"/>
</svg>
