<svg width="25" height="97" viewBox="0 0 25 97" fill="none" xmlns="http://www.w3.org/2000/svg">
<path d="M12.105 96.21C18.7369 96.21 24.2121 90.7273 24.2121 84.105C24.2121 77.4731 18.7273 72 12.0954 72C5.47523 72 0 77.4731 0 84.105C0 90.7273 5.48484 96.21 12.105 96.21Z" fill="#6BC844"/>
<path d="M10.7997 89.8918C10.3591 89.8918 9.99726 89.7003 9.66938 89.2754L6.79758 85.782C6.58805 85.5139 6.48047 85.2434 6.48047 84.9465C6.48047 84.3495 6.9539 83.8653 7.54874 83.8653C7.92023 83.8653 8.20124 83.9898 8.50265 84.3765L10.7613 87.2443L15.607 79.4858C15.8613 79.0857 16.1934 78.875 16.5529 78.875C17.1382 78.875 17.6756 79.2856 17.6756 79.8997C17.6756 80.1702 17.5338 80.4566 17.37 80.7259L11.8875 89.267C11.6182 89.6769 11.2382 89.8918 10.7997 89.8918Z" fill="white"/>
<path d="M12.105 60.21C18.7369 60.21 24.2121 54.7273 24.2121 48.105C24.2121 41.4731 18.7273 36 12.0954 36C5.47523 36 0 41.4731 0 48.105C0 54.7273 5.48484 60.21 12.105 60.21Z" fill="#6BC844"/>
<path d="M10.7997 53.8918C10.3591 53.8918 9.99726 53.7003 9.66938 53.2754L6.79758 49.782C6.58805 49.5139 6.48047 49.2434 6.48047 48.9465C6.48047 48.3495 6.9539 47.8653 7.54874 47.8653C7.92023 47.8653 8.20124 47.9898 8.50265 48.3765L10.7613 51.2443L15.607 43.4858C15.8613 43.0857 16.1934 42.875 16.5529 42.875C17.1382 42.875 17.6756 43.2856 17.6756 43.8997C17.6756 44.1702 17.5338 44.4566 17.37 44.7259L11.8875 53.267C11.6182 53.6769 11.2382 53.8918 10.7997 53.8918Z" fill="white"/>
<path d="M23.7121 12.105C23.7121 18.4513 18.4606 23.71 12.105 23.71C5.76092 23.71 0.5 18.4511 0.5 12.105C0.5 5.74906 5.75157 0.5 12.0954 0.5C18.4518 0.5 23.7121 5.74989 23.7121 12.105Z" stroke="#79797D"/>
</svg>
