<svg width="12" height="7" viewBox="0 0 12 7" fill="none" xmlns="http://www.w3.org/2000/svg">
<path d="M5.5297 6.91835C5.74185 6.91723 5.93383 6.83576 6.09156 6.66998L10.8431 1.80217C10.9795 1.66576 11.0531 1.49702 11.0531 1.29944C11.0531 0.891818 10.7367 0.570312 10.3325 0.570312C10.1349 0.570312 9.95095 0.649564 9.81005 0.788728L5.22415 5.49194H5.83462L1.24421 0.788728C1.1073 0.651811 0.924456 0.570312 0.720645 0.570312C0.315266 0.570312 0 0.891818 0 1.29944C0 1.49589 0.0747606 1.66463 0.20893 1.80729L4.96268 6.66998C5.13067 6.83799 5.31352 6.91835 5.5297 6.91835Z" fill="black"/>
</svg>
