<svg width="12" height="7" viewBox="0 0 12 7" fill="none" xmlns="http://www.w3.org/2000/svg">
<path d="M5.6879 6.91835C5.90006 6.91723 6.09203 6.83576 6.24976 6.66998L11.0013 1.80217C11.1377 1.66576 11.2113 1.49702 11.2113 1.29944C11.2113 0.891818 10.8949 0.570312 10.4907 0.570312C10.2931 0.570312 10.1092 0.649564 9.96825 0.788728L5.38235 5.49194H5.99282L1.40242 0.788728C1.26551 0.651811 1.08266 0.570312 0.878848 0.570312C0.473469 0.570312 0.158203 0.891818 0.158203 1.29944C0.158203 1.49589 0.232964 1.66463 0.367133 1.80729L5.12088 6.66998C5.28888 6.83799 5.47172 6.91835 5.6879 6.91835Z" fill="black"/>
</svg>
