<svg width="21" height="17" viewBox="0 0 21 17" fill="none" xmlns="http://www.w3.org/2000/svg">
<path d="M17.9643 3.00927C18.8396 2.47119 19.4191 1.73674 19.7029 0.802675C18.9036 1.23565 18.0457 1.55028 17.1562 1.73674C16.3946 0.916586 15.4305 0.5 14.2747 0.5C13.1448 0.5 12.1904 0.897058 11.4116 1.66948C11.0354 2.03627 10.738 2.47612 10.5376 2.96206C10.3372 3.44801 10.2379 3.96982 10.246 4.49553C10.246 4.83075 10.2882 5.13017 10.3727 5.38403C7.04057 5.27012 4.28255 3.88584 2.10951 1.22143C1.7412 1.87343 1.55704 2.53736 1.55704 3.22408C1.55704 4.63548 2.15176 5.75396 3.33902 6.5752C2.66198 6.5177 2.06509 6.3463 1.55704 6.06532C1.55704 7.07315 1.85277 7.915 2.44532 8.65596C3.02093 9.37797 3.83211 9.87384 4.73645 10.0565C4.39846 10.1433 4.04207 10.1845 3.67592 10.1845C3.33794 10.1845 3.09854 10.1563 2.95663 10.0945C3.20578 10.9157 3.67592 11.5818 4.35513 12.0917C5.02659 12.6023 5.84336 12.8847 6.68634 12.8977C5.24342 14.0314 3.59359 14.5923 1.72711 14.5923C1.26997 14.5923 0.946072 14.5858 0.75 14.5511C2.58831 15.7466 4.63462 16.34 6.89866 16.34C9.21578 16.34 11.2632 15.752 13.0452 14.576C14.8271 13.4065 16.1422 11.9637 16.9872 10.2648C17.8228 8.62093 18.2578 6.80228 18.2568 4.95768V4.44997C19.0356 3.87491 19.7098 3.16996 20.25 2.36595C19.5205 2.68258 18.7517 2.89898 17.9643 3.00927V3.00927Z" fill="#F2F2F2"/>
</svg>
