<svg width="21" height="15" viewBox="0 0 21 15" fill="none" xmlns="http://www.w3.org/2000/svg">
<path d="M20.8651 3.31269C20.8651 1.58774 19.5073 0.200113 17.8295 0.200113C15.557 0.100832 13.2393 0.0625 10.8708 0.0625H10.1324C7.76959 0.0625 5.44781 0.100832 3.17526 0.200496C1.50161 0.200496 0.143822 1.59579 0.143822 3.32074C0.0412703 4.68499 -0.0022118 6.04962 0.000249451 7.41425C-0.00385263 8.77888 0.0426376 10.1448 0.13972 11.512C0.13972 13.2369 1.49751 14.6361 3.17116 14.6361C5.55857 14.7396 8.00751 14.7855 10.4975 14.7817C12.9915 14.7894 15.4336 14.7408 17.8238 14.6361C19.5015 14.6361 20.8593 13.2369 20.8593 11.512C20.9578 10.1435 21.0029 8.77888 20.9988 7.41042C21.0081 6.04579 20.9635 4.67988 20.8651 3.31269ZM8.49156 11.1746V3.64235L14.4396 7.40658L8.49156 11.1746Z" fill="#F2F2F2"/>
</svg>
