<svg width="19" height="19" viewBox="0 0 19 19" fill="none" xmlns="http://www.w3.org/2000/svg">
<path d="M17.7151 0.046875H1.0349C0.760425 0.046875 0.497195 0.155908 0.303114 0.349989C0.109033 0.54407 0 0.8073 0 1.08177V17.7622C6.90554e-05 18.0367 0.109133 18.2998 0.303206 18.4939C0.497279 18.6879 0.76047 18.7969 1.0349 18.7969H10.0148V11.5359H7.57135V8.70625H10.0148V6.61927C10.0148 4.1974 11.494 2.87891 13.6544 2.87891C14.6893 2.87891 15.5786 2.95573 15.838 2.99036V5.52135L14.3396 5.52214C13.1646 5.52214 12.9372 6.08047 12.9372 6.89974V8.70651H15.7393L15.3745 11.5362H12.9372V18.7969H17.7154C17.9898 18.7968 18.253 18.6877 18.447 18.4937C18.641 18.2996 18.75 18.0364 18.75 17.762V1.08177C18.75 0.8073 18.641 0.54407 18.4469 0.349989C18.2528 0.155908 17.9896 0.046875 17.7151 0.046875V0.046875Z" fill="#F2F2F2"/>
</svg>
