<svg width="19" height="19" viewBox="0 0 19 19" fill="none" xmlns="http://www.w3.org/2000/svg">
<path d="M17.5004 0.046875H1.85212C0.997069 0.046875 0.25 0.662109 0.25 1.50711V17.1902C0.25 18.0398 0.997069 18.7969 1.85212 18.7969H17.4958C18.3554 18.7969 19 18.0347 19 17.1902V1.50711C19.005 0.662109 18.3554 0.046875 17.5004 0.046875ZM6.06207 15.6759H3.37597V7.32422H6.06207V15.6759ZM4.81193 6.05441H4.79268C3.93303 6.05441 3.37639 5.41448 3.37639 4.61342C3.37639 3.79771 3.94768 3.17285 4.82658 3.17285C5.70549 3.17285 6.24329 3.79311 6.26255 4.61342C6.26213 5.41448 5.70549 6.05441 4.81193 6.05441ZM15.879 15.6759H13.1929V11.1094C13.1929 10.0153 12.802 9.26786 11.8302 9.26786C11.0877 9.26786 10.6483 9.77009 10.4528 10.2593C10.3796 10.4351 10.3599 10.6745 10.3599 10.9189V15.6759H7.67382V7.32422H10.3599V8.48647C10.7508 7.92983 11.3615 7.12877 12.7823 7.12877C14.5456 7.12877 15.8794 8.29102 15.8794 10.7967L15.879 15.6759Z" fill="#F2F2F2"/>
</svg>
