<svg width="36" height="28" viewBox="0 0 36 28" fill="none" xmlns="http://www.w3.org/2000/svg">
<path d="M6 11.0166C6 16.0235 10.2005 20.9674 16.7529 25.1862C17.1023 25.4081 17.5362 25.6355 17.8371 25.6355C18.1359 25.6355 18.5719 25.4081 18.9309 25.1862C25.4737 20.9674 29.6742 16.0235 29.6742 11.0166C29.6742 6.7057 26.6979 3.71484 22.8651 3.71484C20.6381 3.71484 18.8909 4.73977 17.8371 6.28383C16.8026 4.74938 15.034 3.71484 12.8091 3.71484C8.97632 3.71484 6 6.7057 6 11.0166ZM8.3592 11.006C8.3592 8.03225 10.3137 6.03608 12.9354 6.03608C15.052 6.03608 16.2459 7.31858 16.9812 8.43772C17.3039 8.91069 17.5284 9.0628 17.8371 9.0628C18.1458 9.0628 18.3448 8.89897 18.6888 8.43772C19.4826 7.33569 20.6318 6.03608 22.7388 6.03608C25.3605 6.03608 27.3129 8.03225 27.3129 11.006C27.3129 15.1545 22.9901 19.7356 18.0621 23.0145C17.9576 23.0881 17.884 23.1403 17.8371 23.1403C17.7902 23.1403 17.7166 23.0881 17.6217 23.0145C12.682 19.7356 8.3592 15.1545 8.3592 11.006Z" fill="black"/>
</svg>
