<svg width="16" height="17" viewBox="0 0 16 17" fill="none" xmlns="http://www.w3.org/2000/svg">
<path d="M8 16.5C6.90667 16.5 5.87333 16.2899 4.9 15.8696C3.92667 15.4499 3.0768 14.8765 2.3504 14.1496C1.62347 13.4232 1.05013 12.5733 0.6304 11.6C0.210133 10.6267 0 9.59333 0 8.5C0 7.39333 0.210133 6.3568 0.6304 5.3904C1.05013 4.42347 1.62347 3.5768 2.3504 2.8504C3.0768 2.12347 3.92667 1.54987 4.9 1.1296C5.87333 0.709867 6.90667 0.5 8 0.5C9.10667 0.5 10.1432 0.709867 11.1096 1.1296C12.0765 1.54987 12.9232 2.12347 13.6496 2.8504C14.3765 3.5768 14.9499 4.42347 15.3696 5.3904C15.7899 6.3568 16 7.39333 16 8.5C16 9.59333 15.7899 10.6267 15.3696 11.6C14.9499 12.5733 14.3765 13.4232 13.6496 14.1496C12.9232 14.8765 12.0765 15.4499 11.1096 15.8696C10.1432 16.2899 9.10667 16.5 8 16.5ZM8 14.86C8.34667 14.38 8.64667 13.88 8.9 13.36C9.15333 12.84 9.36 12.2867 9.52 11.7H6.48C6.64 12.2867 6.84667 12.84 7.1 13.36C7.35333 13.88 7.65333 14.38 8 14.86ZM5.92 14.54C5.68 14.1 5.47013 13.6432 5.2904 13.1696C5.11013 12.6965 4.96 12.2067 4.84 11.7H2.48C2.86667 12.3667 3.34987 12.9467 3.9296 13.44C4.50987 13.9333 5.17333 14.3 5.92 14.54ZM10.08 14.54C10.8267 14.3 11.4899 13.9333 12.0696 13.44C12.6499 12.9467 13.1333 12.3667 13.52 11.7H11.16C11.04 12.2067 10.8901 12.6965 10.7104 13.1696C10.5301 13.6432 10.32 14.1 10.08 14.54ZM1.8 10.1H4.52C4.48 9.83333 4.44987 9.56987 4.4296 9.3096C4.40987 9.04987 4.4 8.78 4.4 8.5C4.4 8.22 4.40987 7.95013 4.4296 7.6904C4.44987 7.43013 4.48 7.16667 4.52 6.9H1.8C1.73333 7.16667 1.6832 7.43013 1.6496 7.6904C1.61653 7.95013 1.6 8.22 1.6 8.5C1.6 8.78 1.61653 9.04987 1.6496 9.3096C1.6832 9.56987 1.73333 9.83333 1.8 10.1ZM6.12 10.1H9.88C9.92 9.83333 9.95013 9.56987 9.9704 9.3096C9.99013 9.04987 10 8.78 10 8.5C10 8.22 9.99013 7.95013 9.9704 7.6904C9.95013 7.43013 9.92 7.16667 9.88 6.9H6.12C6.08 7.16667 6.05013 7.43013 6.0304 7.6904C6.01013 7.95013 6 8.22 6 8.5C6 8.78 6.01013 9.04987 6.0304 9.3096C6.05013 9.56987 6.08 9.83333 6.12 10.1ZM11.48 10.1H14.2C14.2667 9.83333 14.3168 9.56987 14.3504 9.3096C14.3835 9.04987 14.4 8.78 14.4 8.5C14.4 8.22 14.3835 7.95013 14.3504 7.6904C14.3168 7.43013 14.2667 7.16667 14.2 6.9H11.48C11.52 7.16667 11.5499 7.43013 11.5696 7.6904C11.5899 7.95013 11.6 8.22 11.6 8.5C11.6 8.78 11.5899 9.04987 11.5696 9.3096C11.5499 9.56987 11.52 9.83333 11.48 10.1ZM11.16 5.3H13.52C13.1333 4.63333 12.6499 4.05333 12.0696 3.56C11.4899 3.06667 10.8267 2.7 10.08 2.46C10.32 2.9 10.5301 3.35653 10.7104 3.8296C10.8901 4.3032 11.04 4.79333 11.16 5.3ZM6.48 5.3H9.52C9.36 4.71333 9.15333 4.16 8.9 3.64C8.64667 3.12 8.34667 2.62 8 2.14C7.65333 2.62 7.35333 3.12 7.1 3.64C6.84667 4.16 6.64 4.71333 6.48 5.3ZM2.48 5.3H4.84C4.96 4.79333 5.11013 4.3032 5.2904 3.8296C5.47013 3.35653 5.68 2.9 5.92 2.46C5.17333 2.7 4.50987 3.06667 3.9296 3.56C3.34987 4.05333 2.86667 4.63333 2.48 5.3Z" fill="#79797D"/>
</svg>
