<svg width="29" height="29" viewBox="0 0 29 29" fill="none" xmlns="http://www.w3.org/2000/svg">
<path d="M3.84421 25.0834H22.7388C24.9853 25.0834 26.2905 23.7781 26.2905 21.2776V11.8609C25.6183 12.1456 24.8941 12.2659 24.1369 12.2312V21.2134C24.1369 22.3487 23.5237 22.9107 22.4491 22.9107H3.83929C2.74757 22.9107 2.15366 22.3487 2.15366 21.2038V8.40124C2.15366 7.26804 2.74757 6.7039 3.83929 6.7039H18.578C18.5168 5.95929 18.6445 5.19594 18.9251 4.53125H3.5496C1.30523 4.53125 0 5.82688 0 8.32742V21.2776C0 23.7877 1.31484 25.0834 3.84421 25.0834ZM13.1634 17.9947C14.0301 17.9947 14.8587 17.6316 15.7001 16.8041L21.2163 11.3773C20.6536 11.0326 20.1588 10.5624 19.766 10.0327L14.5055 15.2251C14.0163 15.7121 13.5951 15.9242 13.1634 15.9242C12.7221 15.9242 12.3126 15.7121 11.8214 15.2251L2.56662 6.08328L1.17585 7.51085L10.6247 16.8041C11.4682 17.6338 12.2871 17.9947 13.1634 17.9947ZM23.7183 23.4744L25.1311 22.0646L16.9697 13.9822L15.5737 15.3971L23.7183 23.4744ZM2.73983 23.3356L10.5448 15.5959L9.13828 14.1936L1.33241 21.9301L2.73983 23.3356Z" fill="black"/>
<path d="M24.249 10.5991C26.465 10.5991 28.2985 8.76555 28.2985 6.54953C28.2985 4.33352 26.465 2.5 24.249 2.5C22.0329 2.5 20.209 4.33352 20.209 6.54953C20.209 8.76555 22.0329 10.5991 24.249 10.5991Z" fill="#FE4A49"/>
</svg>
