<svg width="29" height="28" viewBox="0 0 29 28" fill="none" xmlns="http://www.w3.org/2000/svg">
<path d="M3.84421 24.5834H22.7388C24.9853 24.5834 26.2905 23.2781 26.2905 20.7776V11.3609C25.6183 11.6456 24.8941 11.7659 24.1369 11.7312V20.7134C24.1369 21.8487 23.5237 22.4107 22.4491 22.4107H3.83929C2.74757 22.4107 2.15366 21.8487 2.15366 20.7038V7.90124C2.15366 6.76804 2.74757 6.2039 3.83929 6.2039H18.578C18.5168 5.45929 18.6445 4.69594 18.9251 4.03125H3.5496C1.30523 4.03125 0 5.32688 0 7.82742V20.7776C0 23.2877 1.31484 24.5834 3.84421 24.5834ZM13.1634 17.4947C14.0301 17.4947 14.8587 17.1316 15.7001 16.3041L21.2163 10.8773C20.6536 10.5326 20.1588 10.0624 19.766 9.53274L14.5055 14.7251C14.0163 15.2121 13.5951 15.4242 13.1634 15.4242C12.7221 15.4242 12.3126 15.2121 11.8214 14.7251L2.56662 5.58328L1.17585 7.01085L10.6247 16.3041C11.4682 17.1338 12.2871 17.4947 13.1634 17.4947ZM23.7183 22.9744L25.1311 21.5646L16.9697 13.4822L15.5737 14.8971L23.7183 22.9744ZM2.73983 22.8356L10.5448 15.0959L9.13828 13.6936L1.33241 21.4301L2.73983 22.8356Z" fill="black"/>
<path d="M24.249 10.0991C26.465 10.0991 28.2985 8.26555 28.2985 6.04953C28.2985 3.83352 26.465 2 24.249 2C22.0329 2 20.209 3.83352 20.209 6.04953C20.209 8.26555 22.0329 10.0991 24.249 10.0991Z" fill="#FE4A49"/>
</svg>
