<svg width="23" height="29" viewBox="0 0 23 29" fill="none" xmlns="http://www.w3.org/2000/svg">
<path d="M0.210938 21.1183C0.210938 22.1109 0.95156 22.7662 2.17031 22.7662H6.99328C7.08703 25.0194 8.91773 27.0653 11.5739 27.0653C14.2417 27.0653 16.0724 25.0194 16.1662 22.7662H20.9892C22.1983 22.7662 22.9485 22.1109 22.9485 21.1183C22.9485 19.8726 21.7996 18.8052 20.7475 17.7812C19.9319 16.9832 19.7378 15.3845 19.5829 13.8281C19.5691 13.1516 19.5147 12.5254 19.4507 11.9184C18.7649 12.1933 17.9013 12.3093 17.1689 12.2184C17.2307 12.7635 17.2734 13.3492 17.2851 14.031C17.4032 16.255 17.7932 17.9418 18.5852 18.8666C19.1683 19.5252 19.8175 20.1534 20.1192 20.4869V20.6233H3.00748V20.4869C3.30701 20.1534 3.98904 19.5252 4.56467 18.8666C5.37256 17.9418 5.75201 16.255 5.87436 14.031C6.00607 9.27061 7.46623 7.68178 9.35624 7.17108C9.64077 7.10288 9.80483 6.96858 9.8271 6.6428C9.88545 5.45358 10.5485 4.65084 11.5739 4.65084C11.7721 4.65084 11.9608 4.67217 12.1164 4.73826C12.3285 4.04522 12.689 3.40843 13.1737 2.87875C12.7021 2.63406 12.1635 2.5 11.5739 2.5C9.83437 2.5 8.53077 3.6775 8.09343 5.24008C5.02898 6.34399 3.74296 9.30578 3.58922 13.7458C3.43852 15.3592 3.23813 16.9748 2.41196 17.7812C1.35024 18.8052 0.210938 19.8726 0.210938 21.1183ZM9.20319 22.7662H13.9563C13.8668 24.2439 12.9096 25.1852 11.5739 25.1852C10.2499 25.1852 9.28311 24.2439 9.20319 22.7662Z" fill="black"/>
<path d="M17.4363 10.6832C19.6427 10.6832 21.4858 8.8593 21.4858 6.64328C21.4858 4.41766 19.6427 2.59375 17.4363 2.59375C15.2106 2.59375 13.3867 4.41766 13.3867 6.64328C13.3867 8.8593 15.2106 10.6832 17.4363 10.6832Z" fill="#FE4A49"/>
</svg>
