<svg width="28" height="29" viewBox="0 0 28 29" fill="none" xmlns="http://www.w3.org/2000/svg">
<path d="M2 12.0372C2 17.301 6.27757 21.5765 11.5393 21.5765C13.4961 21.5765 15.2919 20.9751 16.7891 19.96L22.1729 25.3534C22.5099 25.6905 22.9564 25.851 23.4263 25.851C24.4236 25.851 25.1368 25.0973 25.1368 24.1117C25.1368 23.6481 24.9666 23.2155 24.6446 22.8935L19.3022 17.5202C20.4207 15.9815 21.0786 14.0898 21.0786 12.0372C21.0786 6.77547 16.801 2.5 11.5393 2.5C6.27757 2.5 2 6.77547 2 12.0372ZM4.48482 12.0372C4.48482 8.14491 7.64702 4.98482 11.5393 4.98482C15.4316 4.98482 18.5916 8.14491 18.5916 12.0372C18.5916 15.9316 15.4316 19.0916 11.5393 19.0916C7.64702 19.0916 4.48482 15.9316 4.48482 12.0372Z" fill="black"/>
</svg>
