<svg width="50" height="8" viewBox="0 0 50 8" fill="none" xmlns="http://www.w3.org/2000/svg">
<path d="M44.8397 6.70208L42.6585 7.92509C42.5621 7.98217 42.4614 8.00662 42.3563 7.99847C42.2511 7.99032 42.1592 7.95771 42.0803 7.90063C42.0015 7.84356 41.9401 7.7723 41.8963 7.68685C41.8525 7.60108 41.8438 7.50519 41.8701 7.3992L42.4482 5.08771L40.5166 3.53449C40.429 3.46111 40.3744 3.37746 40.3526 3.28353C40.3306 3.18993 40.337 3.09829 40.3721 3.0086C40.4071 2.91891 40.4597 2.84553 40.5298 2.78846C40.5999 2.73138 40.6962 2.69469 40.8189 2.67839L43.368 2.47048L44.3536 0.293522C44.3974 0.195681 44.4653 0.122301 44.5575 0.0733805C44.6493 0.0244602 44.7434 0 44.8397 0C44.9361 0 45.0304 0.0244602 45.1225 0.0733805C45.2143 0.122301 45.2821 0.195681 45.3259 0.293522L46.3114 2.47048L48.8606 2.67839C48.9833 2.69469 49.0796 2.73138 49.1497 2.78846C49.2198 2.84553 49.2724 2.91891 49.3074 3.0086C49.3424 3.09829 49.3491 3.18993 49.3274 3.28353C49.3053 3.37746 49.2505 3.46111 49.1629 3.53449L47.2313 5.08771L47.8094 7.3992C47.8357 7.50519 47.8269 7.60108 47.7831 7.68685C47.7393 7.7723 47.678 7.84356 47.5992 7.90063C47.5203 7.95771 47.4284 7.99032 47.3232 7.99847C47.2181 8.00662 47.1174 7.98217 47.021 7.92509L44.8397 6.70208Z" fill="#DEB00F"/>
<path d="M34.8397 6.70208L32.6585 7.92509C32.5621 7.98217 32.4614 8.00662 32.3563 7.99847C32.2511 7.99032 32.1592 7.95771 32.0803 7.90063C32.0015 7.84356 31.9401 7.7723 31.8963 7.68685C31.8525 7.60108 31.8438 7.50519 31.8701 7.3992L32.4482 5.08771L30.5166 3.53449C30.429 3.46111 30.3744 3.37746 30.3526 3.28353C30.3306 3.18993 30.337 3.09829 30.3721 3.0086C30.4071 2.91891 30.4597 2.84553 30.5298 2.78846C30.5999 2.73138 30.6962 2.69469 30.8189 2.67839L33.368 2.47048L34.3536 0.293522C34.3974 0.195681 34.4653 0.122301 34.5575 0.0733805C34.6493 0.0244602 34.7434 0 34.8397 0C34.9361 0 35.0304 0.0244602 35.1225 0.0733805C35.2143 0.122301 35.2821 0.195681 35.3259 0.293522L36.3114 2.47048L38.8606 2.67839C38.9833 2.69469 39.0796 2.73138 39.1497 2.78846C39.2198 2.84553 39.2724 2.91891 39.3074 3.0086C39.3424 3.09829 39.3491 3.18993 39.3274 3.28353C39.3053 3.37746 39.2505 3.46111 39.1629 3.53449L37.2313 5.08771L37.8094 7.3992C37.8357 7.50519 37.8269 7.60108 37.7831 7.68685C37.7393 7.7723 37.678 7.84356 37.5992 7.90063C37.5203 7.95771 37.4284 7.99032 37.3232 7.99847C37.2181 8.00662 37.1174 7.98217 37.021 7.92509L34.8397 6.70208Z" fill="#DEB00F"/>
<path d="M24.8397 6.70208L22.6585 7.92509C22.5621 7.98217 22.4614 8.00662 22.3563 7.99847C22.2511 7.99032 22.1592 7.95771 22.0803 7.90063C22.0015 7.84356 21.9401 7.7723 21.8963 7.68685C21.8525 7.60108 21.8438 7.50519 21.8701 7.3992L22.4482 5.08771L20.5166 3.53449C20.429 3.46111 20.3744 3.37746 20.3526 3.28353C20.3306 3.18993 20.337 3.09829 20.3721 3.0086C20.4071 2.91891 20.4597 2.84553 20.5298 2.78846C20.5999 2.73138 20.6962 2.69469 20.8189 2.67839L23.368 2.47048L24.3536 0.293522C24.3974 0.195681 24.4653 0.122301 24.5575 0.0733805C24.6493 0.0244602 24.7434 0 24.8397 0C24.9361 0 25.0304 0.0244602 25.1225 0.0733805C25.2143 0.122301 25.2821 0.195681 25.3259 0.293522L26.3114 2.47048L28.8606 2.67839C28.9833 2.69469 29.0796 2.73138 29.1497 2.78846C29.2198 2.84553 29.2724 2.91891 29.3074 3.0086C29.3424 3.09829 29.3491 3.18993 29.3274 3.28353C29.3053 3.37746 29.2505 3.46111 29.1629 3.53449L27.2313 5.08771L27.8094 7.3992C27.8357 7.50519 27.8269 7.60108 27.7831 7.68685C27.7393 7.7723 27.678 7.84356 27.5992 7.90063C27.5203 7.95771 27.4284 7.99032 27.3232 7.99847C27.2181 8.00662 27.1174 7.98217 27.021 7.92509L24.8397 6.70208Z" fill="#DEB00F"/>
<path d="M14.8397 6.70208L12.6585 7.92509C12.5621 7.98217 12.4614 8.00662 12.3563 7.99847C12.2511 7.99032 12.1592 7.95771 12.0803 7.90063C12.0015 7.84356 11.9401 7.7723 11.8963 7.68685C11.8525 7.60108 11.8438 7.50519 11.8701 7.3992L12.4482 5.08771L10.5166 3.53449C10.429 3.46111 10.3744 3.37746 10.3526 3.28353C10.3306 3.18993 10.337 3.09829 10.3721 3.0086C10.4071 2.91891 10.4597 2.84553 10.5298 2.78846C10.5999 2.73138 10.6962 2.69469 10.8189 2.67839L13.368 2.47048L14.3536 0.293522C14.3974 0.195681 14.4653 0.122301 14.5575 0.0733805C14.6493 0.0244602 14.7434 0 14.8397 0C14.9361 0 15.0304 0.0244602 15.1225 0.0733805C15.2143 0.122301 15.2821 0.195681 15.3259 0.293522L16.3114 2.47048L18.8606 2.67839C18.9833 2.69469 19.0796 2.73138 19.1497 2.78846C19.2198 2.84553 19.2724 2.91891 19.3074 3.0086C19.3424 3.09829 19.3491 3.18993 19.3274 3.28353C19.3053 3.37746 19.2505 3.46111 19.1629 3.53449L17.2313 5.08771L17.8094 7.3992C17.8357 7.50519 17.8269 7.60108 17.7831 7.68685C17.7393 7.7723 17.678 7.84356 17.5992 7.90063C17.5203 7.95771 17.4284 7.99032 17.3232 7.99847C17.2181 8.00662 17.1174 7.98217 17.021 7.92509L14.8397 6.70208Z" fill="#DEB00F"/>
<path d="M4.83974 6.70208L2.65848 7.92509C2.56212 7.98217 2.46138 8.00662 2.35625 7.99847C2.25113 7.99032 2.15915 7.95771 2.08031 7.90063C2.00147 7.84356 1.94015 7.7723 1.89635 7.68685C1.85255 7.60108 1.84379 7.50519 1.87007 7.3992L2.44824 5.08771L0.516631 3.53449C0.42903 3.46111 0.374367 3.37746 0.352642 3.28353C0.330567 3.18993 0.337049 3.09829 0.37209 3.0086C0.40713 2.91891 0.459691 2.84553 0.529771 2.78846C0.599852 2.73138 0.696213 2.69469 0.818855 2.67839L3.36805 2.47048L4.35356 0.293522C4.39736 0.195681 4.46534 0.122301 4.55749 0.0733805C4.6493 0.0244602 4.74338 0 4.83974 0C4.93611 0 5.03036 0.0244602 5.12252 0.0733805C5.21433 0.122301 5.28213 0.195681 5.32593 0.293522L6.31144 2.47048L8.86063 2.67839C8.98328 2.69469 9.07964 2.73138 9.14972 2.78846C9.2198 2.84553 9.27236 2.91891 9.3074 3.0086C9.34244 3.09829 9.3491 3.18993 9.32737 3.28353C9.3053 3.37746 9.25046 3.46111 9.16286 3.53449L7.23125 5.08771L7.80942 7.3992C7.8357 7.50519 7.82694 7.60108 7.78314 7.68685C7.73934 7.7723 7.67802 7.84356 7.59918 7.90063C7.52034 7.95771 7.42836 7.99032 7.32324 7.99847C7.21811 8.00662 7.11737 7.98217 7.02101 7.92509L4.83974 6.70208Z" fill="#DEB00F"/>
</svg>
