<svg width="50" height="8" viewBox="0 0 50 8" fill="none" xmlns="http://www.w3.org/2000/svg">
<path d="M45.3397 6.70208L43.1585 7.92509C43.0621 7.98217 42.9614 8.00662 42.8563 7.99847C42.7511 7.99032 42.6592 7.95771 42.5803 7.90063C42.5015 7.84356 42.4401 7.7723 42.3963 7.68685C42.3525 7.60108 42.3438 7.50519 42.3701 7.3992L42.9482 5.08771L41.0166 3.53449C40.929 3.46111 40.8744 3.37746 40.8526 3.28353C40.8306 3.18993 40.837 3.09829 40.8721 3.0086C40.9071 2.91891 40.9597 2.84553 41.0298 2.78846C41.0999 2.73138 41.1962 2.69469 41.3189 2.67839L43.868 2.47048L44.8536 0.293522C44.8974 0.195681 44.9653 0.122301 45.0575 0.0733805C45.1493 0.0244602 45.2434 0 45.3397 0C45.4361 0 45.5304 0.0244602 45.6225 0.0733805C45.7143 0.122301 45.7821 0.195681 45.8259 0.293522L46.8114 2.47048L49.3606 2.67839C49.4833 2.69469 49.5796 2.73138 49.6497 2.78846C49.7198 2.84553 49.7724 2.91891 49.8074 3.0086C49.8424 3.09829 49.8491 3.18993 49.8274 3.28353C49.8053 3.37746 49.7505 3.46111 49.6629 3.53449L47.7313 5.08771L48.3094 7.3992C48.3357 7.50519 48.3269 7.60108 48.2831 7.68685C48.2393 7.7723 48.178 7.84356 48.0992 7.90063C48.0203 7.95771 47.9284 7.99032 47.8232 7.99847C47.7181 8.00662 47.6174 7.98217 47.521 7.92509L45.3397 6.70208Z" fill="#DEB00F"/>
<path d="M35.3397 6.70208L33.1585 7.92509C33.0621 7.98217 32.9614 8.00662 32.8563 7.99847C32.7511 7.99032 32.6592 7.95771 32.5803 7.90063C32.5015 7.84356 32.4401 7.7723 32.3963 7.68685C32.3525 7.60108 32.3438 7.50519 32.3701 7.3992L32.9482 5.08771L31.0166 3.53449C30.929 3.46111 30.8744 3.37746 30.8526 3.28353C30.8306 3.18993 30.837 3.09829 30.8721 3.0086C30.9071 2.91891 30.9597 2.84553 31.0298 2.78846C31.0999 2.73138 31.1962 2.69469 31.3189 2.67839L33.868 2.47048L34.8536 0.293522C34.8974 0.195681 34.9653 0.122301 35.0575 0.0733805C35.1493 0.0244602 35.2434 0 35.3397 0C35.4361 0 35.5304 0.0244602 35.6225 0.0733805C35.7143 0.122301 35.7821 0.195681 35.8259 0.293522L36.8114 2.47048L39.3606 2.67839C39.4833 2.69469 39.5796 2.73138 39.6497 2.78846C39.7198 2.84553 39.7724 2.91891 39.8074 3.0086C39.8424 3.09829 39.8491 3.18993 39.8274 3.28353C39.8053 3.37746 39.7505 3.46111 39.6629 3.53449L37.7313 5.08771L38.3094 7.3992C38.3357 7.50519 38.3269 7.60108 38.2831 7.68685C38.2393 7.7723 38.178 7.84356 38.0992 7.90063C38.0203 7.95771 37.9284 7.99032 37.8232 7.99847C37.7181 8.00662 37.6174 7.98217 37.521 7.92509L35.3397 6.70208Z" fill="#DEB00F"/>
<path d="M25.3397 6.70208L23.1585 7.92509C23.0621 7.98217 22.9614 8.00662 22.8563 7.99847C22.7511 7.99032 22.6592 7.95771 22.5803 7.90063C22.5015 7.84356 22.4401 7.7723 22.3963 7.68685C22.3525 7.60108 22.3438 7.50519 22.3701 7.3992L22.9482 5.08771L21.0166 3.53449C20.929 3.46111 20.8744 3.37746 20.8526 3.28353C20.8306 3.18993 20.837 3.09829 20.8721 3.0086C20.9071 2.91891 20.9597 2.84553 21.0298 2.78846C21.0999 2.73138 21.1962 2.69469 21.3189 2.67839L23.868 2.47048L24.8536 0.293522C24.8974 0.195681 24.9653 0.122301 25.0575 0.0733805C25.1493 0.0244602 25.2434 0 25.3397 0C25.4361 0 25.5304 0.0244602 25.6225 0.0733805C25.7143 0.122301 25.7821 0.195681 25.8259 0.293522L26.8114 2.47048L29.3606 2.67839C29.4833 2.69469 29.5796 2.73138 29.6497 2.78846C29.7198 2.84553 29.7724 2.91891 29.8074 3.0086C29.8424 3.09829 29.8491 3.18993 29.8274 3.28353C29.8053 3.37746 29.7505 3.46111 29.6629 3.53449L27.7313 5.08771L28.3094 7.3992C28.3357 7.50519 28.3269 7.60108 28.2831 7.68685C28.2393 7.7723 28.178 7.84356 28.0992 7.90063C28.0203 7.95771 27.9284 7.99032 27.8232 7.99847C27.7181 8.00662 27.6174 7.98217 27.521 7.92509L25.3397 6.70208Z" fill="#DEB00F"/>
<path d="M15.3397 6.70208L13.1585 7.92509C13.0621 7.98217 12.9614 8.00662 12.8563 7.99847C12.7511 7.99032 12.6592 7.95771 12.5803 7.90063C12.5015 7.84356 12.4401 7.7723 12.3963 7.68685C12.3525 7.60108 12.3438 7.50519 12.3701 7.3992L12.9482 5.08771L11.0166 3.53449C10.929 3.46111 10.8744 3.37746 10.8526 3.28353C10.8306 3.18993 10.837 3.09829 10.8721 3.0086C10.9071 2.91891 10.9597 2.84553 11.0298 2.78846C11.0999 2.73138 11.1962 2.69469 11.3189 2.67839L13.868 2.47048L14.8536 0.293522C14.8974 0.195681 14.9653 0.122301 15.0575 0.0733805C15.1493 0.0244602 15.2434 0 15.3397 0C15.4361 0 15.5304 0.0244602 15.6225 0.0733805C15.7143 0.122301 15.7821 0.195681 15.8259 0.293522L16.8114 2.47048L19.3606 2.67839C19.4833 2.69469 19.5796 2.73138 19.6497 2.78846C19.7198 2.84553 19.7724 2.91891 19.8074 3.0086C19.8424 3.09829 19.8491 3.18993 19.8274 3.28353C19.8053 3.37746 19.7505 3.46111 19.6629 3.53449L17.7313 5.08771L18.3094 7.3992C18.3357 7.50519 18.3269 7.60108 18.2831 7.68685C18.2393 7.7723 18.178 7.84356 18.0992 7.90063C18.0203 7.95771 17.9284 7.99032 17.8232 7.99847C17.7181 8.00662 17.6174 7.98217 17.521 7.92509L15.3397 6.70208Z" fill="#DEB00F"/>
<path d="M5.33974 6.70208L3.15848 7.92509C3.06212 7.98217 2.96138 8.00662 2.85625 7.99847C2.75113 7.99032 2.65915 7.95771 2.58031 7.90063C2.50147 7.84356 2.44015 7.7723 2.39635 7.68685C2.35255 7.60108 2.34379 7.50519 2.37007 7.3992L2.94824 5.08771L1.01663 3.53449C0.92903 3.46111 0.874367 3.37746 0.852642 3.28353C0.830567 3.18993 0.837049 3.09829 0.87209 3.0086C0.90713 2.91891 0.959691 2.84553 1.02977 2.78846C1.09985 2.73138 1.19621 2.69469 1.31885 2.67839L3.86805 2.47048L4.85356 0.293522C4.89736 0.195681 4.96534 0.122301 5.05749 0.0733805C5.1493 0.0244602 5.24338 0 5.33974 0C5.43611 0 5.53036 0.0244602 5.62252 0.0733805C5.71433 0.122301 5.78213 0.195681 5.82593 0.293522L6.81144 2.47048L9.36063 2.67839C9.48328 2.69469 9.57964 2.73138 9.64972 2.78846C9.7198 2.84553 9.77236 2.91891 9.8074 3.0086C9.84244 3.09829 9.8491 3.18993 9.82737 3.28353C9.8053 3.37746 9.75046 3.46111 9.66286 3.53449L7.73125 5.08771L8.30942 7.3992C8.3357 7.50519 8.32694 7.60108 8.28314 7.68685C8.23934 7.7723 8.17802 7.84356 8.09918 7.90063C8.02034 7.95771 7.92836 7.99032 7.82324 7.99847C7.71811 8.00662 7.61737 7.98217 7.52101 7.92509L5.33974 6.70208Z" fill="#DEB00F"/>
</svg>
