<svg width="21" height="19" viewBox="0 0 21 19" fill="none" xmlns="http://www.w3.org/2000/svg">
<path d="M3 8.27006C3 11.7307 5.81222 14.5415 9.27144 14.5415C10.5579 14.5415 11.7385 14.1461 12.7228 13.4788L16.2623 17.0246C16.4839 17.2462 16.7774 17.3517 17.0864 17.3517C17.742 17.3517 18.2109 16.8562 18.2109 16.2082C18.2109 15.9035 18.099 15.6191 17.8873 15.4074L14.375 11.8748C15.1104 10.8632 15.5429 9.61952 15.5429 8.27006C15.5429 4.81084 12.7307 2 9.27144 2C5.81222 2 3 4.81084 3 8.27006ZM4.6336 8.27006C4.6336 5.71115 6.71254 3.6336 9.27144 3.6336C11.8304 3.6336 13.9079 5.71115 13.9079 8.27006C13.9079 10.8304 11.8304 12.9079 9.27144 12.9079C6.71254 12.9079 4.6336 10.8304 4.6336 8.27006Z" fill="#393939"/>
</svg>
