<svg width="123" height="20" viewBox="0 0 123 20" fill="none" xmlns="http://www.w3.org/2000/svg">
<path d="M111.25 16.7552L105.797 19.8127C105.556 19.9554 105.304 20.0166 105.041 19.9962C104.778 19.9758 104.548 19.8943 104.351 19.7516C104.154 19.6089 104.001 19.4307 103.891 19.2171C103.782 19.0027 103.76 18.763 103.826 18.498L105.271 12.7193L100.442 8.83623C100.223 8.65278 100.086 8.44365 100.032 8.20883C99.9768 7.97483 99.993 7.74572 100.081 7.5215C100.168 7.29728 100.3 7.11383 100.475 6.97114C100.65 6.82846 100.891 6.73674 101.198 6.69597L107.571 6.17619L110.034 0.733805C110.144 0.489204 110.314 0.305752 110.544 0.183451C110.774 0.0611505 111.009 0 111.25 0C111.491 0 111.726 0.0611505 111.957 0.183451C112.186 0.305752 112.356 0.489204 112.465 0.733805L114.929 6.17619L121.302 6.69597C121.609 6.73674 121.849 6.82846 122.025 6.97114C122.2 7.11383 122.331 7.29728 122.419 7.5215C122.506 7.74572 122.523 7.97483 122.469 8.20883C122.414 8.44365 122.277 8.65278 122.058 8.83623L117.229 12.7193L118.674 18.498C118.74 18.763 118.718 19.0027 118.608 19.2171C118.499 19.4307 118.345 19.6089 118.148 19.7516C117.951 19.8943 117.721 19.9758 117.458 19.9962C117.196 20.0166 116.944 19.9554 116.703 19.8127L111.25 16.7552Z" fill="#DEB00F"/>
<path d="M86.2498 16.7552L80.7966 19.8127C80.5557 19.9554 80.3038 20.0166 80.041 19.9962C79.7782 19.9758 79.5483 19.8943 79.3512 19.7516C79.1541 19.6089 79.0008 19.4307 78.8913 19.2171C78.7818 19.0027 78.7599 18.763 78.8256 18.498L80.271 12.7193L75.442 8.83623C75.223 8.65278 75.0863 8.44365 75.032 8.20883C74.9768 7.97483 74.993 7.74572 75.0806 7.5215C75.1682 7.29728 75.2996 7.11383 75.4748 6.97114C75.65 6.82846 75.8909 6.73674 76.1975 6.69597L82.5705 6.17619L85.0343 0.733805C85.1438 0.489204 85.3137 0.305752 85.5441 0.183451C85.7736 0.0611505 86.0088 0 86.2498 0C86.4907 0 86.7263 0.0611505 86.9567 0.183451C87.1862 0.305752 87.3557 0.489204 87.4652 0.733805L89.929 6.17619L96.302 6.69597C96.6086 6.73674 96.8495 6.82846 97.0247 6.97114C97.1999 7.11383 97.3313 7.29728 97.4189 7.5215C97.5065 7.74572 97.5231 7.97483 97.4688 8.20883C97.4136 8.44365 97.2765 8.65278 97.0575 8.83623L92.2285 12.7193L93.6739 18.498C93.7396 18.763 93.7177 19.0027 93.6082 19.2171C93.4987 19.4307 93.3454 19.6089 93.1483 19.7516C92.9512 19.8943 92.7213 19.9758 92.4585 19.9962C92.1957 20.0166 91.9438 19.9554 91.7029 19.8127L86.2498 16.7552Z" fill="#DEB00F"/>
<path d="M61.2498 16.7552L55.7966 19.8127C55.5557 19.9554 55.3038 20.0166 55.041 19.9962C54.7782 19.9758 54.5483 19.8943 54.3512 19.7516C54.1541 19.6089 54.0008 19.4307 53.8913 19.2171C53.7818 19.0027 53.7599 18.763 53.8256 18.498L55.271 12.7193L50.442 8.83623C50.223 8.65278 50.0863 8.44365 50.032 8.20883C49.9768 7.97483 49.993 7.74572 50.0806 7.5215C50.1682 7.29728 50.2996 7.11383 50.4748 6.97114C50.65 6.82846 50.8909 6.73674 51.1975 6.69597L57.5705 6.17619L60.0343 0.733805C60.1438 0.489204 60.3137 0.305752 60.5441 0.183451C60.7736 0.0611505 61.0088 0 61.2498 0C61.4907 0 61.7263 0.0611505 61.9567 0.183451C62.1862 0.305752 62.3557 0.489204 62.4652 0.733805L64.929 6.17619L71.302 6.69597C71.6086 6.73674 71.8495 6.82846 72.0247 6.97114C72.1999 7.11383 72.3313 7.29728 72.4189 7.5215C72.5065 7.74572 72.5231 7.97483 72.4688 8.20883C72.4136 8.44365 72.2765 8.65278 72.0575 8.83623L67.2285 12.7193L68.6739 18.498C68.7396 18.763 68.7177 19.0027 68.6082 19.2171C68.4987 19.4307 68.3454 19.6089 68.1483 19.7516C67.9512 19.8943 67.7213 19.9758 67.4585 19.9962C67.1957 20.0166 66.9438 19.9554 66.7029 19.8127L61.2498 16.7552Z" fill="#DEB00F"/>
<path d="M36.2498 16.7552L30.7966 19.8127C30.5557 19.9554 30.3038 20.0166 30.041 19.9962C29.7782 19.9758 29.5483 19.8943 29.3512 19.7516C29.1541 19.6089 29.0008 19.4307 28.8913 19.2171C28.7818 19.0027 28.7599 18.763 28.8256 18.498L30.271 12.7193L25.442 8.83623C25.223 8.65278 25.0863 8.44365 25.032 8.20883C24.9768 7.97483 24.993 7.74572 25.0806 7.5215C25.1682 7.29728 25.2996 7.11383 25.4748 6.97114C25.65 6.82846 25.8909 6.73674 26.1975 6.69597L32.5705 6.17619L35.0343 0.733805C35.1438 0.489204 35.3137 0.305752 35.5441 0.183451C35.7736 0.0611505 36.0088 0 36.2498 0C36.4907 0 36.7263 0.0611505 36.9567 0.183451C37.1862 0.305752 37.3557 0.489204 37.4652 0.733805L39.929 6.17619L46.302 6.69597C46.6086 6.73674 46.8495 6.82846 47.0247 6.97114C47.1999 7.11383 47.3313 7.29728 47.4189 7.5215C47.5065 7.74572 47.5231 7.97483 47.4688 8.20883C47.4136 8.44365 47.2765 8.65278 47.0575 8.83623L42.2285 12.7193L43.6739 18.498C43.7396 18.763 43.7177 19.0027 43.6082 19.2171C43.4987 19.4307 43.3454 19.6089 43.1483 19.7516C42.9512 19.8943 42.7213 19.9758 42.4585 19.9962C42.1957 20.0166 41.9438 19.9554 41.7029 19.8127L36.2498 16.7552Z" fill="#DEB00F"/>
<path d="M11.2498 16.7552L5.79658 19.8127C5.55568 19.9554 5.30383 20.0166 5.04103 19.9962C4.77822 19.9758 4.54827 19.8943 4.35117 19.7516C4.15406 19.6089 4.00076 19.4307 3.89126 19.2171C3.78176 19.0027 3.75986 18.763 3.82556 18.498L5.27098 12.7193L0.441969 8.83623C0.222966 8.65278 0.0863086 8.44365 0.0319959 8.20883C-0.0231928 7.97483 -0.00698665 7.74572 0.0806144 7.5215C0.168216 7.29728 0.299617 7.11383 0.474819 6.97114C0.650021 6.82846 0.890924 6.73674 1.19753 6.69597L7.57051 6.17619L10.0343 0.733805C10.1438 0.489204 10.3137 0.305752 10.5441 0.183451C10.7736 0.0611505 11.0088 0 11.2498 0C11.4907 0 11.7263 0.0611505 11.9567 0.183451C12.1862 0.305752 12.3557 0.489204 12.4652 0.733805L14.929 6.17619L21.302 6.69597C21.6086 6.73674 21.8495 6.82846 22.0247 6.97114C22.1999 7.11383 22.3313 7.29728 22.4189 7.5215C22.5065 7.74572 22.5231 7.97483 22.4688 8.20883C22.4136 8.44365 22.2765 8.65278 22.0575 8.83623L17.2285 12.7193L18.6739 18.498C18.7396 18.763 18.7177 19.0027 18.6082 19.2171C18.4987 19.4307 18.3454 19.6089 18.1483 19.7516C17.9512 19.8943 17.7213 19.9758 17.4585 19.9962C17.1957 20.0166 16.9438 19.9554 16.7029 19.8127L11.2498 16.7552Z" fill="#DEB00F"/>
</svg>
