<svg width="27" height="7" viewBox="0 0 27 7" fill="none" xmlns="http://www.w3.org/2000/svg">
<path d="M3.38799 6.47451C1.77009 6.47451 0.423828 5.10448 0.423828 3.51442C0.423828 1.91828 1.77009 0.519121 3.38799 0.519121C5.07173 0.519121 6.42445 1.91828 6.42445 3.51442C6.42445 5.10448 5.07173 6.47451 3.38799 6.47451ZM13.4206 6.47451C11.8092 6.47451 10.4204 5.10448 10.4204 3.51442C10.4204 1.91828 11.8092 0.519121 13.4206 0.519121C15.0683 0.519121 16.4571 1.91828 16.4571 3.51442C16.4571 5.10448 15.0683 6.47451 13.4206 6.47451ZM23.4108 6.5C21.7436 6.5 20.3844 5.11086 20.3844 3.51442C20.3844 1.91191 21.7436 0.5 23.4108 0.5C25.0351 0.5 26.4238 1.91191 26.4238 3.51442C26.3943 5.11086 25.0351 6.5 23.4108 6.5Z" fill="#C4C6C7"/>
</svg>
