<svg width="12" height="20" viewBox="0 0 12 20" fill="none" xmlns="http://www.w3.org/2000/svg">
<path d="M2.23838 1.31218L2.23892 1.3127L10.793 9.58014C10.793 9.58018 10.7931 9.58022 10.7931 9.58026C10.8488 9.63421 10.8757 9.68021 10.8894 9.71708L10.8903 9.71945C10.9122 9.7775 10.9257 9.8446 10.9269 9.92455C10.9282 10.0045 10.9168 10.072 10.8967 10.1307L10.8959 10.1331C10.8833 10.1704 10.8578 10.2172 10.8038 10.273L2.51082 18.828C2.37947 18.9635 2.21889 19.0361 1.9926 19.0396C1.77674 19.043 1.6024 18.9744 1.44267 18.8196C1.27761 18.6596 1.20902 18.4938 1.20603 18.3017C1.20304 18.1097 1.26645 17.9419 1.42645 17.7768L8.66125 10.3134L9.00926 9.95437L8.65026 9.60636L1.18684 2.37155C1.04872 2.23766 0.978729 2.08013 0.975403 1.86634C0.972224 1.66189 1.03835 1.49064 1.19562 1.3284C1.35561 1.16335 1.52141 1.09475 1.71345 1.09176C1.90548 1.08878 2.07333 1.15218 2.23838 1.31218Z" fill="#F2F2F2" stroke="#F2F2F2"/>
</svg>
