<svg width="21" height="20" viewBox="0 0 21 20" fill="none" xmlns="http://www.w3.org/2000/svg">
<path d="M6.72 15L10.5 11.4L14.28 15L15.75 13.6L11.97 10L15.75 6.4L14.28 5L10.5 8.6L6.72 5L5.25 6.4L9.03 10L5.25 13.6L6.72 15ZM10.5 20C9.0475 20 7.6825 19.7373 6.405 19.212C5.1275 18.6873 4.01625 17.975 3.07125 17.075C2.12625 16.175 1.3783 15.1167 0.8274 13.9C0.2758 12.6833 0 11.3833 0 10C0 8.61667 0.2758 7.31667 0.8274 6.1C1.3783 4.88333 2.12625 3.825 3.07125 2.925C4.01625 2.025 5.1275 1.31233 6.405 0.787C7.6825 0.262333 9.0475 0 10.5 0C11.9525 0 13.3175 0.262333 14.595 0.787C15.8725 1.31233 16.9837 2.025 17.9287 2.925C18.8737 3.825 19.6217 4.88333 20.1726 6.1C20.7242 7.31667 21 8.61667 21 10C21 11.3833 20.7242 12.6833 20.1726 13.9C19.6217 15.1167 18.8737 16.175 17.9287 17.075C16.9837 17.975 15.8725 18.6873 14.595 19.212C13.3175 19.7373 11.9525 20 10.5 20ZM10.5 18C12.845 18 14.8312 17.225 16.4587 15.675C18.0862 14.125 18.9 12.2333 18.9 10C18.9 7.76667 18.0862 5.875 16.4587 4.325C14.8312 2.775 12.845 2 10.5 2C8.155 2 6.16875 2.775 4.54125 4.325C2.91375 5.875 2.1 7.76667 2.1 10C2.1 12.2333 2.91375 14.125 4.54125 15.675C6.16875 17.225 8.155 18 10.5 18Z" fill="#010101"/>
</svg>
